font.ufo
<glyph name="exclam" format="1">
  <advance width="246"/>
  <unicode hex="0021"/>
  <outline>
    <contour>
      <point x="94" y="201" type="line"/>
      <point x="113" y="195"/>
      <point x="133" y="195"/>
      <point x="151" y="201" type="curve"/>
      <point x="174" y="699" type="line"/>
      <point x="144" y="705"/>
      <point x="106" y="704"/>
      <point x="80" y="694" type="curve"/>
    </contour>
    <contour>
      <point x="123" y="-15" type="curve" smooth="yes"/>
      <point x="157" y="-15"/>
      <point x="183" y="12"/>
      <point x="183" y="46" type="curve" smooth="yes"/>
      <point x="183" y="81"/>
      <point x="157" y="107"/>
      <point x="123" y="107" type="curve" smooth="yes"/>
      <point x="88" y="107"/>
      <point x="62" y="81"/>
      <point x="62" y="46" type="curve" smooth="yes"/>
      <point x="62" y="12"/>
      <point x="88" y="-15"/>
    </contour>
  </outline>
</glyph>
<glyph name="numbersign" format="1">
  <advance width="702"/>
  <unicode hex="0023"/>
  <outline>
    <contour>
      <point x="396" y="251" type="line"/>
      <point x="239" y="251" type="line"/>
      <point x="285" y="428" type="line"/>
      <point x="442" y="428" type="line"/>
    </contour>
    <contour>
      <point x="463" y="251" type="line"/>
      <point x="509" y="428" type="line"/>
      <point x="651" y="428" type="line"/>
      <point x="649" y="453"/>
      <point x="643" y="473"/>
      <point x="629" y="488" type="curve"/>
      <point x="523" y="488" type="line"/>
      <point x="567" y="657" type="line"/>
      <point x="500" y="657" type="line"/>
      <point x="457" y="488" type="line"/>
      <point x="299" y="488" type="line"/>
      <point x="343" y="657" type="line"/>
      <point x="276" y="657" type="line"/>
      <point x="232" y="488" type="line"/>
      <point x="85" y="488" type="line"/>
      <point x="87" y="464"/>
      <point x="95" y="445"/>
      <point x="108" y="428" type="curve"/>
      <point x="218" y="428" type="line"/>
      <point x="172" y="251" type="line"/>
      <point x="51" y="251" type="line"/>
      <point x="53" y="226"/>
      <point x="59" y="208"/>
      <point x="74" y="190" type="curve"/>
      <point x="158" y="190" type="line"/>
      <point x="113" y="17" type="line"/>
      <point x="180" y="17" type="line"/>
      <point x="224" y="190" type="line"/>
      <point x="382" y="190" type="line"/>
      <point x="337" y="17" type="line"/>
      <point x="404" y="17" type="line"/>
      <point x="449" y="190" type="line"/>
      <point x="616" y="190" type="line"/>
      <point x="615" y="215"/>
      <point x="608" y="234"/>
      <point x="595" y="251" type="curve"/>
    </contour>
  </outline>
</glyph>
<glyph name="dollar" format="1">
  <advance width="477"/>
  <unicode hex="0024"/>
  <outline>
    <contour>
      <point x="224" y="-16" type="curve" smooth="yes"/>
      <point x="141" y="-16"/>
      <point x="42" y="21"/>
      <point x="42" y="90" type="curve" smooth="yes"/>
      <point x="42" y="123"/>
      <point x="62" y="150"/>
      <point x="105" y="150" type="curve"/>
      <point x="115" y="75"/>
      <point x="161" y="41"/>
      <point x="235" y="41" type="curve" smooth="yes"/>
      <point x="305" y="41"/>
      <point x="363" y="73"/>
      <point x="363" y="145" type="curve" smooth="yes"/>
      <point x="363" y="220"/>
      <point x="305" y="247"/>
      <point x="235" y="276" type="curve" smooth="yes"/>
      <point x="143" y="313"/>
      <point x="58" y="355"/>
      <point x="58" y="444" type="curve" smooth="yes"/>
      <point x="58" y="551"/>
      <point x="152" y="610"/>
      <point x="254" y="611" type="curve" smooth="yes"/>
      <point x="314" y="611"/>
      <point x="409" y="589"/>
      <point x="409" y="510" type="curve" smooth="yes"/>
      <point x="409" y="469"/>
      <point x="379" y="449"/>
      <point x="346" y="452" type="curve"/>
      <point x="346" y="516"/>
      <point x="316" y="554"/>
      <point x="239" y="554" type="curve" smooth="yes"/>
      <point x="177" y="554"/>
      <point x="132" y="523"/>
      <point x="132" y="471" type="curve" smooth="yes"/>
      <point x="132" y="404"/>
      <point x="200" y="376"/>
      <point x="275" y="346" type="curve" smooth="yes"/>
      <point x="373" y="305"/>
      <point x="435" y="270"/>
      <point x="435" y="179" type="curve" smooth="yes"/>
      <point x="435" y="72"/>
      <point x="352" y="-16"/>
    </contour>
    <contour>
      <point x="258" y="8" type="line"/>
      <point x="267" y="-106" type="line"/>
      <point x="249" y="-114"/>
      <point x="211" y="-114"/>
      <point x="195" y="-106" type="curve"/>
      <point x="204" y="7" type="line"/>
    </contour>
    <contour>
      <point x="205" y="579" type="line"/>
      <point x="195" y="699" type="line"/>
      <point x="211" y="707"/>
      <point x="249" y="707"/>
      <point x="267" y="699" type="curve"/>
      <point x="258" y="580" type="line"/>
    </contour>
  </outline>
</glyph>
<glyph name="percent" format="1">
  <advance width="769"/>
  <unicode hex="0025"/>
  <outline>
    <contour>
      <point x="600" y="624" type="line"/>
      <point x="525" y="624" type="line"/>
      <point x="170" y="0" type="line"/>
      <point x="246" y="0" type="line"/>
    </contour>
    <contour>
      <point x="180" y="578" type="curve" smooth="yes"/>
      <point x="227" y="578"/>
      <point x="252" y="533"/>
      <point x="252" y="453" type="curve" smooth="yes"/>
      <point x="252" y="366"/>
      <point x="225" y="325"/>
      <point x="179" y="325" type="curve" smooth="yes"/>
      <point x="135" y="325"/>
      <point x="107" y="365"/>
      <point x="107" y="450" type="curve" smooth="yes"/>
      <point x="107" y="532"/>
      <point x="131" y="578"/>
    </contour>
    <contour>
      <point x="182" y="625" type="curve" smooth="yes"/>
      <point x="93" y="625"/>
      <point x="45" y="565"/>
      <point x="45" y="450" type="curve" smooth="yes"/>
      <point x="45" y="333"/>
      <point x="96" y="278"/>
      <point x="180" y="278" type="curve" smooth="yes"/>
      <point x="265" y="278"/>
      <point x="315" y="337"/>
      <point x="315" y="454" type="curve" smooth="yes"/>
      <point x="315" y="567"/>
      <point x="269" y="625"/>
    </contour>
    <contour>
      <point x="588" y="285" type="curve" smooth="yes"/>
      <point x="636" y="285"/>
      <point x="660" y="240"/>
      <point x="660" y="160" type="curve" smooth="yes"/>
      <point x="660" y="73"/>
      <point x="634" y="32"/>
      <point x="587" y="32" type="curve" smooth="yes"/>
      <point x="543" y="32"/>
      <point x="516" y="72"/>
      <point x="516" y="157" type="curve" smooth="yes"/>
      <point x="516" y="239"/>
      <point x="539" y="285"/>
    </contour>
    <contour>
      <point x="590" y="332" type="curve" smooth="yes"/>
      <point x="501" y="332"/>
      <point x="453" y="272"/>
      <point x="453" y="157" type="curve" smooth="yes"/>
      <point x="453" y="40"/>
      <point x="504" y="-15"/>
      <point x="588" y="-15" type="curve" smooth="yes"/>
      <point x="673" y="-15"/>
      <point x="724" y="44"/>
      <point x="724" y="161" type="curve" smooth="yes"/>
      <point x="724" y="274"/>
      <point x="677" y="332"/>
    </contour>
  </outline>
</glyph>
<glyph name="ampersand" format="1">
  <advance width="731"/>
  <unicode hex="0026"/>
  <outline>
    <contour>
      <point x="266" y="675" type="curve" smooth="yes"/>
      <point x="159" y="675"/>
      <point x="96" y="609"/>
      <point x="96" y="519" type="curve" smooth="yes"/>
      <point x="96" y="454"/>
      <point x="134" y="380"/>
      <point x="241" y="263" type="curve" smooth="yes"/>
      <point x="372" y="120"/>
      <point x="527" y="-17"/>
      <point x="637" y="-17" type="curve" smooth="yes"/>
      <point x="693" y="-17"/>
      <point x="717" y="19"/>
      <point x="717" y="49" type="curve" smooth="yes"/>
      <point x="717" y="62"/>
      <point x="712" y="75"/>
      <point x="703" y="83" type="curve"/>
      <point x="691" y="65"/>
      <point x="663" y="55"/>
      <point x="641" y="55" type="curve" smooth="yes"/>
      <point x="565" y="55"/>
      <point x="416" y="181"/>
      <point x="294" y="320" type="curve" smooth="yes"/>
      <point x="212" y="413"/>
      <point x="173" y="482"/>
      <point x="173" y="531" type="curve" smooth="yes"/>
      <point x="173" y="583"/>
      <point x="205" y="623"/>
      <point x="264" y="623" type="curve" smooth="yes"/>
      <point x="294" y="623"/>
      <point x="341" y="601"/>
      <point x="341" y="537" type="curve" smooth="yes"/>
      <point x="341" y="475"/>
      <point x="310" y="405"/>
      <point x="231" y="376" type="curve"/>
      <point x="254" y="339" type="line"/>
      <point x="331" y="361"/>
      <point x="417" y="432"/>
      <point x="417" y="536" type="curve" smooth="yes"/>
      <point x="417" y="627"/>
      <point x="342" y="675"/>
    </contour>
    <contour>
      <point x="230" y="375" type="line"/>
      <point x="84" y="324"/>
      <point x="38" y="231"/>
      <point x="38" y="155" type="curve" smooth="yes"/>
      <point x="38" y="58"/>
      <point x="107" y="-18"/>
      <point x="250" y="-18" type="curve" smooth="yes"/>
      <point x="407" y="-18"/>
      <point x="546" y="82"/>
      <point x="590" y="308" type="curve"/>
      <point x="529" y="302" type="line"/>
      <point x="493" y="120"/>
      <point x="377" y="44"/>
      <point x="268" y="44" type="curve" smooth="yes"/>
      <point x="167" y="44"/>
      <point x="122" y="103"/>
      <point x="122" y="171" type="curve" smooth="yes"/>
      <point x="122" y="238"/>
      <point x="170" y="307"/>
      <point x="258" y="337" type="curve"/>
    </contour>
    <contour>
      <point x="494" y="333" type="line"/>
      <point x="458" y="333"/>
      <point x="462" y="296"/>
      <point x="463" y="286" type="curve"/>
      <point x="528" y="280" type="line"/>
      <point x="571" y="282" type="line"/>
      <point x="617" y="285" type="line" smooth="yes"/>
      <point x="655" y="287"/>
      <point x="648" y="323"/>
      <point x="649" y="333" type="curve"/>
    </contour>
  </outline>
</glyph>
<glyph name="quotesingle" format="1">
  <advance width="193"/>
  <unicode hex="0027"/>
  <outline>
    <contour>
      <point x="67" y="492" type="line"/>
      <point x="88" y="488"/>
      <point x="101" y="488"/>
      <point x="120" y="492" type="curve"/>
      <point x="143" y="688" type="line"/>
      <point x="108" y="694"/>
      <point x="77" y="692"/>
      <point x="50" y="683" type="curve"/>
    </contour>
  </outline>
</glyph>
<glyph name="parenleft" format="1">
  <advance width="287"/>
  <unicode hex="0028"/>
  <outline>
    <contour>
      <point x="232" y="719" type="line"/>
      <point x="148" y="634"/>
      <point x="56" y="472"/>
      <point x="56" y="260" type="curve" smooth="yes"/>
      <point x="56" y="48"/>
      <point x="142" y="-101"/>
      <point x="228" y="-189" type="curve"/>
      <point x="265" y="-154" type="line"/>
      <point x="214" y="-85"/>
      <point x="141" y="59"/>
      <point x="141" y="262" type="curve" smooth="yes"/>
      <point x="141" y="460"/>
      <point x="214" y="606"/>
      <point x="268" y="688" type="curve"/>
    </contour>
  </outline>
</glyph>
<glyph name="asterisk" format="1">
  <advance width="544"/>
  <unicode hex="002A"/>
  <outline>
    <contour>
      <point x="266" y="558" type="line"/>
      <point x="293" y="711" type="line"/>
      <point x="268" y="719"/>
      <point x="223" y="720"/>
      <point x="197" y="711" type="curve"/>
      <point x="226" y="557" type="line"/>
      <point x="88" y="631" type="line"/>
      <point x="72" y="611"/>
      <point x="61" y="568"/>
      <point x="60" y="538" type="curve"/>
      <point x="215" y="519" type="line"/>
      <point x="103" y="412" type="line"/>
      <point x="118" y="389"/>
      <point x="154" y="363"/>
      <point x="181" y="356" type="curve"/>
      <point x="246" y="494" type="line"/>
      <point x="311" y="355" type="line"/>
      <point x="339" y="363"/>
      <point x="374" y="389"/>
      <point x="390" y="411" type="curve"/>
      <point x="276" y="520" type="line"/>
      <point x="432" y="539" type="line"/>
      <point x="432" y="566"/>
      <point x="420" y="608"/>
      <point x="404" y="631" type="curve"/>
    </contour>
  </outline>
</glyph>
<glyph name="plus" format="1">
  <advance width="487"/>
  <unicode hex="002B"/>
  <outline>
    <contour>
      <point x="50" y="312" type="line"/>
      <point x="50" y="249" type="line"/>
      <point x="437" y="249" type="line"/>
      <point x="437" y="312" type="line"/>
    </contour>
    <contour>
      <point x="277" y="474" type="line"/>
      <point x="211" y="474" type="line"/>
      <point x="211" y="87" type="line"/>
      <point x="277" y="87" type="line"/>
    </contour>
  </outline>
</glyph>
<glyph name="comma" format="1">
  <advance width="209"/>
  <unicode hex="002C"/>
  <outline>
    <contour>
      <point x="99" y="7" type="line"/>
      <point x="99" y="-15"/>
      <point x="83" y="-68"/>
      <point x="47" y="-93" type="curve"/>
      <point x="47" y="-99"/>
      <point x="63" y="-116"/>
      <point x="71" y="-112" type="curve"/>
      <point x="113" y="-94"/>
      <point x="165" y="-23"/>
      <point x="165" y="43" type="curve" smooth="yes"/>
      <point x="165" y="80"/>
      <point x="140" y="105"/>
      <point x="104" y="105" type="curve" smooth="yes"/>
      <point x="68" y="105"/>
      <point x="44" y="81"/>
      <point x="44" y="44" type="curve" smooth="yes"/>
      <point x="44" y="14"/>
      <point x="66" y="-16"/>
      <point x="102" y="-16" type="curve" smooth="yes"/>
      <point x="112" y="-16"/>
      <point x="119" y="-13"/>
      <point x="130" y="-7" type="curve"/>
    </contour>
  </outline>
</glyph>
<glyph name="period" format="1">
  <advance width="210"/>
  <unicode hex="002E"/>
  <outline>
    <contour>
      <point x="105" y="-15" type="curve" smooth="yes"/>
      <point x="139" y="-15"/>
      <point x="165" y="12"/>
      <point x="165" y="46" type="curve" smooth="yes"/>
      <point x="165" y="81"/>
      <point x="139" y="107"/>
      <point x="105" y="107" type="curve" smooth="yes"/>
      <point x="70" y="107"/>
      <point x="44" y="81"/>
      <point x="44" y="46" type="curve" smooth="yes"/>
      <point x="44" y="12"/>
      <point x="70" y="-15"/>
    </contour>
  </outline>
</glyph>
<glyph name="slash" format="1">
  <advance width="394"/>
  <unicode hex="002F"/>
  <outline>
    <contour>
      <point x="97" y="-119" type="line"/>
      <point x="374" y="696" type="line"/>
      <point x="297" y="696" type="line"/>
      <point x="20" y="-119" type="line"/>
    </contour>
  </outline>
</glyph>
<glyph name="zero" format="1">
  <advance width="514"/>
  <unicode hex="0030"/>
  <outline>
    <contour>
      <point x="259" y="624" type="curve" smooth="yes"/>
      <point x="109" y="622"/>
      <point x="35" y="512"/>
      <point x="35" y="299" type="curve" smooth="yes"/>
      <point x="35" y="92"/>
      <point x="109" y="-15"/>
      <point x="258" y="-15" type="curve" smooth="yes"/>
      <point x="406" y="-15"/>
      <point x="479" y="88"/>
      <point x="479" y="303" type="curve" smooth="yes"/>
      <point x="479" y="514"/>
      <point x="413" y="627"/>
    </contour>
    <contour>
      <point x="260" y="564" type="curve" smooth="yes"/>
      <point x="352" y="564"/>
      <point x="395" y="482"/>
      <point x="395" y="296" type="curve" smooth="yes"/>
      <point x="395" y="127"/>
      <point x="356" y="45"/>
      <point x="258" y="45" type="curve" smooth="yes"/>
      <point x="167" y="45"/>
      <point x="120" y="117"/>
      <point x="120" y="296" type="curve" smooth="yes"/>
      <point x="120" y="464"/>
      <point x="159" y="564"/>
    </contour>
  </outline>
</glyph>
<glyph name="one" format="1">
  <advance width="371"/>
  <unicode hex="0031"/>
  <outline>
    <contour>
      <point x="238" y="585" type="line"/>
      <point x="238" y="613"/>
      <point x="226" y="624"/>
      <point x="206" y="624" type="curve" smooth="yes"/>
      <point x="194" y="624"/>
      <point x="179" y="622"/>
      <point x="165" y="614" type="curve" smooth="yes"/>
      <point x="38" y="543" type="line"/>
      <point x="38" y="530"/>
      <point x="56" y="494"/>
      <point x="85" y="503" type="curve" smooth="yes"/>
      <point x="153" y="527" type="line"/>
      <point x="153" y="0" type="line"/>
      <point x="238" y="0" type="line"/>
    </contour>
    <contour>
      <point x="238" y="55" type="line"/>
      <point x="153" y="53" type="line"/>
      <point x="90" y="51" type="line" smooth="yes"/>
      <point x="50" y="49"/>
      <point x="56" y="10"/>
      <point x="55" y="0" type="curve"/>
      <point x="299" y="0" type="line" smooth="yes"/>
      <point x="337" y="0"/>
      <point x="333" y="39"/>
      <point x="332" y="49" type="curve"/>
    </contour>
  </outline>
</glyph>
<glyph name="two" format="1">
  <advance width="475"/>
  <unicode hex="0032"/>
  <outline>
    <contour>
      <point x="237" y="624" type="curve" smooth="yes"/>
      <point x="129" y="624"/>
      <point x="51" y="564"/>
      <point x="51" y="490" type="curve" smooth="yes"/>
      <point x="51" y="439"/>
      <point x="89" y="426"/>
      <point x="120" y="427" type="curve"/>
      <point x="120" y="508"/>
      <point x="151" y="565"/>
      <point x="229" y="565" type="curve" smooth="yes"/>
      <point x="296" y="565"/>
      <point x="331" y="520"/>
      <point x="331" y="456" type="curve" smooth="yes"/>
      <point x="331" y="308"/>
      <point x="146" y="148"/>
      <point x="37" y="44" type="curve"/>
      <point x="35" y="31"/>
      <point x="42" y="9"/>
      <point x="45" y="0" type="curve"/>
      <point x="441" y="0" type="line"/>
      <point x="441" y="155" type="line"/>
      <point x="425" y="162"/>
      <point x="392" y="155"/>
      <point x="388" y="122" type="curve" smooth="yes"/>
      <point x="380" y="62" type="line"/>
      <point x="143" y="61" type="line"/>
      <point x="222" y="132"/>
      <point x="421" y="294"/>
      <point x="421" y="460" type="curve" smooth="yes"/>
      <point x="421" y="558"/>
      <point x="350" y="624"/>
    </contour>
  </outline>
</glyph>
<glyph name="three" format="1">
  <advance width="446"/>
  <unicode hex="0033"/>
  <outline>
    <contour>
      <point x="219" y="624" type="curve" smooth="yes"/>
      <point x="127" y="624"/>
      <point x="64" y="580"/>
      <point x="60" y="527" type="curve" smooth="yes"/>
      <point x="58" y="494"/>
      <point x="80" y="472"/>
      <point x="124" y="470" type="curve"/>
      <point x="125" y="523"/>
      <point x="153" y="568"/>
      <point x="215" y="568" type="curve" smooth="yes"/>
      <point x="269" y="568"/>
      <point x="302" y="535"/>
      <point x="302" y="481" type="curve" smooth="yes"/>
      <point x="302" y="375"/>
      <point x="184" y="348"/>
      <point x="132" y="348" type="curve"/>
      <point x="133" y="284" type="line"/>
      <point x="222" y="291"/>
      <point x="327" y="272"/>
      <point x="330" y="168" type="curve" smooth="yes"/>
      <point x="332" y="92"/>
      <point x="277" y="43"/>
      <point x="201" y="43" type="curve" smooth="yes"/>
      <point x="132" y="43"/>
      <point x="94" y="83"/>
      <point x="88" y="137" type="curve"/>
      <point x="47" y="132"/>
      <point x="34" y="105"/>
      <point x="34" y="82" type="curve" smooth="yes"/>
      <point x="34" y="24"/>
      <point x="99" y="-15"/>
      <point x="193" y="-15" type="curve" smooth="yes"/>
      <point x="330" y="-15"/>
      <point x="420" y="68"/>
      <point x="420" y="173" type="curve" smooth="yes"/>
      <point x="420" y="284"/>
      <point x="320" y="352"/>
      <point x="177" y="331" type="curve"/>
      <point x="182" y="313" type="line"/>
      <point x="339" y="334"/>
      <point x="390" y="413"/>
      <point x="390" y="485" type="curve" smooth="yes"/>
      <point x="390" y="571"/>
      <point x="319" y="624"/>
    </contour>
  </outline>
</glyph>
<glyph name="four" format="1">
  <advance width="474"/>
  <unicode hex="0034"/>
  <outline>
    <contour>
      <point x="369" y="618" type="line"/>
      <point x="346" y="622"/>
      <point x="323" y="621"/>
      <point x="298" y="615" type="curve"/>
      <point x="18" y="191" type="line"/>
      <point x="20" y="169"/>
      <point x="31" y="152"/>
      <point x="41" y="137" type="curve"/>
      <point x="459" y="137" type="line"/>
      <point x="459" y="197" type="line"/>
      <point x="48" y="197" type="line"/>
      <point x="75" y="175" type="line"/>
      <point x="347" y="594" type="line"/>
      <point x="287" y="565" type="line"/>
      <point x="287" y="-10" type="line"/>
      <point x="370" y="0" type="line"/>
    </contour>
  </outline>
</glyph>
<glyph name="five" format="1">
  <advance width="439"/>
  <unicode hex="0035"/>
  <outline>
    <contour>
      <point x="96" y="615" type="line"/>
      <point x="82" y="294" type="line"/>
      <point x="95" y="287" type="line"/>
      <point x="125" y="300"/>
      <point x="154" y="310"/>
      <point x="197" y="310" type="curve" smooth="yes"/>
      <point x="262" y="310"/>
      <point x="328" y="283"/>
      <point x="328" y="189" type="curve" smooth="yes"/>
      <point x="328" y="101"/>
      <point x="274" y="42"/>
      <point x="195" y="42" type="curve" smooth="yes"/>
      <point x="119" y="42"/>
      <point x="93" y="82"/>
      <point x="87" y="125" type="curve"/>
      <point x="65" y="125"/>
      <point x="36" y="112"/>
      <point x="36" y="76" type="curve" smooth="yes"/>
      <point x="36" y="21"/>
      <point x="96" y="-15"/>
      <point x="192" y="-15" type="curve" smooth="yes"/>
      <point x="321" y="-15"/>
      <point x="415" y="70"/>
      <point x="415" y="203" type="curve" smooth="yes"/>
      <point x="415" y="327"/>
      <point x="328" y="380"/>
      <point x="224" y="380" type="curve" smooth="yes"/>
      <point x="176" y="380"/>
      <point x="133" y="369"/>
      <point x="94" y="354" type="curve"/>
      <point x="143" y="356" type="line"/>
      <point x="153" y="593" type="line"/>
      <point x="116" y="545" type="line"/>
      <point x="366" y="545" type="line"/>
      <point x="372" y="614" type="line"/>
    </contour>
  </outline>
</glyph>
<glyph name="six" format="1">
  <advance width="477"/>
  <unicode hex="0036"/>
  <outline>
    <contour>
      <point x="248" y="-15" type="curve" smooth="yes"/>
      <point x="373" y="-15"/>
      <point x="446" y="75"/>
      <point x="446" y="187" type="curve" smooth="yes"/>
      <point x="446" y="297"/>
      <point x="380" y="358"/>
      <point x="279" y="358" type="curve" smooth="yes"/>
      <point x="212" y="358"/>
      <point x="150" y="333"/>
      <point x="99" y="289" type="curve"/>
      <point x="104" y="231" type="line"/>
      <point x="141" y="275"/>
      <point x="192" y="298"/>
      <point x="249" y="298" type="curve" smooth="yes"/>
      <point x="316" y="298"/>
      <point x="359" y="261"/>
      <point x="359" y="173" type="curve" smooth="yes"/>
      <point x="359" y="90"/>
      <point x="321" y="42"/>
      <point x="253" y="42" type="curve" smooth="yes"/>
      <point x="178" y="42"/>
      <point x="135" y="102"/>
      <point x="135" y="255" type="curve" smooth="yes"/>
      <point x="135" y="464"/>
      <point x="196" y="569"/>
      <point x="291" y="569" type="curve" smooth="yes"/>
      <point x="343" y="569"/>
      <point x="364" y="538"/>
      <point x="364" y="503" type="curve"/>
      <point x="408" y="504"/>
      <point x="419" y="534"/>
      <point x="419" y="556" type="curve" smooth="yes"/>
      <point x="419" y="594"/>
      <point x="380" y="624"/>
      <point x="301" y="624" type="curve" smooth="yes"/>
      <point x="143" y="624"/>
      <point x="46" y="496"/>
      <point x="46" y="254" type="curve" smooth="yes"/>
      <point x="46" y="81"/>
      <point x="110" y="-15"/>
    </contour>
  </outline>
</glyph>
<glyph name="seven" format="1">
  <advance width="397"/>
  <unicode hex="0037"/>
  <outline>
    <contour>
      <point x="22" y="615" type="line"/>
      <point x="22" y="463" type="line"/>
      <point x="29" y="456"/>
      <point x="70" y="462"/>
      <point x="74" y="488" type="curve" smooth="yes"/>
      <point x="82" y="545" type="line"/>
      <point x="308" y="547" type="line"/>
      <point x="55" y="19" type="line"/>
      <point x="140" y="-10" type="line"/>
      <point x="388" y="574" type="line"/>
      <point x="388" y="589"/>
      <point x="384" y="604"/>
      <point x="378" y="615" type="curve"/>
    </contour>
  </outline>
</glyph>
<glyph name="eight" format="1">
  <advance width="461"/>
  <unicode hex="0038"/>
  <outline>
    <contour>
      <point x="328" y="480" type="curve" smooth="yes"/>
      <point x="328" y="394"/>
      <point x="254" y="346"/>
      <point x="219" y="328" type="curve"/>
      <point x="249" y="304" type="line"/>
      <point x="305" y="327"/>
      <point x="404" y="385"/>
      <point x="404" y="488" type="curve" smooth="yes"/>
      <point x="404" y="575"/>
      <point x="335" y="624"/>
      <point x="246" y="624" type="curve" smooth="yes"/>
      <point x="139" y="624"/>
      <point x="75" y="553"/>
      <point x="75" y="466" type="curve" smooth="yes"/>
      <point x="75" y="359"/>
      <point x="172" y="313"/>
      <point x="243" y="274" type="curve" smooth="yes"/>
      <point x="308" y="238"/>
      <point x="354" y="200"/>
      <point x="354" y="143" type="curve" smooth="yes"/>
      <point x="354" y="87"/>
      <point x="311" y="40"/>
      <point x="235" y="40" type="curve" smooth="yes"/>
      <point x="157" y="40"/>
      <point x="122" y="89"/>
      <point x="122" y="147" type="curve" smooth="yes"/>
      <point x="122" y="215"/>
      <point x="171" y="278"/>
      <point x="238" y="310" type="curve"/>
      <point x="222" y="346" type="line"/>
      <point x="135" y="315"/>
      <point x="37" y="241"/>
      <point x="39" y="137" type="curve" smooth="yes"/>
      <point x="41" y="53"/>
      <point x="108" y="-15"/>
      <point x="222" y="-15" type="curve" smooth="yes"/>
      <point x="359" y="-15"/>
      <point x="431" y="82"/>
      <point x="431" y="172" type="curve" smooth="yes"/>
      <point x="431" y="272"/>
      <point x="342" y="316"/>
      <point x="270" y="357" type="curve" smooth="yes"/>
      <point x="194" y="401"/>
      <point x="152" y="433"/>
      <point x="152" y="485" type="curve" smooth="yes"/>
      <point x="152" y="539"/>
      <point x="193" y="571"/>
      <point x="244" y="571" type="curve" smooth="yes"/>
      <point x="294" y="571"/>
      <point x="328" y="539"/>
    </contour>
  </outline>
</glyph>
<glyph name="nine" format="1">
  <advance width="451"/>
  <unicode hex="0039"/>
  <outline>
    <contour>
      <point x="216" y="624" type="curve" smooth="yes"/>
      <point x="91" y="624"/>
      <point x="18" y="534"/>
      <point x="18" y="422" type="curve" smooth="yes"/>
      <point x="18" y="313"/>
      <point x="84" y="251"/>
      <point x="185" y="251" type="curve" smooth="yes"/>
      <point x="252" y="251"/>
      <point x="314" y="277"/>
      <point x="365" y="321" type="curve"/>
      <point x="360" y="379" type="line"/>
      <point x="323" y="334"/>
      <point x="273" y="311"/>
      <point x="214" y="311" type="curve" smooth="yes"/>
      <point x="148" y="311"/>
      <point x="105" y="349"/>
      <point x="105" y="437" type="curve" smooth="yes"/>
      <point x="105" y="519"/>
      <point x="143" y="568"/>
      <point x="212" y="568" type="curve" smooth="yes"/>
      <point x="286" y="568"/>
      <point x="329" y="508"/>
      <point x="329" y="354" type="curve" smooth="yes"/>
      <point x="329" y="145"/>
      <point x="268" y="40"/>
      <point x="172" y="40" type="curve" smooth="yes"/>
      <point x="122" y="40"/>
      <point x="100" y="71"/>
      <point x="100" y="106" type="curve"/>
      <point x="56" y="106"/>
      <point x="45" y="75"/>
      <point x="45" y="55" type="curve" smooth="yes"/>
      <point x="45" y="15"/>
      <point x="86" y="-15"/>
      <point x="162" y="-15" type="curve" smooth="yes"/>
      <point x="321" y="-15"/>
      <point x="418" y="113"/>
      <point x="418" y="353" type="curve" smooth="yes"/>
      <point x="418" y="528"/>
      <point x="356" y="624"/>
    </contour>
  </outline>
</glyph>
<glyph name="colon" format="1">
  <advance width="213"/>
  <unicode hex="003A"/>
  <outline>
    <contour>
      <point x="107" y="-15" type="curve" smooth="yes"/>
      <point x="142" y="-15"/>
      <point x="169" y="12"/>
      <point x="169" y="47" type="curve" smooth="yes"/>
      <point x="169" y="83"/>
      <point x="142" y="110"/>
      <point x="107" y="110" type="curve" smooth="yes"/>
      <point x="71" y="110"/>
      <point x="44" y="83"/>
      <point x="44" y="47" type="curve" smooth="yes"/>
      <point x="44" y="12"/>
      <point x="71" y="-15"/>
    </contour>
    <contour>
      <point x="107" y="302" type="curve" smooth="yes"/>
      <point x="142" y="302"/>
      <point x="169" y="329"/>
      <point x="169" y="365" type="curve" smooth="yes"/>
      <point x="169" y="401"/>
      <point x="142" y="428"/>
      <point x="107" y="428" type="curve" smooth="yes"/>
      <point x="71" y="428"/>
      <point x="44" y="401"/>
      <point x="44" y="365" type="curve" smooth="yes"/>
      <point x="44" y="329"/>
      <point x="71" y="302"/>
    </contour>
  </outline>
</glyph>
<glyph name="semicolon" format="1">
  <advance width="220"/>
  <unicode hex="003B"/>
  <outline>
    <contour>
      <point x="105" y="316" type="curve" smooth="yes"/>
      <point x="139" y="316"/>
      <point x="165" y="342"/>
      <point x="165" y="377" type="curve" smooth="yes"/>
      <point x="165" y="411"/>
      <point x="139" y="438"/>
      <point x="105" y="438" type="curve" smooth="yes"/>
      <point x="70" y="438"/>
      <point x="44" y="411"/>
      <point x="44" y="377" type="curve" smooth="yes"/>
      <point x="44" y="342"/>
      <point x="70" y="316"/>
    </contour>
    <component base="comma" xOffset="11" yOffset="-8"/>
  </outline>
</glyph>
<glyph name="less" format="1">
  <advance width="470"/>
  <unicode hex="003C"/>
  <outline>
    <contour>
      <point x="36" y="307" type="line"/>
      <point x="36" y="262" type="line"/>
      <point x="384" y="81" type="line"/>
      <point x="416" y="141" type="line"/>
      <point x="89" y="309" type="line"/>
      <point x="89" y="259" type="line"/>
      <point x="418" y="429" type="line"/>
      <point x="386" y="489" type="line"/>
    </contour>
  </outline>
</glyph>
<glyph name="equal" format="1">
  <advance width="487"/>
  <unicode hex="003D"/>
  <outline>
    <contour>
      <point x="50" y="385" type="line"/>
      <point x="50" y="322" type="line"/>
      <point x="437" y="322" type="line"/>
      <point x="437" y="385" type="line"/>
    </contour>
    <contour>
      <point x="50" y="243" type="line"/>
      <point x="50" y="180" type="line"/>
      <point x="437" y="180" type="line"/>
      <point x="437" y="243" type="line"/>
    </contour>
  </outline>
</glyph>
<glyph name="greater" format="1">
  <advance width="458"/>
  <unicode hex="003E"/>
  <outline>
    <contour>
      <point x="423" y="307" type="line"/>
      <point x="423" y="262" type="line"/>
      <point x="74" y="81" type="line"/>
      <point x="43" y="141" type="line"/>
      <point x="370" y="309" type="line"/>
      <point x="370" y="259" type="line"/>
      <point x="41" y="429" type="line"/>
      <point x="72" y="489" type="line"/>
    </contour>
  </outline>
</glyph>
<glyph name="question" format="1">
  <advance width="491"/>
  <unicode hex="003F"/>
  <outline>
    <contour>
      <point x="248" y="712" type="curve" smooth="yes"/>
      <point x="111" y="712"/>
      <point x="46" y="634"/>
      <point x="46" y="574" type="curve" smooth="yes"/>
      <point x="46" y="534"/>
      <point x="76" y="520"/>
      <point x="114" y="520" type="curve"/>
      <point x="114" y="574"/>
      <point x="149" y="655"/>
      <point x="243" y="655" type="curve" smooth="yes"/>
      <point x="316" y="655"/>
      <point x="356" y="601"/>
      <point x="356" y="540" type="curve" smooth="yes"/>
      <point x="356" y="449"/>
      <point x="271" y="393"/>
      <point x="174" y="368" type="curve"/>
      <point x="179" y="196" type="line"/>
      <point x="202" y="193"/>
      <point x="222" y="193"/>
      <point x="237" y="196" type="curve"/>
      <point x="243" y="326" type="line"/>
      <point x="345" y="347"/>
      <point x="446" y="426"/>
      <point x="446" y="544" type="curve" smooth="yes"/>
      <point x="446" y="645"/>
      <point x="369" y="712"/>
    </contour>
    <contour>
      <point x="208" y="107" type="curve" smooth="yes"/>
      <point x="174" y="107"/>
      <point x="148" y="81"/>
      <point x="148" y="46" type="curve" smooth="yes"/>
      <point x="148" y="12"/>
      <point x="174" y="-15"/>
      <point x="208" y="-15" type="curve" smooth="yes"/>
      <point x="243" y="-15"/>
      <point x="269" y="12"/>
      <point x="269" y="46" type="curve" smooth="yes"/>
      <point x="269" y="81"/>
      <point x="243" y="107"/>
    </contour>
  </outline>
</glyph>
<glyph name="at" format="1">
  <advance width="990"/>
  <unicode hex="0040"/>
  <outline>
    <contour>
      <point x="521" y="684" type="curve" smooth="yes"/>
      <point x="248" y="684"/>
      <point x="65" y="510"/>
      <point x="65" y="248" type="curve" smooth="yes"/>
      <point x="65" y="1"/>
      <point x="245" y="-164"/>
      <point x="514" y="-164" type="curve" smooth="yes"/>
      <point x="614" y="-164"/>
      <point x="694" y="-140"/>
      <point x="761" y="-104" type="curve"/>
      <point x="749" y="-54" type="line"/>
      <point x="688" y="-94"/>
      <point x="604" y="-111"/>
      <point x="524" y="-111" type="curve" smooth="yes"/>
      <point x="286" y="-111"/>
      <point x="128" y="35"/>
      <point x="128" y="252" type="curve" smooth="yes"/>
      <point x="128" y="480"/>
      <point x="285" y="631"/>
      <point x="520" y="631" type="curve" smooth="yes"/>
      <point x="727" y="631"/>
      <point x="865" y="520"/>
      <point x="865" y="353" type="curve" smooth="yes"/>
      <point x="865" y="202"/>
      <point x="775" y="104"/>
      <point x="641" y="107" type="curve"/>
      <point x="692" y="480" type="line"/>
      <point x="612" y="473" type="line"/>
      <point x="561" y="108" type="line"/>
      <point x="557" y="61"/>
      <point x="582" y="53"/>
      <point x="624" y="53" type="curve" smooth="yes"/>
      <point x="804" y="53"/>
      <point x="924" y="177"/>
      <point x="924" y="363" type="curve" smooth="yes"/>
      <point x="924" y="556"/>
      <point x="763" y="684"/>
    </contour>
    <contour>
      <point x="513" y="486" type="curve" smooth="yes"/>
      <point x="378" y="486"/>
      <point x="296" y="389"/>
      <point x="280" y="250" type="curve" smooth="yes"/>
      <point x="263" y="105"/>
      <point x="334" y="46"/>
      <point x="422" y="46" type="curve" smooth="yes"/>
      <point x="502" y="46"/>
      <point x="557" y="95"/>
      <point x="597" y="136" type="curve"/>
      <point x="596" y="181" type="line"/>
      <point x="542" y="138"/>
      <point x="507" y="110"/>
      <point x="456" y="110" type="curve" smooth="yes"/>
      <point x="373" y="110"/>
      <point x="351" y="181"/>
      <point x="364" y="266" type="curve" smooth="yes"/>
      <point x="374" y="339"/>
      <point x="414" y="429"/>
      <point x="505" y="429" type="curve" smooth="yes"/>
      <point x="562" y="429"/>
      <point x="602" y="394"/>
      <point x="610" y="378" type="curve"/>
      <point x="650" y="440" type="line"/>
      <point x="606" y="469"/>
      <point x="570" y="486"/>
    </contour>
  </outline>
</glyph>
<glyph name="B" format="1">
  <advance width="558"/>
  <unicode hex="0042"/>
  <outline>
    <contour>
      <point x="205" y="647" type="line"/>
      <point x="117" y="647" type="line"/>
      <point x="117" y="0" type="line"/>
      <point x="205" y="0" type="line"/>
    </contour>
    <contour>
      <point x="294" y="0" type="line"/>
      <point x="442" y="0"/>
      <point x="532" y="75"/>
      <point x="531" y="202" type="curve" smooth="yes"/>
      <point x="531" y="310"/>
      <point x="437" y="363"/>
      <point x="346" y="363" type="curve"/>
      <point x="346" y="348" type="line"/>
      <point x="438" y="370"/>
      <point x="499" y="426"/>
      <point x="499" y="517" type="curve" smooth="yes"/>
      <point x="499" y="601"/>
      <point x="440" y="681"/>
      <point x="289" y="681" type="curve" smooth="yes"/>
      <point x="74" y="681" type="line" smooth="yes"/>
      <point x="42" y="681"/>
      <point x="43" y="641"/>
      <point x="44" y="631" type="curve"/>
      <point x="118" y="625" type="line"/>
      <point x="207" y="628" type="line"/>
      <point x="251" y="631" type="line" smooth="yes"/>
      <point x="345" y="637"/>
      <point x="407" y="601"/>
      <point x="407" y="509" type="curve" smooth="yes"/>
      <point x="407" y="426"/>
      <point x="363" y="376"/>
      <point x="242" y="376" type="curve" smooth="yes"/>
      <point x="176" y="376" type="line"/>
      <point x="174" y="327" type="line"/>
      <point x="254" y="328" type="line" smooth="yes"/>
      <point x="379" y="329"/>
      <point x="440" y="293"/>
      <point x="440" y="191" type="curve" smooth="yes"/>
      <point x="440" y="108"/>
      <point x="397" y="53"/>
      <point x="269" y="55" type="curve" smooth="yes"/>
      <point x="193" y="56" type="line"/>
      <point x="118" y="55" type="line"/>
      <point x="75" y="51" type="line" smooth="yes"/>
      <point x="45" y="49"/>
      <point x="43" y="26"/>
      <point x="42" y="0" type="curve"/>
    </contour>
  </outline>
</glyph>
<glyph name="D" format="1">
  <advance width="678"/>
  <unicode hex="0044"/>
  <outline>
    <contour>
      <point x="295" y="681" type="move" name="top"/>
    </contour>
    <contour>
      <point x="204" y="651" type="line"/>
      <point x="116" y="652" type="line"/>
      <point x="116" y="0" type="line"/>
      <point x="204" y="0" type="line"/>
    </contour>
    <contour>
      <point x="204" y="56" type="line"/>
      <point x="116" y="55" type="line"/>
      <point x="73" y="51" type="line" smooth="yes"/>
      <point x="41" y="49"/>
      <point x="41" y="18"/>
      <point x="42" y="0" type="curve"/>
      <point x="299" y="0" type="line" smooth="yes"/>
      <point x="519" y="0"/>
      <point x="641" y="119"/>
      <point x="641" y="346" type="curve" smooth="yes"/>
      <point x="641" y="570"/>
      <point x="535" y="681"/>
      <point x="297" y="681" type="curve" smooth="yes"/>
      <point x="80" y="681" type="line" smooth="yes"/>
      <point x="46" y="681"/>
      <point x="43" y="655"/>
      <point x="44" y="630" type="curve"/>
      <point x="117" y="624" type="line"/>
      <point x="205" y="625" type="line"/>
      <point x="257" y="627" type="line" smooth="yes"/>
      <point x="453" y="634"/>
      <point x="549" y="552"/>
      <point x="549" y="338" type="curve" smooth="yes"/>
      <point x="549" y="138"/>
      <point x="455" y="49"/>
      <point x="274" y="54" type="curve" smooth="yes"/>
    </contour>
  </outline>
</glyph>
<glyph name="E" format="1">
  <advance width="558"/>
  <unicode hex="0045"/>
  <outline>
    <contour>
      <point x="310" y="679" type="move" name="top"/>
    </contour>
    <contour>
      <point x="497" y="-4" type="move" name="ogonek"/>
    </contour>
    <contour>
      <point x="300" y="0" type="move" name="bottom"/>
    </contour>
    <contour>
      <point x="204" y="624" type="line"/>
      <point x="445" y="620" type="line"/>
      <point x="454" y="505" type="line"/>
      <point x="464" y="504"/>
      <point x="504" y="500"/>
      <point x="504" y="535" type="curve" smooth="yes"/>
      <point x="504" y="679" type="line"/>
      <point x="78" y="679" type="line" smooth="yes"/>
      <point x="39" y="679"/>
      <point x="43" y="640"/>
      <point x="44" y="630" type="curve"/>
      <point x="117" y="623" type="line"/>
      <point x="117" y="54" type="line"/>
      <point x="76" y="52" type="line" smooth="yes"/>
      <point x="36" y="49"/>
      <point x="42" y="10"/>
      <point x="41" y="0" type="curve"/>
      <point x="519" y="0" type="line"/>
      <point x="519" y="144" type="line" smooth="yes"/>
      <point x="519" y="180"/>
      <point x="479" y="175"/>
      <point x="469" y="174" type="curve"/>
      <point x="460" y="63" type="line"/>
      <point x="204" y="56" type="line"/>
      <point x="204" y="308" type="line"/>
      <point x="393" y="298" type="line"/>
      <point x="398" y="324"/>
      <point x="398" y="355"/>
      <point x="393" y="378" type="curve"/>
      <point x="204" y="362" type="line"/>
    </contour>
  </outline>
</glyph>
<glyph name="F" format="1">
  <advance width="518"/>
  <unicode hex="0046"/>
  <outline>
    <contour>
      <point x="501" y="679" type="line"/>
      <point x="78" y="679" type="line" smooth="yes"/>
      <point x="39" y="679"/>
      <point x="43" y="640"/>
      <point x="44" y="630" type="curve"/>
      <point x="117" y="623" type="line"/>
      <point x="117" y="54" type="line"/>
      <point x="76" y="52" type="line" smooth="yes"/>
      <point x="36" y="49"/>
      <point x="42" y="10"/>
      <point x="41" y="0" type="curve"/>
      <point x="261" y="0" type="line" smooth="yes"/>
      <point x="299" y="0"/>
      <point x="295" y="40"/>
      <point x="294" y="50" type="curve"/>
      <point x="206" y="56" type="line"/>
      <point x="206" y="318" type="line"/>
      <point x="394" y="307" type="line"/>
      <point x="399" y="333"/>
      <point x="398" y="365"/>
      <point x="393" y="387" type="curve"/>
      <point x="206" y="372" type="line"/>
      <point x="206" y="624" type="line"/>
      <point x="440" y="621" type="line"/>
      <point x="451" y="511" type="line"/>
      <point x="461" y="510"/>
      <point x="501" y="506"/>
      <point x="501" y="541" type="curve" smooth="yes"/>
    </contour>
  </outline>
</glyph>
<glyph name="H" format="1">
  <advance width="728"/>
  <unicode hex="0048"/>
  <outline>
    <contour>
      <point x="367" y="679" type="move" name="top"/>
    </contour>
    <contour>
      <point x="204" y="56" type="line"/>
      <point x="205" y="625" type="line"/>
      <point x="246" y="628" type="line" smooth="yes"/>
      <point x="286" y="630"/>
      <point x="280" y="669"/>
      <point x="281" y="679" type="curve"/>
      <point x="77" y="679" type="line" smooth="yes"/>
      <point x="39" y="679"/>
      <point x="43" y="639"/>
      <point x="44" y="629" type="curve"/>
      <point x="117" y="623" type="line"/>
      <point x="117" y="54" type="line"/>
      <point x="76" y="52" type="line" smooth="yes"/>
      <point x="36" y="49"/>
      <point x="42" y="10"/>
      <point x="41" y="0" type="curve"/>
      <point x="245" y="0" type="line" smooth="yes"/>
      <point x="283" y="0"/>
      <point x="279" y="40"/>
      <point x="278" y="50" type="curve"/>
    </contour>
    <contour>
      <point x="524" y="623" type="line"/>
      <point x="524" y="54" type="line"/>
      <point x="483" y="52" type="line" smooth="yes"/>
      <point x="443" y="49"/>
      <point x="449" y="10"/>
      <point x="448" y="0" type="curve"/>
      <point x="651" y="0" type="line" smooth="yes"/>
      <point x="689" y="0"/>
      <point x="685" y="40"/>
      <point x="684" y="50" type="curve"/>
      <point x="612" y="56" type="line"/>
      <point x="612" y="625" type="line"/>
      <point x="652" y="628" type="line" smooth="yes"/>
      <point x="692" y="630"/>
      <point x="686" y="669"/>
      <point x="687" y="679" type="curve"/>
      <point x="484" y="679" type="line" smooth="yes"/>
      <point x="447" y="679"/>
      <point x="451" y="639"/>
      <point x="452" y="629" type="curve"/>
    </contour>
    <contour>
      <point x="537" y="311" type="line"/>
      <point x="537" y="366" type="line"/>
      <point x="191" y="366" type="line"/>
      <point x="191" y="311" type="line"/>
    </contour>
  </outline>
</glyph>
<glyph name="J" format="1">
  <advance width="352"/>
  <unicode hex="004A"/>
  <outline>
    <contour>
      <point x="205" y="679" type="move" name="top"/>
    </contour>
    <contour>
      <point x="247" y="651" type="line"/>
      <point x="160" y="652" type="line"/>
      <point x="160" y="124" type="line" smooth="yes"/>
      <point x="160" y="28"/>
      <point x="141" y="1"/>
      <point x="108" y="1" type="curve" smooth="yes"/>
      <point x="73" y="1"/>
      <point x="59" y="23"/>
      <point x="58" y="59" type="curve"/>
      <point x="16" y="60"/>
      <point x="-1" y="36"/>
      <point x="-1" y="5" type="curve" smooth="yes"/>
      <point x="-1" y="-32"/>
      <point x="36" y="-62"/>
      <point x="87" y="-62" type="curve" smooth="yes"/>
      <point x="188" y="-62"/>
      <point x="247" y="21"/>
      <point x="247" y="133" type="curve" smooth="yes"/>
    </contour>
    <contour>
      <point x="113" y="679" type="line"/>
      <point x="75" y="679"/>
      <point x="79" y="639"/>
      <point x="80" y="629" type="curve"/>
      <point x="159" y="623" type="line"/>
      <point x="247" y="625" type="line"/>
      <point x="285" y="628" type="line" smooth="yes"/>
      <point x="325" y="630"/>
      <point x="319" y="669"/>
      <point x="320" y="679" type="curve"/>
    </contour>
  </outline>
</glyph>
<glyph name="K" format="1">
  <advance width="612"/>
  <unicode hex="004B"/>
  <outline>
    <contour>
      <point x="324" y="679" type="move" name="top"/>
    </contour>
    <contour>
      <point x="306" y="0" type="move" name="bottom"/>
    </contour>
    <contour>
      <point x="407" y="679" type="line"/>
      <point x="370" y="679"/>
      <point x="374" y="639"/>
      <point x="375" y="629" type="curve"/>
      <point x="439" y="624" type="line"/>
      <point x="204" y="331" type="line"/>
      <point x="205" y="625" type="line"/>
      <point x="246" y="628" type="line" smooth="yes"/>
      <point x="286" y="630"/>
      <point x="280" y="669"/>
      <point x="281" y="679" type="curve"/>
      <point x="77" y="679" type="line" smooth="yes"/>
      <point x="39" y="679"/>
      <point x="43" y="639"/>
      <point x="44" y="629" type="curve"/>
      <point x="117" y="623" type="line"/>
      <point x="117" y="54" type="line"/>
      <point x="76" y="52" type="line" smooth="yes"/>
      <point x="36" y="49"/>
      <point x="42" y="10"/>
      <point x="41" y="0" type="curve"/>
      <point x="249" y="0" type="line" smooth="yes"/>
      <point x="287" y="0"/>
      <point x="283" y="40"/>
      <point x="282" y="50" type="curve"/>
      <point x="204" y="56" type="line"/>
      <point x="204" y="248" type="line"/>
      <point x="247" y="300" type="line"/>
      <point x="458" y="0" type="line"/>
      <point x="557" y="0" type="line" smooth="yes"/>
      <point x="591" y="0"/>
      <point x="594" y="37"/>
      <point x="590" y="48" type="curve"/>
      <point x="528" y="54" type="line"/>
      <point x="304" y="370" type="line"/>
      <point x="512" y="625" type="line"/>
      <point x="552" y="628" type="line" smooth="yes"/>
      <point x="590" y="630"/>
      <point x="586" y="669"/>
      <point x="587" y="679" type="curve"/>
    </contour>
  </outline>
</glyph>
<glyph name="L" format="1">
  <advance width="537"/>
  <unicode hex="004C"/>
  <outline>
    <contour>
      <point x="209" y="679" type="move" name="top"/>
    </contour>
    <contour>
      <point x="259" y="0" type="move" name="bottom"/>
    </contour>
    <contour>
      <point x="117" y="652" type="line"/>
      <point x="117" y="10" type="line"/>
      <point x="204" y="10" type="line"/>
      <point x="204" y="651" type="line"/>
    </contour>
    <contour>
      <point x="514" y="63" type="line"/>
      <point x="204" y="56" type="line"/>
      <point x="117" y="54" type="line"/>
      <point x="76" y="52" type="line" smooth="yes"/>
      <point x="36" y="49"/>
      <point x="42" y="10"/>
      <point x="41" y="0" type="curve"/>
      <point x="501" y="0" type="line"/>
    </contour>
    <contour>
      <point x="449" y="35" type="line"/>
      <point x="460" y="0" type="line"/>
      <point x="514" y="0" type="line"/>
      <point x="514" y="150" type="line" smooth="yes"/>
      <point x="514" y="185"/>
      <point x="474" y="181"/>
      <point x="464" y="180" type="curve"/>
    </contour>
    <contour>
      <point x="77" y="681" type="line"/>
      <point x="40" y="681"/>
      <point x="44" y="640"/>
      <point x="45" y="630" type="curve"/>
      <point x="117" y="624" type="line"/>
      <point x="205" y="626" type="line"/>
      <point x="255" y="629" type="line" smooth="yes"/>
      <point x="295" y="631"/>
      <point x="289" y="671"/>
      <point x="290" y="681" type="curve"/>
    </contour>
  </outline>
</glyph>
<glyph name="M" format="1">
  <advance width="832"/>
  <unicode hex="004D"/>
  <outline>
    <contour>
      <point x="602" y="681" type="line"/>
      <point x="410" y="205" type="line"/>
      <point x="443" y="205" type="line"/>
      <point x="231" y="681" type="line"/>
      <point x="96" y="681" type="line" smooth="yes"/>
      <point x="59" y="681"/>
      <point x="63" y="640"/>
      <point x="64" y="630" type="curve"/>
      <point x="134" y="624" type="line"/>
      <point x="91" y="54" type="line"/>
      <point x="48" y="52" type="line" smooth="yes"/>
      <point x="8" y="49"/>
      <point x="14" y="10"/>
      <point x="13" y="0" type="curve"/>
      <point x="201" y="0" type="line" smooth="yes"/>
      <point x="238" y="0"/>
      <point x="234" y="40"/>
      <point x="233" y="50" type="curve"/>
      <point x="158" y="56" type="line"/>
      <point x="196" y="588" type="line"/>
      <point x="177" y="585" type="line"/>
      <point x="388" y="115" type="line"/>
      <point x="403" y="112"/>
      <point x="424" y="115"/>
      <point x="438" y="119" type="curve"/>
      <point x="638" y="601" type="line"/>
      <point x="621" y="602" type="line"/>
      <point x="661" y="54" type="line"/>
      <point x="622" y="52" type="line" smooth="yes"/>
      <point x="582" y="49"/>
      <point x="588" y="10"/>
      <point x="587" y="0" type="curve"/>
      <point x="785" y="0" type="line" smooth="yes"/>
      <point x="823" y="0"/>
      <point x="819" y="40"/>
      <point x="818" y="50" type="curve"/>
      <point x="750" y="58" type="line"/>
      <point x="706" y="624" type="line"/>
      <point x="776" y="630" type="line"/>
      <point x="777" y="640"/>
      <point x="781" y="681"/>
      <point x="744" y="681" type="curve" smooth="yes"/>
    </contour>
  </outline>
</glyph>
<glyph name="N" format="1">
  <advance width="687"/>
  <unicode hex="004E"/>
  <outline>
    <contour>
      <point x="343" y="679" type="move" name="top"/>
    </contour>
    <contour>
      <point x="354" y="0" type="move" name="bottom"/>
    </contour>
    <contour>
      <point x="489" y="679" type="line"/>
      <point x="451" y="679"/>
      <point x="455" y="639"/>
      <point x="456" y="629" type="curve"/>
      <point x="529" y="623" type="line"/>
      <point x="529" y="126" type="line"/>
      <point x="548" y="133" type="line"/>
      <point x="190" y="679" type="line"/>
      <point x="77" y="679" type="line" smooth="yes"/>
      <point x="39" y="679"/>
      <point x="43" y="639"/>
      <point x="44" y="629" type="curve"/>
      <point x="117" y="623" type="line"/>
      <point x="117" y="54" type="line"/>
      <point x="76" y="52" type="line" smooth="yes"/>
      <point x="36" y="49"/>
      <point x="42" y="10"/>
      <point x="41" y="0" type="curve"/>
      <point x="218" y="0" type="line" smooth="yes"/>
      <point x="256" y="0"/>
      <point x="252" y="40"/>
      <point x="251" y="50" type="curve"/>
      <point x="178" y="56" type="line"/>
      <point x="178" y="573" type="line"/>
      <point x="158" y="567" type="line"/>
      <point x="530" y="0" type="line"/>
      <point x="553" y="0"/>
      <point x="571" y="3"/>
      <point x="589" y="12" type="curve"/>
      <point x="589" y="625" type="line"/>
      <point x="631" y="628" type="line" smooth="yes"/>
      <point x="671" y="630"/>
      <point x="665" y="669"/>
      <point x="666" y="679" type="curve"/>
    </contour>
  </outline>
</glyph>
<glyph name="Q" format="1">
  <advance width="665"/>
  <unicode hex="0051"/>
  <outline>
    <contour>
      <point x="254" y="-3" type="line"/>
      <point x="334" y="-50"/>
      <point x="461" y="-141"/>
      <point x="554" y="-141" type="curve" smooth="yes"/>
      <point x="595" y="-141"/>
      <point x="626" y="-117"/>
      <point x="626" y="-82" type="curve" smooth="yes"/>
      <point x="626" y="-69"/>
      <point x="623" y="-60"/>
      <point x="618" y="-54" type="curve"/>
      <point x="601" y="-65"/>
      <point x="581" y="-70"/>
      <point x="567" y="-70" type="curve" smooth="yes"/>
      <point x="517" y="-70"/>
      <point x="403" y="-30"/>
      <point x="310" y="20" type="curve"/>
    </contour>
    <component base="O"/>
  </outline>
</glyph>
<glyph name="T" format="1">
  <advance width="612"/>
  <unicode hex="0054"/>
  <outline>
    <contour>
      <point x="311" y="679" type="move" name="top"/>
    </contour>
    <contour>
      <point x="305" y="0" type="move" name="bottom"/>
    </contour>
    <contour>
      <point x="337" y="57" type="line"/>
      <point x="279" y="55" type="line"/>
      <point x="218" y="52" type="line" smooth="yes"/>
      <point x="178" y="49"/>
      <point x="184" y="10"/>
      <point x="183" y="0" type="curve"/>
      <point x="396" y="0" type="line" smooth="yes"/>
      <point x="433" y="0"/>
      <point x="429" y="40"/>
      <point x="428" y="50" type="curve"/>
    </contour>
    <contour>
      <point x="78" y="621" type="line"/>
      <point x="535" y="621" type="line"/>
      <point x="542" y="521" type="line"/>
      <point x="558" y="520"/>
      <point x="592" y="517"/>
      <point x="592" y="553" type="curve" smooth="yes"/>
      <point x="592" y="679" type="line"/>
      <point x="20" y="679" type="line"/>
      <point x="20" y="553" type="line" smooth="yes"/>
      <point x="20" y="517"/>
      <point x="55" y="520"/>
      <point x="70" y="521" type="curve"/>
    </contour>
    <contour>
      <point x="263" y="38" type="line"/>
      <point x="351" y="40" type="line"/>
      <point x="351" y="637" type="line"/>
      <point x="263" y="637" type="line"/>
    </contour>
  </outline>
</glyph>
<glyph name="V" format="1">
  <advance width="623"/>
  <unicode hex="0056"/>
  <outline>
    <contour>
      <point x="49" y="661" type="line"/>
      <point x="272" y="0" type="line"/>
      <point x="340" y="0" type="line"/>
      <point x="576" y="662" type="line"/>
      <point x="507" y="656" type="line"/>
      <point x="291" y="28" type="line"/>
      <point x="334" y="71" type="line"/>
      <point x="147" y="662" type="line"/>
    </contour>
    <contour>
      <point x="498" y="623" type="line"/>
      <point x="562" y="625" type="line"/>
      <point x="585" y="628" type="line" smooth="yes"/>
      <point x="625" y="632"/>
      <point x="619" y="669"/>
      <point x="620" y="679" type="curve"/>
      <point x="455" y="679" type="line" smooth="yes"/>
      <point x="418" y="679"/>
      <point x="421" y="639"/>
      <point x="422" y="629" type="curve"/>
    </contour>
    <contour>
      <point x="62" y="623" type="line"/>
      <point x="158" y="625" type="line"/>
      <point x="200" y="628" type="line" smooth="yes"/>
      <point x="240" y="630"/>
      <point x="234" y="669"/>
      <point x="235" y="679" type="curve"/>
      <point x="36" y="679" type="line" smooth="yes"/>
      <point x="-1" y="679"/>
      <point x="3" y="639"/>
      <point x="4" y="629" type="curve"/>
    </contour>
  </outline>
</glyph>
<glyph name="W" format="1">
  <advance width="953"/>
  <unicode hex="0057"/>
  <outline>
    <contour>
      <point x="497" y="679" type="move" name="top"/>
    </contour>
    <contour>
      <point x="788" y="679" type="line"/>
      <point x="751" y="679"/>
      <point x="755" y="639"/>
      <point x="756" y="629" type="curve"/>
      <point x="828" y="623" type="line"/>
      <point x="663" y="82" type="line"/>
      <point x="682" y="82" type="line"/>
      <point x="526" y="616" type="line"/>
      <point x="460" y="616" type="line"/>
      <point x="282" y="80" type="line"/>
      <point x="304" y="79" type="line"/>
      <point x="157" y="625" type="line"/>
      <point x="195" y="628" type="line" smooth="yes"/>
      <point x="235" y="630"/>
      <point x="229" y="669"/>
      <point x="230" y="679" type="curve"/>
      <point x="36" y="679" type="line" smooth="yes"/>
      <point x="-1" y="679"/>
      <point x="3" y="639"/>
      <point x="4" y="629" type="curve"/>
      <point x="59" y="623" type="line"/>
      <point x="245" y="0" type="line"/>
      <point x="317" y="0" type="line"/>
      <point x="491" y="503" type="line"/>
      <point x="464" y="503" type="line"/>
      <point x="624" y="0" type="line"/>
      <point x="697" y="0" type="line"/>
      <point x="898" y="626" type="line"/>
      <point x="916" y="628" type="line" smooth="yes"/>
      <point x="956" y="631"/>
      <point x="948" y="669"/>
      <point x="949" y="679" type="curve"/>
    </contour>
  </outline>
</glyph>
<glyph name="X" format="1">
  <advance width="643"/>
  <unicode hex="0058"/>
  <outline>
    <contour>
      <point x="301" y="369" type="line"/>
      <point x="67" y="30" type="line"/>
      <point x="142" y="24" type="line"/>
      <point x="346" y="340" type="line"/>
    </contour>
    <contour>
      <point x="161" y="655" type="line"/>
      <point x="59" y="648" type="line"/>
      <point x="476" y="33" type="line"/>
      <point x="583" y="34" type="line"/>
    </contour>
    <contour>
      <point x="484" y="637" type="line"/>
      <point x="295" y="335" type="line"/>
      <point x="341" y="306" type="line"/>
      <point x="565" y="642" type="line"/>
    </contour>
    <contour>
      <point x="199" y="0" type="line"/>
      <point x="237" y="0"/>
      <point x="233" y="40"/>
      <point x="232" y="50" type="curve"/>
      <point x="163" y="56" type="line"/>
      <point x="84" y="54" type="line"/>
      <point x="49" y="52" type="line" smooth="yes"/>
      <point x="9" y="49"/>
      <point x="15" y="10"/>
      <point x="14" y="0" type="curve"/>
    </contour>
    <contour>
      <point x="479" y="624" type="line"/>
      <point x="558" y="627" type="line"/>
      <point x="585" y="629" type="line" smooth="yes"/>
      <point x="625" y="632"/>
      <point x="619" y="671"/>
      <point x="620" y="681" type="curve"/>
      <point x="440" y="681" type="line" smooth="yes"/>
      <point x="402" y="681"/>
      <point x="406" y="640"/>
      <point x="407" y="630" type="curve"/>
    </contour>
    <contour>
      <point x="567" y="56" type="line"/>
      <point x="461" y="54" type="line"/>
      <point x="430" y="52" type="line" smooth="yes"/>
      <point x="391" y="49"/>
      <point x="396" y="10"/>
      <point x="395" y="0" type="curve"/>
      <point x="598" y="0" type="line" smooth="yes"/>
      <point x="636" y="0"/>
      <point x="632" y="40"/>
      <point x="631" y="50" type="curve"/>
    </contour>
    <contour>
      <point x="77" y="624" type="line"/>
      <point x="181" y="626" type="line"/>
      <point x="215" y="629" type="line" smooth="yes"/>
      <point x="254" y="632"/>
      <point x="249" y="671"/>
      <point x="250" y="681" type="curve"/>
      <point x="46" y="681" type="line" smooth="yes"/>
      <point x="9" y="681"/>
      <point x="13" y="640"/>
      <point x="14" y="630" type="curve"/>
    </contour>
  </outline>
</glyph>
<glyph name="bracketleft" format="1">
  <advance width="241"/>
  <unicode hex="005B"/>
  <outline>
    <contour>
      <point x="141" y="656" type="line"/>
      <point x="222" y="656" type="line"/>
      <point x="222" y="707" type="line"/>
      <point x="69" y="707" type="line"/>
      <point x="69" y="-169" type="line"/>
      <point x="222" y="-169" type="line"/>
      <point x="222" y="-118" type="line"/>
      <point x="141" y="-118" type="line"/>
    </contour>
  </outline>
</glyph>
<glyph name="asciicircum" format="1">
  <advance width="496"/>
  <unicode hex="005E"/>
  <outline>
    <contour>
      <point x="276" y="653" type="line"/>
      <point x="229" y="653" type="line"/>
      <point x="54" y="204" type="line"/>
      <point x="132" y="204" type="line"/>
      <point x="271" y="567" type="line"/>
      <point x="232" y="567" type="line"/>
      <point x="364" y="204" type="line"/>
      <point x="441" y="204" type="line"/>
    </contour>
  </outline>
</glyph>
<glyph name="underscore" format="1">
  <advance width="389"/>
  <unicode hex="005F"/>
  <outline>
    <contour>
      <point x="-36" y="-81" type="line"/>
      <point x="-36" y="-142" type="line"/>
      <point x="424" y="-142" type="line"/>
      <point x="424" y="-81" type="line"/>
    </contour>
  </outline>
</glyph>
<glyph name="a" format="1">
  <advance width="508"/>
  <unicode hex="0061"/>
  <outline>
    <contour>
      <point x="237" y="494" type="move" name="top"/>
    </contour>
    <contour>
      <point x="424" y="-15" type="move" name="ogonek"/>
    </contour>
    <contour>
      <point x="235" y="509" type="curve" smooth="yes"/>
      <point x="137" y="509"/>
      <point x="71" y="464"/>
      <point x="71" y="406" type="curve" smooth="yes"/>
      <point x="71" y="364"/>
      <point x="102" y="349"/>
      <point x="138" y="353" type="curve"/>
      <point x="140" y="398"/>
      <point x="165" y="449"/>
      <point x="235" y="449" type="curve" smooth="yes"/>
      <point x="307" y="449"/>
      <point x="341" y="402"/>
      <point x="341" y="323" type="curve" smooth="yes"/>
      <point x="341" y="79" type="line" smooth="yes"/>
      <point x="341" y="27"/>
      <point x="359" y="-16"/>
      <point x="425" y="-16" type="curve" smooth="yes"/>
      <point x="468" y="-16"/>
      <point x="492" y="3"/>
      <point x="492" y="35" type="curve"/>
      <point x="426" y="43" type="line"/>
      <point x="426" y="328" type="line" smooth="yes"/>
      <point x="426" y="476"/>
      <point x="317" y="509"/>
    </contour>
    <contour>
      <point x="241" y="265" type="curve" smooth="yes"/>
      <point x="86" y="265"/>
      <point x="41" y="190"/>
      <point x="41" y="121" type="curve" smooth="yes"/>
      <point x="41" y="35"/>
      <point x="101" y="-15"/>
      <point x="193" y="-15" type="curve" smooth="yes"/>
      <point x="278" y="-15"/>
      <point x="343" y="30"/>
      <point x="377" y="80" type="curve"/>
      <point x="372" y="124" type="line"/>
      <point x="333" y="80"/>
      <point x="283" y="48"/>
      <point x="221" y="48" type="curve" smooth="yes"/>
      <point x="165" y="48"/>
      <point x="133" y="78"/>
      <point x="133" y="130" type="curve" smooth="yes"/>
      <point x="133" y="180"/>
      <point x="171" y="211"/>
      <point x="240" y="211" type="curve" smooth="yes"/>
      <point x="314" y="211"/>
      <point x="370" y="182"/>
      <point x="393" y="151" type="curve"/>
      <point x="390" y="237" type="line"/>
      <point x="356" y="255"/>
      <point x="301" y="265"/>
    </contour>
  </outline>
</glyph>
<glyph name="b" format="1">
  <advance width="562"/>
  <unicode hex="0062"/>
  <outline>
    <contour>
      <point x="328" y="509" type="curve" smooth="yes"/>
      <point x="234" y="509"/>
      <point x="177" y="450"/>
      <point x="136" y="403" type="curve"/>
      <point x="145" y="357" type="line"/>
      <point x="201" y="409"/>
      <point x="238" y="441"/>
      <point x="298" y="441" type="curve" smooth="yes"/>
      <point x="395" y="441"/>
      <point x="435" y="356"/>
      <point x="435" y="248" type="curve" smooth="yes"/>
      <point x="435" y="146"/>
      <point x="402" y="47"/>
      <point x="297" y="47" type="curve" smooth="yes"/>
      <point x="228" y="47"/>
      <point x="175" y="88"/>
      <point x="162" y="107" type="curve"/>
      <point x="135" y="29" type="line"/>
      <point x="181" y="3"/>
      <point x="220" y="-15"/>
      <point x="284" y="-15" type="curve" smooth="yes"/>
      <point x="443" y="-15"/>
      <point x="528" y="101"/>
      <point x="525" y="268" type="curve" smooth="yes"/>
      <point x="521" y="439"/>
      <point x="427" y="509"/>
    </contour>
    <contour>
      <point x="174" y="703" type="line"/>
      <point x="14" y="683" type="line"/>
      <point x="13" y="670"/>
      <point x="13" y="638"/>
      <point x="41" y="635" type="curve" smooth="yes"/>
      <point x="90" y="630" type="line"/>
      <point x="90" y="38" type="line"/>
      <point x="174" y="9" type="line"/>
    </contour>
  </outline>
</glyph>
<glyph name="c" format="1">
  <advance width="458"/>
  <unicode hex="0063"/>
  <outline>
    <contour>
      <point x="265" y="494" type="move" name="top"/>
    </contour>
    <contour>
      <point x="277" y="509" type="curve" smooth="yes"/>
      <point x="125" y="509"/>
      <point x="37" y="392"/>
      <point x="38" y="229" type="curve" smooth="yes"/>
      <point x="39" y="85"/>
      <point x="112" y="-15"/>
      <point x="246" y="-15" type="curve" smooth="yes"/>
      <point x="340" y="-15"/>
      <point x="429" y="36"/>
      <point x="429" y="75" type="curve" smooth="yes"/>
      <point x="429" y="85"/>
      <point x="423" y="99"/>
      <point x="413" y="105" type="curve"/>
      <point x="372" y="71"/>
      <point x="328" y="52"/>
      <point x="279" y="52" type="curve" smooth="yes"/>
      <point x="160" y="52"/>
      <point x="127" y="149"/>
      <point x="127" y="248" type="curve" smooth="yes"/>
      <point x="127" y="360"/>
      <point x="171" y="446"/>
      <point x="262" y="446" type="curve" smooth="yes"/>
      <point x="332" y="446"/>
      <point x="357" y="393"/>
      <point x="358" y="349" type="curve"/>
      <point x="388" y="347"/>
      <point x="423" y="361"/>
      <point x="423" y="408" type="curve" smooth="yes"/>
      <point x="423" y="469"/>
      <point x="366" y="509"/>
    </contour>
  </outline>
</glyph>
<glyph name="d" format="1">
  <advance width="553"/>
  <unicode hex="0064"/>
  <outline>
    <contour>
      <point x="473" y="703" type="line"/>
      <point x="313" y="683" type="line"/>
      <point x="312" y="670"/>
      <point x="312" y="638"/>
      <point x="340" y="635" type="curve" smooth="yes"/>
      <point x="389" y="630" type="line"/>
      <point x="389" y="71" type="line" smooth="yes"/>
      <point x="389" y="25"/>
      <point x="409" y="-15"/>
      <point x="470" y="-15" type="curve" smooth="yes"/>
      <point x="519" y="-15"/>
      <point x="537" y="7"/>
      <point x="538" y="37" type="curve"/>
      <point x="473" y="44" type="line"/>
    </contour>
    <contour>
      <point x="428" y="465" type="line"/>
      <point x="382" y="491"/>
      <point x="343" y="509"/>
      <point x="279" y="509" type="curve" smooth="yes"/>
      <point x="120" y="509"/>
      <point x="35" y="394"/>
      <point x="38" y="227" type="curve" smooth="yes"/>
      <point x="41" y="56"/>
      <point x="136" y="-15"/>
      <point x="235" y="-15" type="curve" smooth="yes"/>
      <point x="329" y="-15"/>
      <point x="386" y="44"/>
      <point x="427" y="91" type="curve"/>
      <point x="418" y="138" type="line"/>
      <point x="362" y="85"/>
      <point x="325" y="52"/>
      <point x="265" y="52" type="curve" smooth="yes"/>
      <point x="168" y="52"/>
      <point x="127" y="138"/>
      <point x="127" y="246" type="curve" smooth="yes"/>
      <point x="127" y="348"/>
      <point x="161" y="447"/>
      <point x="265" y="447" type="curve" smooth="yes"/>
      <point x="335" y="447"/>
      <point x="388" y="405"/>
      <point x="401" y="387" type="curve"/>
    </contour>
  </outline>
</glyph>
<glyph name="e" format="1">
  <advance width="472"/>
  <unicode hex="0065"/>
  <outline>
    <contour>
      <point x="270" y="509" type="curve" smooth="yes"/>
      <point x="141" y="509"/>
      <point x="38" y="413"/>
      <point x="38" y="226" type="curve" smooth="yes"/>
      <point x="38" y="66"/>
      <point x="122" y="-15"/>
      <point x="249" y="-15" type="curve" smooth="yes"/>
      <point x="351" y="-15"/>
      <point x="430" y="39"/>
      <point x="430" y="75" type="curve" smooth="yes"/>
      <point x="430" y="85"/>
      <point x="425" y="99"/>
      <point x="416" y="105" type="curve"/>
      <point x="381" y="77"/>
      <point x="337" y="52"/>
      <point x="276" y="52" type="curve" smooth="yes"/>
      <point x="164" y="52"/>
      <point x="128" y="131"/>
      <point x="128" y="233" type="curve" smooth="yes"/>
      <point x="128" y="368"/>
      <point x="180" y="450"/>
      <point x="258" y="450" type="curve" smooth="yes"/>
      <point x="328" y="450"/>
      <point x="362" y="384"/>
      <point x="354" y="272" type="curve"/>
      <point x="393" y="310" type="line"/>
      <point x="87" y="310" type="line"/>
      <point x="86" y="258" type="line"/>
      <point x="441" y="258" type="line"/>
      <point x="441" y="309" type="line" smooth="yes"/>
      <point x="442" y="409"/>
      <point x="395" y="509"/>
    </contour>
  </outline>
</glyph>
<glyph name="f" format="1">
  <advance width="342"/>
  <unicode hex="0066"/>
  <outline>
    <contour>
      <point x="274" y="718" type="curve" smooth="yes"/>
      <point x="173" y="717"/>
      <point x="114" y="643"/>
      <point x="114" y="528" type="curve" smooth="yes"/>
      <point x="114" y="0" type="line"/>
      <point x="198" y="0" type="line"/>
      <point x="198" y="546" type="line" smooth="yes"/>
      <point x="198" y="634"/>
      <point x="220" y="665"/>
      <point x="259" y="665" type="curve" smooth="yes"/>
      <point x="285" y="665"/>
      <point x="308" y="647"/>
      <point x="309" y="609" type="curve"/>
      <point x="340" y="609"/>
      <point x="365" y="625"/>
      <point x="365" y="660" type="curve" smooth="yes"/>
      <point x="365" y="702"/>
      <point x="324" y="719"/>
    </contour>
    <contour>
      <point x="196" y="54" type="line"/>
      <point x="114" y="52" type="line"/>
      <point x="76" y="50" type="line" smooth="yes"/>
      <point x="36" y="47"/>
      <point x="42" y="10"/>
      <point x="41" y="0" type="curve"/>
      <point x="265" y="0" type="line" smooth="yes"/>
      <point x="302" y="0"/>
      <point x="298" y="35"/>
      <point x="297" y="48" type="curve"/>
    </contour>
    <contour>
      <point x="77" y="494" type="line"/>
      <point x="42" y="494"/>
      <point x="43" y="463"/>
      <point x="43" y="441" type="curve"/>
      <point x="289" y="441" type="line" smooth="yes"/>
      <point x="324" y="441"/>
      <point x="324" y="481"/>
      <point x="323" y="494" type="curve"/>
    </contour>
  </outline>
</glyph>
<glyph name="h" format="1">
  <advance width="628"/>
  <unicode hex="0068"/>
  <outline>
    <contour>
      <point x="319" y="494" type="move" name="top"/>
    </contour>
    <contour>
      <point x="355" y="509" type="curve" smooth="yes"/>
      <point x="262" y="509"/>
      <point x="216" y="455"/>
      <point x="179" y="417" type="curve"/>
      <point x="186" y="363" type="line"/>
      <point x="233" y="406"/>
      <point x="269" y="436"/>
      <point x="334" y="436" type="curve" smooth="yes"/>
      <point x="404" y="436"/>
      <point x="446" y="396"/>
      <point x="446" y="302" type="curve" smooth="yes"/>
      <point x="446" y="0" type="line"/>
      <point x="530" y="0" type="line"/>
      <point x="530" y="304" type="line" smooth="yes"/>
      <point x="529" y="457"/>
      <point x="438" y="509"/>
    </contour>
    <contour>
      <point x="199" y="54" type="line"/>
      <point x="117" y="52" type="line"/>
      <point x="78" y="50" type="line" smooth="yes"/>
      <point x="38" y="47"/>
      <point x="44" y="10"/>
      <point x="43" y="0" type="curve"/>
      <point x="243" y="0" type="line" smooth="yes"/>
      <point x="281" y="0"/>
      <point x="277" y="38"/>
      <point x="276" y="48" type="curve"/>
    </contour>
    <contour>
      <point x="202" y="703" type="line"/>
      <point x="41" y="683" type="line"/>
      <point x="41" y="670"/>
      <point x="40" y="637"/>
      <point x="69" y="634" type="curve" smooth="yes"/>
      <point x="117" y="629" type="line"/>
      <point x="117" y="0" type="line"/>
      <point x="202" y="0" type="line"/>
    </contour>
    <contour>
      <point x="530" y="54" type="line"/>
      <point x="447" y="52" type="line"/>
      <point x="409" y="50" type="line" smooth="yes"/>
      <point x="369" y="47"/>
      <point x="375" y="10"/>
      <point x="374" y="0" type="curve"/>
      <point x="572" y="0" type="line" smooth="yes"/>
      <point x="610" y="0"/>
      <point x="606" y="38"/>
      <point x="605" y="48" type="curve"/>
    </contour>
  </outline>
</glyph>
<glyph name="i" format="1">
  <advance width="299"/>
  <unicode hex="0069"/>
  <outline>
    <contour>
      <point x="151" y="577" type="curve" smooth="yes"/>
      <point x="184" y="577"/>
      <point x="208" y="600"/>
      <point x="208" y="633" type="curve" smooth="yes"/>
      <point x="208" y="666"/>
      <point x="184" y="690"/>
      <point x="151" y="690" type="curve" smooth="yes"/>
      <point x="118" y="690"/>
      <point x="94" y="666"/>
      <point x="94" y="633" type="curve" smooth="yes"/>
      <point x="94" y="600"/>
      <point x="118" y="577"/>
    </contour>
    <contour>
      <point x="202" y="509" type="line"/>
      <point x="41" y="491" type="line"/>
      <point x="41" y="478"/>
      <point x="40" y="446"/>
      <point x="69" y="443" type="curve" smooth="yes"/>
      <point x="117" y="438" type="line"/>
      <point x="117" y="0" type="line"/>
      <point x="202" y="0" type="line"/>
    </contour>
    <contour>
      <point x="199" y="54" type="line"/>
      <point x="117" y="52" type="line"/>
      <point x="78" y="50" type="line" smooth="yes"/>
      <point x="38" y="47"/>
      <point x="44" y="10"/>
      <point x="43" y="0" type="curve"/>
      <point x="243" y="0" type="line" smooth="yes"/>
      <point x="281" y="0"/>
      <point x="277" y="38"/>
      <point x="276" y="48" type="curve"/>
    </contour>
  </outline>
</glyph>
<glyph name="j" format="1">
  <advance width="261"/>
  <unicode hex="006A"/>
  <outline>
    <contour>
      <point x="180" y="509" type="line"/>
      <point x="19" y="491" type="line"/>
      <point x="19" y="478"/>
      <point x="19" y="446"/>
      <point x="45" y="444" type="curve" smooth="yes"/>
      <point x="96" y="439" type="line"/>
      <point x="96" y="-35" type="line" smooth="yes"/>
      <point x="96" y="-144"/>
      <point x="68" y="-167"/>
      <point x="29" y="-167" type="curve" smooth="yes"/>
      <point x="-1" y="-167"/>
      <point x="-14" y="-147"/>
      <point x="-15" y="-119" type="curve"/>
      <point x="-46" y="-118"/>
      <point x="-70" y="-135"/>
      <point x="-70" y="-167" type="curve" smooth="yes"/>
      <point x="-70" y="-215"/>
      <point x="-19" y="-228"/>
      <point x="9" y="-228" type="curve" smooth="yes"/>
      <point x="121" y="-228"/>
      <point x="180" y="-131"/>
      <point x="180" y="28" type="curve" smooth="yes"/>
    </contour>
    <contour>
      <point x="131" y="690" type="curve" smooth="yes"/>
      <point x="98" y="690"/>
      <point x="74" y="666"/>
      <point x="74" y="634" type="curve" smooth="yes"/>
      <point x="74" y="601"/>
      <point x="98" y="577"/>
      <point x="131" y="577" type="curve" smooth="yes"/>
      <point x="164" y="577"/>
      <point x="187" y="601"/>
      <point x="187" y="634" type="curve" smooth="yes"/>
      <point x="187" y="666"/>
      <point x="164" y="690"/>
    </contour>
  </outline>
</glyph>
<glyph name="k" format="1">
  <advance width="551"/>
  <unicode hex="006B"/>
  <outline>
    <contour>
      <point x="289" y="0" type="move" name="bottom"/>
    </contour>
    <contour>
      <point x="202" y="703" type="line"/>
      <point x="41" y="683" type="line"/>
      <point x="41" y="670"/>
      <point x="40" y="638"/>
      <point x="69" y="635" type="curve" smooth="yes"/>
      <point x="117" y="630" type="line"/>
      <point x="117" y="52" type="line"/>
      <point x="79" y="50" type="line" smooth="yes"/>
      <point x="39" y="47"/>
      <point x="45" y="10"/>
      <point x="44" y="0" type="curve"/>
      <point x="244" y="0" type="line" smooth="yes"/>
      <point x="281" y="0"/>
      <point x="277" y="38"/>
      <point x="276" y="48" type="curve"/>
      <point x="202" y="54" type="line"/>
      <point x="202" y="167" type="line"/>
      <point x="260" y="231" type="line"/>
      <point x="427" y="0" type="line"/>
      <point x="517" y="0" type="line" smooth="yes"/>
      <point x="554" y="0"/>
      <point x="552" y="37"/>
      <point x="551" y="48" type="curve"/>
      <point x="484" y="54" type="line"/>
      <point x="313" y="291" type="line"/>
      <point x="450" y="442" type="line"/>
      <point x="477" y="444" type="line" smooth="yes"/>
      <point x="517" y="447"/>
      <point x="511" y="484"/>
      <point x="512" y="494" type="curve"/>
      <point x="348" y="494" type="line" smooth="yes"/>
      <point x="310" y="494"/>
      <point x="314" y="456"/>
      <point x="315" y="446" type="curve"/>
      <point x="374" y="440" type="line"/>
      <point x="202" y="243" type="line"/>
    </contour>
  </outline>
</glyph>
<glyph name="l" format="1">
  <advance width="295"/>
  <unicode hex="006C"/>
  <outline>
    <contour>
      <point x="163" y="494" type="move" name="top"/>
    </contour>
    <contour>
      <point x="159" y="0" type="move" name="bottom"/>
    </contour>
    <contour>
      <point x="202" y="703" type="line"/>
      <point x="41" y="683" type="line"/>
      <point x="41" y="670"/>
      <point x="40" y="638"/>
      <point x="69" y="635" type="curve" smooth="yes"/>
      <point x="117" y="630" type="line"/>
      <point x="117" y="0" type="line"/>
      <point x="202" y="0" type="line"/>
    </contour>
    <contour>
      <point x="202" y="54" type="line"/>
      <point x="117" y="52" type="line"/>
      <point x="77" y="50" type="line" smooth="yes"/>
      <point x="37" y="47"/>
      <point x="43" y="10"/>
      <point x="42" y="0" type="curve"/>
      <point x="240" y="0" type="line" smooth="yes"/>
      <point x="278" y="0"/>
      <point x="274" y="38"/>
      <point x="273" y="48" type="curve"/>
    </contour>
  </outline>
</glyph>
<glyph name="m" format="1">
  <advance width="940"/>
  <unicode hex="006D"/>
  <outline>
    <contour>
      <point x="842" y="54" type="line"/>
      <point x="842" y="304" type="line" smooth="yes"/>
      <point x="842" y="457"/>
      <point x="750" y="509"/>
      <point x="667" y="509" type="curve" smooth="yes"/>
      <point x="587" y="509"/>
      <point x="535" y="463"/>
      <point x="497" y="421" type="curve"/>
      <point x="464" y="485"/>
      <point x="402" y="509"/>
      <point x="350" y="509" type="curve" smooth="yes"/>
      <point x="275" y="509"/>
      <point x="234" y="474"/>
      <point x="198" y="439" type="curve"/>
      <point x="195" y="439" type="line"/>
      <point x="185" y="506" type="line"/>
      <point x="41" y="488" type="line"/>
      <point x="41" y="475"/>
      <point x="40" y="441"/>
      <point x="74" y="439" type="curve" smooth="yes"/>
      <point x="117" y="437" type="line"/>
      <point x="117" y="52" type="line"/>
      <point x="78" y="50" type="line" smooth="yes"/>
      <point x="38" y="47"/>
      <point x="44" y="10"/>
      <point x="43" y="0" type="curve"/>
      <point x="243" y="0" type="line" smooth="yes"/>
      <point x="281" y="0"/>
      <point x="277" y="38"/>
      <point x="276" y="48" type="curve"/>
      <point x="202" y="54" type="line"/>
      <point x="202" y="377" type="line"/>
      <point x="239" y="411"/>
      <point x="274" y="435"/>
      <point x="326" y="435" type="curve" smooth="yes"/>
      <point x="394" y="435"/>
      <point x="439" y="395"/>
      <point x="439" y="301" type="curve" smooth="yes"/>
      <point x="439" y="52" type="line"/>
      <point x="400" y="50" type="line" smooth="yes"/>
      <point x="360" y="47"/>
      <point x="366" y="10"/>
      <point x="365" y="0" type="curve"/>
      <point x="565" y="0" type="line" smooth="yes"/>
      <point x="602" y="0"/>
      <point x="598" y="38"/>
      <point x="597" y="48" type="curve"/>
      <point x="523" y="54" type="line"/>
      <point x="523" y="304" type="line" smooth="yes"/>
      <point x="523" y="331"/>
      <point x="521" y="351"/>
      <point x="515" y="372" type="curve"/>
      <point x="553" y="408"/>
      <point x="591" y="435"/>
      <point x="646" y="435" type="curve" smooth="yes"/>
      <point x="716" y="435"/>
      <point x="758" y="395"/>
      <point x="758" y="301" type="curve" smooth="yes"/>
      <point x="758" y="52" type="line"/>
      <point x="720" y="50" type="line" smooth="yes"/>
      <point x="680" y="47"/>
      <point x="686" y="10"/>
      <point x="685" y="0" type="curve"/>
      <point x="884" y="0" type="line" smooth="yes"/>
      <point x="922" y="0"/>
      <point x="918" y="38"/>
      <point x="917" y="48" type="curve"/>
    </contour>
  </outline>
</glyph>
<glyph name="n" format="1">
  <advance width="624"/>
  <unicode hex="006E"/>
  <outline>
    <contour>
      <point x="325" y="494" type="move" name="top"/>
    </contour>
    <contour>
      <point x="317" y="0" type="move" name="bottom"/>
    </contour>
    <contour>
      <point x="530" y="54" type="line"/>
      <point x="530" y="311" type="line" smooth="yes"/>
      <point x="530" y="457"/>
      <point x="444" y="509"/>
      <point x="362" y="509" type="curve" smooth="yes"/>
      <point x="289" y="509"/>
      <point x="237" y="470"/>
      <point x="199" y="435" type="curve"/>
      <point x="196" y="435" type="line"/>
      <point x="185" y="506" type="line"/>
      <point x="41" y="488" type="line"/>
      <point x="41" y="475"/>
      <point x="40" y="444"/>
      <point x="69" y="441" type="curve" smooth="yes"/>
      <point x="117" y="436" type="line"/>
      <point x="117" y="52" type="line"/>
      <point x="77" y="50" type="line" smooth="yes"/>
      <point x="37" y="47"/>
      <point x="43" y="10"/>
      <point x="42" y="0" type="curve"/>
      <point x="240" y="0" type="line" smooth="yes"/>
      <point x="278" y="0"/>
      <point x="274" y="38"/>
      <point x="273" y="48" type="curve"/>
      <point x="202" y="54" type="line"/>
      <point x="202" y="376" type="line"/>
      <point x="247" y="415"/>
      <point x="284" y="437"/>
      <point x="342" y="437" type="curve" smooth="yes"/>
      <point x="411" y="437"/>
      <point x="446" y="394"/>
      <point x="446" y="307" type="curve" smooth="yes"/>
      <point x="446" y="52" type="line"/>
      <point x="407" y="50" type="line" smooth="yes"/>
      <point x="367" y="47"/>
      <point x="373" y="10"/>
      <point x="372" y="0" type="curve"/>
      <point x="568" y="0" type="line" smooth="yes"/>
      <point x="606" y="0"/>
      <point x="602" y="38"/>
      <point x="601" y="48" type="curve"/>
    </contour>
  </outline>
</glyph>
<glyph name="o" format="1">
  <advance width="518"/>
  <unicode hex="006F"/>
  <outline>
    <contour>
      <point x="262" y="494" type="move" name="top"/>
    </contour>
    <contour>
      <point x="267" y="509" type="curve" smooth="yes"/>
      <point x="124" y="509"/>
      <point x="37" y="403"/>
      <point x="38" y="231" type="curve" smooth="yes"/>
      <point x="39" y="76"/>
      <point x="113" y="-15"/>
      <point x="249" y="-15" type="curve" smooth="yes"/>
      <point x="398" y="-15"/>
      <point x="481" y="93"/>
      <point x="480" y="258" type="curve" smooth="yes"/>
      <point x="479" y="444"/>
      <point x="373" y="509"/>
    </contour>
    <contour>
      <point x="259" y="450" type="curve" smooth="yes"/>
      <point x="351" y="450"/>
      <point x="391" y="356"/>
      <point x="391" y="243" type="curve" smooth="yes"/>
      <point x="391" y="126"/>
      <point x="344" y="44"/>
      <point x="259" y="44" type="curve" smooth="yes"/>
      <point x="170" y="43"/>
      <point x="127" y="129"/>
      <point x="127" y="245" type="curve" smooth="yes"/>
      <point x="127" y="362"/>
      <point x="173" y="449"/>
    </contour>
  </outline>
</glyph>
<glyph name="p" format="1">
  <advance width="560"/>
  <unicode hex="0070"/>
  <outline>
    <contour>
      <point x="325" y="509" type="curve" smooth="yes"/>
      <point x="236" y="509"/>
      <point x="175" y="450"/>
      <point x="133" y="403" type="curve"/>
      <point x="142" y="357" type="line"/>
      <point x="199" y="409"/>
      <point x="235" y="441"/>
      <point x="295" y="441" type="curve" smooth="yes"/>
      <point x="393" y="441"/>
      <point x="432" y="356"/>
      <point x="432" y="247" type="curve" smooth="yes"/>
      <point x="432" y="146"/>
      <point x="399" y="47"/>
      <point x="295" y="47" type="curve" smooth="yes"/>
      <point x="225" y="47"/>
      <point x="173" y="88"/>
      <point x="159" y="107" type="curve"/>
      <point x="133" y="29" type="line"/>
      <point x="178" y="3"/>
      <point x="217" y="-15"/>
      <point x="281" y="-15" type="curve" smooth="yes"/>
      <point x="440" y="-15"/>
      <point x="525" y="100"/>
      <point x="522" y="267" type="curve" smooth="yes"/>
      <point x="518" y="439"/>
      <point x="424" y="509"/>
    </contour>
    <contour>
      <point x="170" y="-161" type="line"/>
      <point x="87" y="-163" type="line"/>
      <point x="48" y="-166" type="line" smooth="yes"/>
      <point x="8" y="-168"/>
      <point x="14" y="-205"/>
      <point x="13" y="-215" type="curve"/>
      <point x="213" y="-215" type="line" smooth="yes"/>
      <point x="251" y="-215"/>
      <point x="247" y="-177"/>
      <point x="246" y="-167" type="curve"/>
    </contour>
    <contour>
      <point x="155" y="503" type="line"/>
      <point x="12" y="485" type="line"/>
      <point x="12" y="472"/>
      <point x="11" y="442"/>
      <point x="37" y="439" type="curve" smooth="yes"/>
      <point x="87" y="434" type="line"/>
      <point x="87" y="-215" type="line"/>
      <point x="171" y="-215" type="line"/>
      <point x="171" y="420" type="line"/>
    </contour>
  </outline>
</glyph>
<glyph name="q" format="1">
  <advance width="534"/>
  <unicode hex="0071"/>
  <outline>
    <contour>
      <point x="277" y="509" type="curve" smooth="yes"/>
      <point x="119" y="509"/>
      <point x="35" y="392"/>
      <point x="38" y="226" type="curve" smooth="yes"/>
      <point x="41" y="56"/>
      <point x="138" y="-15"/>
      <point x="235" y="-15" type="curve" smooth="yes"/>
      <point x="333" y="-15"/>
      <point x="387" y="38"/>
      <point x="429" y="86" type="curve"/>
      <point x="420" y="134" type="line"/>
      <point x="363" y="83"/>
      <point x="328" y="54"/>
      <point x="266" y="54" type="curve" smooth="yes"/>
      <point x="168" y="54"/>
      <point x="127" y="138"/>
      <point x="127" y="247" type="curve" smooth="yes"/>
      <point x="127" y="349"/>
      <point x="162" y="447"/>
      <point x="264" y="447" type="curve" smooth="yes"/>
      <point x="335" y="447"/>
      <point x="386" y="407"/>
      <point x="400" y="388" type="curve"/>
      <point x="427" y="465" type="line"/>
      <point x="382" y="491"/>
      <point x="343" y="509"/>
    </contour>
    <contour>
      <point x="470" y="-161" type="line"/>
      <point x="388" y="-163" type="line"/>
      <point x="349" y="-166" type="line" smooth="yes"/>
      <point x="309" y="-168"/>
      <point x="315" y="-205"/>
      <point x="314" y="-215" type="curve"/>
      <point x="511" y="-215" type="line" smooth="yes"/>
      <point x="548" y="-215"/>
      <point x="544" y="-177"/>
      <point x="543" y="-167" type="curve"/>
    </contour>
    <contour>
      <point x="472" y="494" type="line"/>
      <point x="388" y="483" type="line"/>
      <point x="388" y="-215" type="line"/>
      <point x="472" y="-215" type="line"/>
    </contour>
  </outline>
</glyph>
<glyph name="r" format="1">
  <advance width="418"/>
  <unicode hex="0072"/>
  <outline>
    <contour>
      <point x="231" y="494" type="move" name="top"/>
    </contour>
    <contour>
      <point x="171" y="0" type="move" name="bottom"/>
    </contour>
    <contour>
      <point x="350" y="509" type="curve" smooth="yes"/>
      <point x="303" y="509"/>
      <point x="235" y="465"/>
      <point x="199" y="426" type="curve"/>
      <point x="196" y="426" type="line"/>
      <point x="189" y="504" type="line"/>
      <point x="41" y="485" type="line"/>
      <point x="41" y="472"/>
      <point x="40" y="442"/>
      <point x="65" y="439" type="curve" smooth="yes"/>
      <point x="116" y="434" type="line"/>
      <point x="116" y="52" type="line"/>
      <point x="78" y="50" type="line" smooth="yes"/>
      <point x="38" y="47"/>
      <point x="44" y="10"/>
      <point x="43" y="0" type="curve"/>
      <point x="252" y="0" type="line" smooth="yes"/>
      <point x="290" y="0"/>
      <point x="286" y="38"/>
      <point x="285" y="48" type="curve"/>
      <point x="201" y="54" type="line"/>
      <point x="201" y="367" type="line"/>
      <point x="237" y="407"/>
      <point x="275" y="434"/>
      <point x="309" y="434" type="curve" smooth="yes"/>
      <point x="336" y="434"/>
      <point x="347" y="412"/>
      <point x="347" y="361" type="curve"/>
      <point x="367" y="359"/>
      <point x="382" y="361"/>
      <point x="393" y="370" type="curve"/>
      <point x="404" y="382"/>
      <point x="414" y="415"/>
      <point x="414" y="444" type="curve" smooth="yes"/>
      <point x="414" y="492"/>
      <point x="381" y="509"/>
    </contour>
  </outline>
</glyph>
<glyph name="s" format="1">
  <advance width="406"/>
  <unicode hex="0073"/>
  <outline>
    <contour>
      <point x="208" y="494" type="move" name="top"/>
    </contour>
    <contour>
      <point x="209" y="0" type="move" name="bottom"/>
    </contour>
    <contour>
      <point x="223" y="509" type="curve" smooth="yes"/>
      <point x="130" y="509"/>
      <point x="41" y="459"/>
      <point x="40" y="365" type="curve" smooth="yes"/>
      <point x="40" y="275"/>
      <point x="124" y="241"/>
      <point x="203" y="211" type="curve" smooth="yes"/>
      <point x="269" y="186"/>
      <point x="309" y="168"/>
      <point x="308" y="119" type="curve" smooth="yes"/>
      <point x="307" y="68"/>
      <point x="258" y="43"/>
      <point x="204" y="44" type="curve" smooth="yes"/>
      <point x="136" y="44"/>
      <point x="95" y="83"/>
      <point x="84" y="138" type="curve"/>
      <point x="53" y="139"/>
      <point x="24" y="119"/>
      <point x="24" y="82" type="curve" smooth="yes"/>
      <point x="23" y="17"/>
      <point x="108" y="-14"/>
      <point x="185" y="-15" type="curve" smooth="yes"/>
      <point x="310" y="-16"/>
      <point x="382" y="63"/>
      <point x="382" y="148" type="curve" smooth="yes"/>
      <point x="383" y="232"/>
      <point x="318" y="260"/>
      <point x="237" y="293" type="curve" smooth="yes"/>
      <point x="161" y="322"/>
      <point x="111" y="343"/>
      <point x="112" y="386" type="curve" smooth="yes"/>
      <point x="112" y="424"/>
      <point x="151" y="452"/>
      <point x="203" y="451" type="curve" smooth="yes"/>
      <point x="261" y="450"/>
      <point x="295" y="414"/>
      <point x="294" y="369" type="curve"/>
      <point x="324" y="365"/>
      <point x="358" y="382"/>
      <point x="358" y="424" type="curve" smooth="yes"/>
      <point x="359" y="486"/>
      <point x="283" y="508"/>
    </contour>
  </outline>
</glyph>
<glyph name="t" format="1">
  <advance width="385"/>
  <unicode hex="0074"/>
  <outline>
    <contour>
      <point x="215" y="0" type="move" name="bottom"/>
    </contour>
    <contour>
      <point x="92" y="615" type="line"/>
      <point x="92" y="147" type="line" smooth="yes"/>
      <point x="92" y="56"/>
      <point x="114" y="-16"/>
      <point x="221" y="-16" type="curve" smooth="yes"/>
      <point x="282" y="-16"/>
      <point x="372" y="22"/>
      <point x="372" y="66" type="curve" smooth="yes"/>
      <point x="372" y="81"/>
      <point x="361" y="95"/>
      <point x="353" y="97" type="curve"/>
      <point x="306" y="60"/>
      <point x="280" y="53"/>
      <point x="235" y="53" type="curve" smooth="yes"/>
      <point x="190" y="53"/>
      <point x="176" y="86"/>
      <point x="176" y="151" type="curve" smooth="yes"/>
      <point x="176" y="631" type="line"/>
    </contour>
    <contour>
      <point x="50" y="494" type="line"/>
      <point x="16" y="494"/>
      <point x="15" y="460"/>
      <point x="16" y="441" type="curve"/>
      <point x="336" y="441" type="line"/>
      <point x="361" y="448"/>
      <point x="362" y="481"/>
      <point x="361" y="494" type="curve"/>
    </contour>
  </outline>
</glyph>
<glyph name="u" format="1">
  <advance width="580"/>
  <unicode hex="0075"/>
  <outline>
    <contour>
      <point x="287" y="494" type="move" name="top"/>
    </contour>
    <contour>
      <point x="503" y="-6" type="move" name="ogonek"/>
    </contour>
    <contour>
      <point x="490" y="60" type="line"/>
      <point x="490" y="494" type="line"/>
      <point x="361" y="494" type="line" smooth="yes"/>
      <point x="323" y="494"/>
      <point x="328" y="453"/>
      <point x="328" y="443" type="curve"/>
      <point x="406" y="440" type="line"/>
      <point x="406" y="103" type="line"/>
      <point x="371" y="73"/>
      <point x="337" y="54"/>
      <point x="286" y="54" type="curve" smooth="yes"/>
      <point x="215" y="54"/>
      <point x="174" y="97"/>
      <point x="174" y="193" type="curve" smooth="yes"/>
      <point x="174" y="494" type="line"/>
      <point x="47" y="494" type="line" smooth="yes"/>
      <point x="9" y="494"/>
      <point x="14" y="453"/>
      <point x="14" y="443" type="curve"/>
      <point x="89" y="440" type="line"/>
      <point x="89" y="190" type="line" smooth="yes"/>
      <point x="89" y="37"/>
      <point x="182" y="-15"/>
      <point x="265" y="-15" type="curve" smooth="yes"/>
      <point x="336" y="-15"/>
      <point x="380" y="17"/>
      <point x="415" y="50" type="curve"/>
      <point x="431" y="-4" type="line"/>
      <point x="558" y="7" type="line"/>
      <point x="558" y="20"/>
      <point x="559" y="55"/>
      <point x="531" y="56" type="curve" smooth="yes"/>
    </contour>
  </outline>
</glyph>
<glyph name="v" format="1">
  <advance width="491"/>
  <unicode hex="0076"/>
  <outline>
    <contour>
      <point x="120" y="491" type="line"/>
      <point x="30" y="476" type="line"/>
      <point x="214" y="0" type="line"/>
      <point x="267" y="0" type="line"/>
      <point x="466" y="488" type="line"/>
      <point x="391" y="482" type="line"/>
      <point x="217" y="25" type="line"/>
      <point x="273" y="67" type="line"/>
    </contour>
    <contour>
      <point x="33" y="494" type="line"/>
      <point x="7" y="494"/>
      <point x="2" y="464"/>
      <point x="3" y="446" type="curve"/>
      <point x="44" y="440" type="line"/>
      <point x="137" y="442" type="line"/>
      <point x="170" y="444" type="line" smooth="yes"/>
      <point x="209" y="448"/>
      <point x="204" y="484"/>
      <point x="205" y="494" type="curve"/>
    </contour>
    <contour>
      <point x="354" y="494" type="line"/>
      <point x="317" y="494"/>
      <point x="321" y="456"/>
      <point x="322" y="446" type="curve"/>
      <point x="379" y="440" type="line"/>
      <point x="440" y="443" type="line"/>
      <point x="456" y="444" type="line" smooth="yes"/>
      <point x="483" y="446"/>
      <point x="489" y="467"/>
      <point x="488" y="494" type="curve"/>
    </contour>
  </outline>
</glyph>
<glyph name="w" format="1">
  <advance width="712"/>
  <unicode hex="0077"/>
  <outline>
    <contour>
      <point x="373" y="494" type="move" name="top"/>
    </contour>
    <contour>
      <point x="123" y="491" type="line"/>
      <point x="31" y="481" type="line"/>
      <point x="190" y="0" type="line"/>
      <point x="239" y="0" type="line"/>
      <point x="371" y="350" type="line"/>
      <point x="332" y="351" type="line"/>
      <point x="453" y="0" type="line"/>
      <point x="502" y="0" type="line"/>
      <point x="686" y="488" type="line"/>
      <point x="609" y="482" type="line"/>
      <point x="469" y="62" type="line"/>
      <point x="515" y="62" type="line"/>
      <point x="393" y="450" type="line"/>
      <point x="346" y="449" type="line"/>
      <point x="210" y="63" type="line"/>
      <point x="248" y="68" type="line"/>
    </contour>
    <contour>
      <point x="33" y="494" type="line"/>
      <point x="7" y="494"/>
      <point x="2" y="464"/>
      <point x="3" y="446" type="curve"/>
      <point x="44" y="440" type="line"/>
      <point x="137" y="442" type="line"/>
      <point x="170" y="444" type="line" smooth="yes"/>
      <point x="209" y="448"/>
      <point x="204" y="484"/>
      <point x="205" y="494" type="curve"/>
    </contour>
    <contour>
      <point x="576" y="494" type="line"/>
      <point x="538" y="494"/>
      <point x="542" y="456"/>
      <point x="543" y="446" type="curve"/>
      <point x="600" y="440" type="line"/>
      <point x="664" y="443" type="line"/>
      <point x="678" y="444" type="line" smooth="yes"/>
      <point x="704" y="446"/>
      <point x="710" y="467"/>
      <point x="709" y="494" type="curve"/>
    </contour>
  </outline>
</glyph>
<glyph name="x" format="1">
  <advance width="497"/>
  <unicode hex="0078"/>
  <outline>
    <contour>
      <point x="137" y="476" type="line"/>
      <point x="41" y="470" type="line"/>
      <point x="369" y="18" type="line"/>
      <point x="460" y="30" type="line"/>
    </contour>
    <contour>
      <point x="142" y="54" type="line"/>
      <point x="75" y="52" type="line"/>
      <point x="44" y="50" type="line" smooth="yes"/>
      <point x="3" y="46"/>
      <point x="10" y="10"/>
      <point x="9" y="0" type="curve"/>
      <point x="167" y="0" type="line" smooth="yes"/>
      <point x="204" y="0"/>
      <point x="200" y="38"/>
      <point x="199" y="48" type="curve"/>
    </contour>
    <contour>
      <point x="225" y="269" type="line"/>
      <point x="60" y="31" type="line"/>
      <point x="126" y="28" type="line"/>
      <point x="265" y="245" type="line"/>
    </contour>
    <contour>
      <point x="442" y="54" type="line"/>
      <point x="343" y="52" type="line"/>
      <point x="318" y="50" type="line" smooth="yes"/>
      <point x="278" y="44"/>
      <point x="284" y="10"/>
      <point x="283" y="0" type="curve"/>
      <point x="458" y="0" type="line" smooth="yes"/>
      <point x="496" y="0"/>
      <point x="492" y="38"/>
      <point x="491" y="48" type="curve"/>
    </contour>
    <contour>
      <point x="45" y="494" type="line"/>
      <point x="9" y="494"/>
      <point x="12" y="456"/>
      <point x="13" y="446" type="curve"/>
      <point x="64" y="440" type="line"/>
      <point x="162" y="442" type="line"/>
      <point x="185" y="444" type="line" smooth="yes"/>
      <point x="225" y="451"/>
      <point x="219" y="484"/>
      <point x="220" y="494" type="curve"/>
    </contour>
    <contour>
      <point x="381" y="473" type="line"/>
      <point x="240" y="252" type="line"/>
      <point x="280" y="228" type="line"/>
      <point x="446" y="470" type="line"/>
    </contour>
    <contour>
      <point x="342" y="494" type="line"/>
      <point x="304" y="494"/>
      <point x="308" y="456"/>
      <point x="309" y="446" type="curve"/>
      <point x="359" y="440" type="line"/>
      <point x="427" y="443" type="line"/>
      <point x="450" y="444" type="line" smooth="yes"/>
      <point x="490" y="446"/>
      <point x="484" y="484"/>
      <point x="485" y="494" type="curve"/>
    </contour>
  </outline>
</glyph>
<glyph name="y" format="1">
  <advance width="507"/>
  <unicode hex="0079"/>
  <outline>
    <contour>
      <point x="267" y="494" type="move" name="top"/>
    </contour>
    <contour>
      <point x="132" y="491" type="line"/>
      <point x="35" y="489" type="line"/>
      <point x="239" y="12" type="line"/>
      <point x="286" y="12" type="line"/>
      <point x="479" y="488" type="line"/>
      <point x="407" y="482" type="line"/>
      <point x="237" y="40" type="line"/>
      <point x="293" y="81" type="line"/>
    </contour>
    <contour>
      <point x="234" y="36" type="line"/>
      <point x="213" y="-22"/>
      <point x="157" y="-156"/>
      <point x="115" y="-156" type="curve" smooth="yes"/>
      <point x="88" y="-156"/>
      <point x="87" y="-131"/>
      <point x="91" y="-113" type="curve"/>
      <point x="86" y="-111"/>
      <point x="79" y="-111"/>
      <point x="75" y="-111" type="curve" smooth="yes"/>
      <point x="46" y="-111"/>
      <point x="27" y="-133"/>
      <point x="27" y="-163" type="curve" smooth="yes"/>
      <point x="27" y="-195"/>
      <point x="53" y="-223"/>
      <point x="103" y="-223" type="curve" smooth="yes"/>
      <point x="196" y="-223"/>
      <point x="248" y="-77"/>
      <point x="292" y="28" type="curve"/>
    </contour>
    <contour>
      <point x="36" y="494" type="line"/>
      <point x="-1" y="494"/>
      <point x="3" y="456"/>
      <point x="4" y="446" type="curve"/>
      <point x="55" y="440" type="line"/>
      <point x="151" y="442" type="line"/>
      <point x="181" y="444" type="line" smooth="yes"/>
      <point x="221" y="449"/>
      <point x="215" y="484"/>
      <point x="216" y="494" type="curve"/>
    </contour>
    <contour>
      <point x="369" y="494" type="line"/>
      <point x="332" y="494"/>
      <point x="336" y="456"/>
      <point x="337" y="446" type="curve"/>
      <point x="394" y="440" type="line"/>
      <point x="444" y="442" type="line"/>
      <point x="470" y="444" type="line" smooth="yes"/>
      <point x="510" y="450"/>
      <point x="504" y="484"/>
      <point x="505" y="494" type="curve"/>
    </contour>
  </outline>
</glyph>
<glyph name="z" format="1">
  <advance width="414"/>
  <unicode hex="007A"/>
  <outline>
    <contour>
      <point x="222" y="494" type="move" name="top"/>
    </contour>
    <contour>
      <point x="50" y="494" type="line"/>
      <point x="50" y="353" type="line"/>
      <point x="67" y="346"/>
      <point x="101" y="353"/>
      <point x="105" y="385" type="curve" smooth="yes"/>
      <point x="110" y="441" type="line"/>
      <point x="294" y="446" type="line"/>
      <point x="15" y="37" type="line"/>
      <point x="16" y="24"/>
      <point x="22" y="9"/>
      <point x="28" y="0" type="curve"/>
      <point x="399" y="0" type="line"/>
      <point x="399" y="144" type="line"/>
      <point x="382" y="151"/>
      <point x="348" y="144"/>
      <point x="345" y="112" type="curve" smooth="yes"/>
      <point x="338" y="56" type="line"/>
      <point x="122" y="51" type="line"/>
      <point x="397" y="456" type="line"/>
      <point x="395" y="468"/>
      <point x="388" y="486"/>
      <point x="380" y="494" type="curve"/>
    </contour>
  </outline>
</glyph>
<glyph name="braceleft" format="1">
  <advance width="334"/>
  <unicode hex="007B"/>
  <outline>
    <contour>
      <point x="236" y="716" type="curve" smooth="yes"/>
      <point x="159" y="716"/>
      <point x="101" y="664"/>
      <point x="101" y="584" type="curve" smooth="yes"/>
      <point x="101" y="511"/>
      <point x="117" y="454"/>
      <point x="117" y="379" type="curve" smooth="yes"/>
      <point x="117" y="343"/>
      <point x="109" y="323"/>
      <point x="94" y="306" type="curve"/>
      <point x="87" y="297"/>
      <point x="77" y="289"/>
      <point x="50" y="278" type="curve"/>
      <point x="50" y="248" type="line"/>
      <point x="76" y="237"/>
      <point x="85" y="231"/>
      <point x="94" y="220" type="curve"/>
      <point x="109" y="202"/>
      <point x="117" y="184"/>
      <point x="117" y="150" type="curve" smooth="yes"/>
      <point x="117" y="69"/>
      <point x="101" y="12"/>
      <point x="101" y="-59" type="curve" smooth="yes"/>
      <point x="101" y="-139"/>
      <point x="157" y="-191"/>
      <point x="232" y="-191" type="curve" smooth="yes"/>
      <point x="265" y="-191"/>
      <point x="300" y="-186"/>
      <point x="320" y="-178" type="curve"/>
      <point x="315" y="-137" type="line"/>
      <point x="306" y="-138"/>
      <point x="295" y="-139"/>
      <point x="285" y="-139" type="curve" smooth="yes"/>
      <point x="217" y="-139"/>
      <point x="177" y="-114"/>
      <point x="177" y="-54" type="curve" smooth="yes"/>
      <point x="177" y="-4"/>
      <point x="194" y="74"/>
      <point x="194" y="135" type="curve" smooth="yes"/>
      <point x="194" y="209"/>
      <point x="171" y="249"/>
      <point x="141" y="259" type="curve"/>
      <point x="141" y="267" type="line"/>
      <point x="171" y="276"/>
      <point x="194" y="316"/>
      <point x="194" y="391" type="curve" smooth="yes"/>
      <point x="194" y="465"/>
      <point x="177" y="529"/>
      <point x="177" y="579" type="curve" smooth="yes"/>
      <point x="177" y="638"/>
      <point x="217" y="664"/>
      <point x="285" y="664" type="curve" smooth="yes"/>
      <point x="295" y="664"/>
      <point x="306" y="663"/>
      <point x="315" y="662" type="curve"/>
      <point x="320" y="703" type="line"/>
      <point x="306" y="711"/>
      <point x="272" y="716"/>
    </contour>
  </outline>
</glyph>
<glyph name="bar" format="1">
  <advance width="272"/>
  <unicode hex="007C"/>
  <outline>
    <contour>
      <point x="100" y="-195" type="line"/>
      <point x="172" y="-195" type="line"/>
      <point x="172" y="716" type="line"/>
      <point x="100" y="716" type="line"/>
    </contour>
  </outline>
</glyph>
<glyph name="asciitilde" format="1">
  <advance width="563"/>
  <unicode hex="007E"/>
  <outline>
    <contour>
      <point x="133" y="238" type="line"/>
      <point x="143" y="262"/>
      <point x="166" y="284"/>
      <point x="194" y="283" type="curve" smooth="yes"/>
      <point x="245" y="281"/>
      <point x="273" y="229"/>
      <point x="344" y="226" type="curve" smooth="yes"/>
      <point x="413" y="224"/>
      <point x="450" y="267"/>
      <point x="463" y="333" type="curve"/>
      <point x="431" y="343" type="line"/>
      <point x="422" y="315"/>
      <point x="397" y="293"/>
      <point x="361" y="294" type="curve" smooth="yes"/>
      <point x="303" y="296"/>
      <point x="279" y="352"/>
      <point x="215" y="354" type="curve" smooth="yes"/>
      <point x="162" y="356"/>
      <point x="116" y="318"/>
      <point x="100" y="251" type="curve"/>
    </contour>
  </outline>
</glyph>
<glyph name="cent" format="1">
  <advance width="492"/>
  <unicode hex="00A2"/>
  <outline>
    <contour>
      <point x="288" y="509" type="curve" smooth="yes"/>
      <point x="134" y="509"/>
      <point x="48" y="393"/>
      <point x="50" y="224" type="curve" smooth="yes"/>
      <point x="51" y="87"/>
      <point x="123" y="-16"/>
      <point x="256" y="-16" type="curve" smooth="yes"/>
      <point x="351" y="-16"/>
      <point x="442" y="32"/>
      <point x="442" y="74" type="curve" smooth="yes"/>
      <point x="442" y="82"/>
      <point x="437" y="96"/>
      <point x="426" y="103" type="curve"/>
      <point x="385" y="68"/>
      <point x="341" y="51"/>
      <point x="290" y="51" type="curve" smooth="yes"/>
      <point x="172" y="51"/>
      <point x="139" y="148"/>
      <point x="139" y="252" type="curve" smooth="yes"/>
      <point x="139" y="361"/>
      <point x="184" y="449"/>
      <point x="274" y="449" type="curve" smooth="yes"/>
      <point x="344" y="449"/>
      <point x="370" y="396"/>
      <point x="371" y="349" type="curve"/>
      <point x="400" y="347"/>
      <point x="436" y="360"/>
      <point x="436" y="409" type="curve" smooth="yes"/>
      <point x="436" y="469"/>
      <point x="379" y="509"/>
    </contour>
    <contour>
      <point x="302" y="17" type="line"/>
      <point x="248" y="12" type="line"/>
      <point x="238" y="-108" type="line"/>
      <point x="255" y="-116"/>
      <point x="292" y="-116"/>
      <point x="311" y="-108" type="curve"/>
    </contour>
    <contour>
      <point x="311" y="600" type="line"/>
      <point x="292" y="608"/>
      <point x="255" y="608"/>
      <point x="238" y="600" type="curve"/>
      <point x="247" y="482" type="line"/>
      <point x="302" y="485" type="line"/>
    </contour>
  </outline>
</glyph>
<glyph name="sterling" format="1">
  <advance width="519"/>
  <unicode hex="00A3"/>
  <outline>
    <contour>
      <point x="346" y="622" type="curve" smooth="yes"/>
      <point x="212" y="622"/>
      <point x="163" y="524"/>
      <point x="154" y="389" type="curve" smooth="yes"/>
      <point x="152" y="337"/>
      <point x="141" y="162"/>
      <point x="123" y="114" type="curve" smooth="yes"/>
      <point x="110" y="66"/>
      <point x="86" y="51"/>
      <point x="48" y="41" type="curve"/>
      <point x="47" y="26"/>
      <point x="49" y="10"/>
      <point x="54" y="0" type="curve"/>
      <point x="428" y="0" type="line" smooth="yes"/>
      <point x="466" y="0"/>
      <point x="473" y="26"/>
      <point x="471" y="57" type="curve"/>
      <point x="168" y="57" type="line"/>
      <point x="183" y="69"/>
      <point x="195" y="93"/>
      <point x="202" y="130" type="curve" smooth="yes"/>
      <point x="214" y="188"/>
      <point x="226" y="340"/>
      <point x="229" y="389" type="curve" smooth="yes"/>
      <point x="237" y="507"/>
      <point x="275" y="566"/>
      <point x="332" y="566" type="curve" smooth="yes"/>
      <point x="380" y="566"/>
      <point x="400" y="536"/>
      <point x="400" y="482" type="curve"/>
      <point x="431" y="480"/>
      <point x="465" y="493"/>
      <point x="465" y="538" type="curve" smooth="yes"/>
      <point x="465" y="597"/>
      <point x="406" y="622"/>
    </contour>
    <contour>
      <point x="391" y="323" type="line"/>
      <point x="59" y="323" type="line"/>
      <point x="59" y="268" type="line"/>
      <point x="391" y="268" type="line"/>
    </contour>
  </outline>
</glyph>
<glyph name="currency" format="1">
  <advance width="589"/>
  <unicode hex="00A4"/>
  <outline>
    <contour>
      <point x="488" y="281" type="curve" smooth="yes"/>
      <point x="488" y="329"/>
      <point x="475" y="371"/>
      <point x="451" y="403" type="curve"/>
      <point x="541" y="479" type="line"/>
      <point x="526" y="498"/>
      <point x="504" y="521"/>
      <point x="487" y="530" type="curve"/>
      <point x="409" y="442" type="line"/>
      <point x="379" y="463"/>
      <point x="340" y="474"/>
      <point x="296" y="474" type="curve" smooth="yes"/>
      <point x="251" y="474"/>
      <point x="212" y="462"/>
      <point x="180" y="441" type="curve"/>
      <point x="101" y="530" type="line"/>
      <point x="84" y="521"/>
      <point x="62" y="498"/>
      <point x="48" y="479" type="curve"/>
      <point x="140" y="401" type="line"/>
      <point x="116" y="369"/>
      <point x="104" y="328"/>
      <point x="104" y="281" type="curve" smooth="yes"/>
      <point x="104" y="235"/>
      <point x="116" y="195"/>
      <point x="138" y="164" type="curve"/>
      <point x="48" y="87" type="line"/>
      <point x="62" y="68"/>
      <point x="84" y="45"/>
      <point x="101" y="35" type="curve"/>
      <point x="180" y="124" type="line"/>
      <point x="211" y="102"/>
      <point x="250" y="90"/>
      <point x="296" y="90" type="curve" smooth="yes"/>
      <point x="341" y="90"/>
      <point x="380" y="100"/>
      <point x="411" y="122" type="curve"/>
      <point x="487" y="35" type="line"/>
      <point x="504" y="45"/>
      <point x="526" y="68"/>
      <point x="541" y="87" type="curve"/>
      <point x="453" y="162" type="line"/>
      <point x="476" y="193"/>
      <point x="488" y="234"/>
    </contour>
    <contour>
      <point x="297" y="156" type="curve" smooth="yes"/>
      <point x="224" y="156"/>
      <point x="175" y="207"/>
      <point x="175" y="281" type="curve" smooth="yes"/>
      <point x="175" y="356"/>
      <point x="224" y="407"/>
      <point x="297" y="407" type="curve" smooth="yes"/>
      <point x="368" y="407"/>
      <point x="417" y="356"/>
      <point x="417" y="281" type="curve" smooth="yes"/>
      <point x="417" y="207"/>
      <point x="368" y="156"/>
    </contour>
  </outline>
</glyph>
<glyph name="yen" format="1">
  <advance width="600"/>
  <unicode hex="00A5"/>
  <outline>
    <contour>
      <point x="351" y="315" type="line"/>
      <point x="266" y="316" type="line"/>
      <point x="266" y="0" type="line"/>
      <point x="351" y="0" type="line"/>
    </contour>
    <contour>
      <point x="352" y="56" type="line"/>
      <point x="266" y="54" type="line"/>
      <point x="226" y="52" type="line" smooth="yes"/>
      <point x="186" y="49"/>
      <point x="192" y="10"/>
      <point x="191" y="0" type="curve"/>
      <point x="392" y="0" type="line" smooth="yes"/>
      <point x="429" y="0"/>
      <point x="425" y="40"/>
      <point x="424" y="50" type="curve"/>
    </contour>
    <contour>
      <point x="52" y="590" type="line"/>
      <point x="281" y="259" type="line"/>
      <point x="336" y="259" type="line"/>
      <point x="548" y="598" type="line"/>
      <point x="470" y="592" type="line"/>
      <point x="288" y="287" type="line"/>
      <point x="334" y="314" type="line"/>
      <point x="155" y="595" type="line"/>
    </contour>
    <contour>
      <point x="455" y="559" type="line"/>
      <point x="526" y="561" type="line"/>
      <point x="553" y="563" type="line" smooth="yes"/>
      <point x="593" y="567"/>
      <point x="587" y="605"/>
      <point x="588" y="615" type="curve"/>
      <point x="412" y="615" type="line" smooth="yes"/>
      <point x="374" y="615"/>
      <point x="378" y="575"/>
      <point x="379" y="565" type="curve"/>
    </contour>
    <contour>
      <point x="76" y="559" type="line"/>
      <point x="166" y="561" type="line"/>
      <point x="209" y="563" type="line" smooth="yes"/>
      <point x="249" y="566"/>
      <point x="244" y="605"/>
      <point x="245" y="615" type="curve"/>
      <point x="46" y="615" type="line" smooth="yes"/>
      <point x="8" y="615"/>
      <point x="12" y="575"/>
      <point x="13" y="565" type="curve"/>
    </contour>
    <contour>
      <point x="469" y="322" type="line"/>
      <point x="137" y="322" type="line"/>
      <point x="137" y="268" type="line"/>
      <point x="469" y="268" type="line"/>
    </contour>
    <contour>
      <point x="469" y="217" type="line"/>
      <point x="137" y="217" type="line"/>
      <point x="137" y="162" type="line"/>
      <point x="469" y="162" type="line"/>
    </contour>
  </outline>
</glyph>
<glyph name="brokenbar" format="1">
  <advance width="272"/>
  <unicode hex="00A6"/>
  <outline>
    <contour>
      <point x="172" y="175" type="line"/>
      <point x="100" y="175" type="line"/>
      <point x="100" y="-195" type="line"/>
      <point x="172" y="-195" type="line"/>
    </contour>
    <contour>
      <point x="100" y="346" type="line"/>
      <point x="172" y="346" type="line"/>
      <point x="172" y="716" type="line"/>
      <point x="100" y="716" type="line"/>
    </contour>
  </outline>
</glyph>
<glyph name="section" format="1">
  <advance width="544"/>
  <unicode hex="00A7"/>
  <outline>
    <contour>
      <point x="155" y="399" type="line"/>
      <point x="106" y="369"/>
      <point x="72" y="320"/>
      <point x="72" y="255" type="curve" smooth="yes"/>
      <point x="72" y="146"/>
      <point x="166" y="102"/>
      <point x="270" y="58" type="curve" smooth="yes"/>
      <point x="358" y="20"/>
      <point x="420" y="-6"/>
      <point x="420" y="-85" type="curve" smooth="yes"/>
      <point x="420" y="-167"/>
      <point x="352" y="-212"/>
      <point x="265" y="-212" type="curve" smooth="yes"/>
      <point x="180" y="-212"/>
      <point x="127" y="-170"/>
      <point x="116" y="-86" type="curve"/>
      <point x="68" y="-86"/>
      <point x="44" y="-116"/>
      <point x="44" y="-153" type="curve" smooth="yes"/>
      <point x="44" y="-233"/>
      <point x="150" y="-274"/>
      <point x="249" y="-274" type="curve" smooth="yes"/>
      <point x="404" y="-274"/>
      <point x="499" y="-174"/>
      <point x="499" y="-53" type="curve" smooth="yes"/>
      <point x="499" y="50"/>
      <point x="428" y="88"/>
      <point x="315" y="137" type="curve" smooth="yes"/>
      <point x="233" y="172"/>
      <point x="152" y="203"/>
      <point x="152" y="278" type="curve" smooth="yes"/>
      <point x="152" y="314"/>
      <point x="170" y="341"/>
      <point x="201" y="357" type="curve"/>
    </contour>
    <contour>
      <point x="391" y="23" type="line"/>
      <point x="460" y="61"/>
      <point x="499" y="129"/>
      <point x="499" y="206" type="curve" smooth="yes"/>
      <point x="499" y="309"/>
      <point x="428" y="347"/>
      <point x="315" y="396" type="curve" smooth="yes"/>
      <point x="233" y="431"/>
      <point x="152" y="462"/>
      <point x="152" y="537" type="curve" smooth="yes"/>
      <point x="152" y="599"/>
      <point x="206" y="632"/>
      <point x="277" y="632" type="curve" smooth="yes"/>
      <point x="360" y="632"/>
      <point x="396" y="587"/>
      <point x="396" y="515" type="curve"/>
      <point x="434" y="511"/>
      <point x="468" y="533"/>
      <point x="468" y="582" type="curve" smooth="yes"/>
      <point x="468" y="670"/>
      <point x="360" y="696"/>
      <point x="288" y="695" type="curve" smooth="yes"/>
      <point x="182" y="694"/>
      <point x="72" y="631"/>
      <point x="72" y="514" type="curve" smooth="yes"/>
      <point x="72" y="405"/>
      <point x="166" y="362"/>
      <point x="270" y="317" type="curve" smooth="yes"/>
      <point x="358" y="279"/>
      <point x="420" y="253"/>
      <point x="420" y="174" type="curve" smooth="yes"/>
      <point x="420" y="127"/>
      <point x="397" y="91"/>
      <point x="358" y="71" type="curve"/>
    </contour>
  </outline>
</glyph>
<glyph name="dieresis" format="1">
  <advance width="600"/>
  <unicode hex="00A8"/>
  <outline>
    <contour>
      <point x="257" y="494" type="move" name="_top"/>
    </contour>
    <contour>
      <point x="170" y="566" type="curve" smooth="yes"/>
      <point x="201" y="566"/>
      <point x="226" y="592"/>
      <point x="226" y="623" type="curve" smooth="yes"/>
      <point x="226" y="654"/>
      <point x="201" y="680"/>
      <point x="170" y="680" type="curve" smooth="yes"/>
      <point x="137" y="680"/>
      <point x="111" y="654"/>
      <point x="111" y="623" type="curve" smooth="yes"/>
      <point x="111" y="592"/>
      <point x="137" y="566"/>
    </contour>
    <contour>
      <point x="340" y="566" type="curve" smooth="yes"/>
      <point x="374" y="566"/>
      <point x="399" y="592"/>
      <point x="399" y="623" type="curve" smooth="yes"/>
      <point x="399" y="654"/>
      <point x="374" y="680"/>
      <point x="340" y="680" type="curve" smooth="yes"/>
      <point x="310" y="680"/>
      <point x="284" y="654"/>
      <point x="284" y="623" type="curve" smooth="yes"/>
      <point x="284" y="592"/>
      <point x="310" y="566"/>
    </contour>
  </outline>
</glyph>
<glyph name="copyright" format="1">
  <advance width="672"/>
  <unicode hex="00A9"/>
  <outline>
    <contour>
      <point x="337" y="598" type="curve" smooth="yes"/>
      <point x="162" y="598"/>
      <point x="50" y="480"/>
      <point x="50" y="310" type="curve" smooth="yes"/>
      <point x="50" y="137"/>
      <point x="164" y="24"/>
      <point x="337" y="24" type="curve" smooth="yes"/>
      <point x="509" y="24"/>
      <point x="622" y="139"/>
      <point x="622" y="310" type="curve" smooth="yes"/>
      <point x="622" y="485"/>
      <point x="506" y="598"/>
    </contour>
    <contour>
      <point x="337" y="538" type="curve" smooth="yes"/>
      <point x="464" y="538"/>
      <point x="556" y="452"/>
      <point x="556" y="310" type="curve" smooth="yes"/>
      <point x="556" y="172"/>
      <point x="468" y="84"/>
      <point x="337" y="84" type="curve" smooth="yes"/>
      <point x="204" y="84"/>
      <point x="117" y="172"/>
      <point x="117" y="310" type="curve" smooth="yes"/>
      <point x="117" y="444"/>
      <point x="200" y="538"/>
    </contour>
    <contour>
      <point x="441" y="406" type="curve" smooth="yes"/>
      <point x="441" y="441"/>
      <point x="409" y="465"/>
      <point x="355" y="465" type="curve" smooth="yes"/>
      <point x="266" y="465"/>
      <point x="214" y="398"/>
      <point x="215" y="300" type="curve" smooth="yes"/>
      <point x="215" y="221"/>
      <point x="261" y="161"/>
      <point x="343" y="161" type="curve" smooth="yes"/>
      <point x="398" y="161"/>
      <point x="444" y="190"/>
      <point x="444" y="213" type="curve" smooth="yes"/>
      <point x="444" y="220"/>
      <point x="441" y="231"/>
      <point x="435" y="235" type="curve"/>
      <point x="411" y="216"/>
      <point x="386" y="210"/>
      <point x="360" y="210" type="curve" smooth="yes"/>
      <point x="294" y="210"/>
      <point x="278" y="260"/>
      <point x="278" y="317" type="curve" smooth="yes"/>
      <point x="278" y="375"/>
      <point x="303" y="420"/>
      <point x="347" y="420" type="curve" smooth="yes"/>
      <point x="384" y="420"/>
      <point x="401" y="395"/>
      <point x="401" y="372" type="curve"/>
      <point x="417" y="371"/>
      <point x="441" y="380"/>
    </contour>
  </outline>
</glyph>
<glyph name="ordfeminine" format="1">
  <advance width="341"/>
  <unicode hex="00AA"/>
  <outline>
    <contour>
      <point x="163" y="319" type="move" name="top"/>
    </contour>
    <contour>
      <point x="275" y="18" type="move" name="ogonek"/>
    </contour>
    <contour>
      <point x="162" y="626" type="curve" smooth="yes"/>
      <point x="95" y="626"/>
      <point x="56" y="599"/>
      <point x="56" y="563" type="curve" smooth="yes"/>
      <point x="56" y="536"/>
      <point x="78" y="525"/>
      <point x="104" y="528" type="curve"/>
      <point x="105" y="560"/>
      <point x="123" y="580"/>
      <point x="160" y="580" type="curve" smooth="yes"/>
      <point x="195" y="580"/>
      <point x="214" y="557"/>
      <point x="214" y="509" type="curve" smooth="yes"/>
      <point x="214" y="378" type="line" smooth="yes"/>
      <point x="214" y="349"/>
      <point x="228" y="322"/>
      <point x="275" y="322" type="curve" smooth="yes"/>
      <point x="310" y="322"/>
      <point x="321" y="342"/>
      <point x="321" y="358" type="curve"/>
      <point x="283" y="363" type="line"/>
      <point x="283" y="513" type="line" smooth="yes"/>
      <point x="283" y="593"/>
      <point x="232" y="626"/>
    </contour>
    <contour>
      <point x="162" y="488" type="curve" smooth="yes"/>
      <point x="67" y="488"/>
      <point x="36" y="447"/>
      <point x="36" y="402" type="curve" smooth="yes"/>
      <point x="36" y="351"/>
      <point x="73" y="322"/>
      <point x="131" y="322" type="curve" smooth="yes"/>
      <point x="181" y="322"/>
      <point x="220" y="346"/>
      <point x="247" y="384" type="curve"/>
      <point x="244" y="414" type="line"/>
      <point x="220" y="391"/>
      <point x="190" y="370"/>
      <point x="159" y="370" type="curve" smooth="yes"/>
      <point x="123" y="370"/>
      <point x="110" y="388"/>
      <point x="110" y="407" type="curve" smooth="yes"/>
      <point x="110" y="434"/>
      <point x="134" y="447"/>
      <point x="166" y="447" type="curve" smooth="yes"/>
      <point x="199" y="447"/>
      <point x="239" y="433"/>
      <point x="259" y="405" type="curve"/>
      <point x="257" y="470" type="line"/>
      <point x="234" y="482"/>
      <point x="197" y="488"/>
    </contour>
  </outline>
</glyph>
<glyph name="guillemotleft" format="1">
  <advance width="575"/>
  <unicode hex="00AB"/>
  <outline>
    <contour>
      <point x="545" y="438" type="line"/>
      <point x="507" y="474" type="line"/>
      <point x="263" y="270" type="line"/>
      <point x="258" y="251"/>
      <point x="258" y="239"/>
      <point x="263" y="221" type="curve"/>
      <point x="507" y="17" type="line"/>
      <point x="548" y="52" type="line"/>
      <point x="362" y="242" type="line"/>
      <point x="362" y="249" type="line"/>
    </contour>
    <contour>
      <point x="337" y="438" type="line"/>
      <point x="299" y="474" type="line"/>
      <point x="55" y="270" type="line"/>
      <point x="50" y="251"/>
      <point x="50" y="239"/>
      <point x="55" y="221" type="curve"/>
      <point x="299" y="17" type="line"/>
      <point x="340" y="52" type="line"/>
      <point x="154" y="242" type="line"/>
      <point x="154" y="249" type="line"/>
    </contour>
  </outline>
</glyph>
<glyph name="logicalnot" format="1">
  <advance width="488"/>
  <unicode hex="00AC"/>
  <outline>
    <contour>
      <point x="50" y="315" type="line"/>
      <point x="50" y="252" type="line"/>
      <point x="438" y="252" type="line"/>
      <point x="438" y="315" type="line"/>
    </contour>
    <contour>
      <point x="438" y="315" type="line"/>
      <point x="374" y="315" type="line"/>
      <point x="373" y="139" type="line"/>
      <point x="437" y="139" type="line"/>
    </contour>
  </outline>
</glyph>
<glyph name="registered" format="1">
  <advance width="605"/>
  <unicode hex="00AE"/>
  <outline>
    <contour>
      <point x="304" y="709" type="curve" smooth="yes"/>
      <point x="160" y="709"/>
      <point x="61" y="611"/>
      <point x="61" y="465" type="curve" smooth="yes"/>
      <point x="61" y="318"/>
      <point x="161" y="222"/>
      <point x="303" y="222" type="curve" smooth="yes"/>
      <point x="445" y="222"/>
      <point x="544" y="316"/>
      <point x="544" y="465" type="curve" smooth="yes"/>
      <point x="544" y="610"/>
      <point x="450" y="709"/>
    </contour>
    <contour>
      <point x="305" y="657" type="curve" smooth="yes"/>
      <point x="417" y="657"/>
      <point x="486" y="578"/>
      <point x="486" y="464" type="curve" smooth="yes"/>
      <point x="486" y="345"/>
      <point x="412" y="273"/>
      <point x="303" y="273" type="curve" smooth="yes"/>
      <point x="195" y="273"/>
      <point x="119" y="348"/>
      <point x="119" y="465" type="curve" smooth="yes"/>
      <point x="119" y="582"/>
      <point x="196" y="657"/>
    </contour>
    <contour>
      <point x="214" y="600" type="line"/>
      <point x="203" y="600"/>
      <point x="200" y="581"/>
      <point x="200" y="571" type="curve"/>
      <point x="229" y="569" type="line"/>
      <point x="277" y="571" type="line"/>
      <point x="298" y="571" type="line" smooth="yes"/>
      <point x="331" y="571"/>
      <point x="349" y="556"/>
      <point x="349" y="533" type="curve" smooth="yes"/>
      <point x="349" y="506"/>
      <point x="328" y="490"/>
      <point x="286" y="490" type="curve" smooth="yes"/>
      <point x="280" y="490"/>
      <point x="273" y="490"/>
      <point x="265" y="491" type="curve"/>
      <point x="259" y="462" type="line"/>
      <point x="272" y="461"/>
      <point x="282" y="461"/>
      <point x="293" y="461" type="curve" smooth="yes"/>
      <point x="360" y="461"/>
      <point x="398" y="490"/>
      <point x="398" y="537" type="curve" smooth="yes"/>
      <point x="398" y="578"/>
      <point x="369" y="600"/>
      <point x="305" y="600" type="curve" smooth="yes"/>
    </contour>
    <contour>
      <point x="276" y="381" type="line"/>
      <point x="228" y="381" type="line"/>
      <point x="216" y="380" type="line" smooth="yes"/>
      <point x="197" y="379"/>
      <point x="200" y="354"/>
      <point x="200" y="350" type="curve"/>
      <point x="292" y="350" type="line" smooth="yes"/>
      <point x="310" y="350"/>
      <point x="309" y="375"/>
      <point x="309" y="379" type="curve"/>
    </contour>
    <contour>
      <point x="277" y="586" type="line"/>
      <point x="228" y="586" type="line"/>
      <point x="228" y="350" type="line"/>
      <point x="277" y="350" type="line"/>
    </contour>
    <contour>
      <point x="284" y="471" type="line"/>
      <point x="299" y="423"/>
      <point x="343" y="345"/>
      <point x="391" y="345" type="curve" smooth="yes"/>
      <point x="411" y="345"/>
      <point x="424" y="357"/>
      <point x="426" y="375" type="curve"/>
      <point x="395" y="375"/>
      <point x="358" y="412"/>
      <point x="327" y="475" type="curve"/>
    </contour>
  </outline>
</glyph>
<glyph name="degree" format="1">
  <advance width="344"/>
  <unicode hex="00B0"/>
  <outline>
    <contour>
      <point x="54" y="579" type="curve" smooth="yes"/>
      <point x="54" y="512"/>
      <point x="103" y="466"/>
      <point x="172" y="466" type="curve" smooth="yes"/>
      <point x="239" y="466"/>
      <point x="289" y="513"/>
      <point x="289" y="579" type="curve" smooth="yes"/>
      <point x="289" y="647"/>
      <point x="240" y="692"/>
      <point x="172" y="692" type="curve" smooth="yes"/>
      <point x="105" y="692"/>
      <point x="54" y="647"/>
    </contour>
    <contour>
      <point x="114" y="580" type="curve" smooth="yes"/>
      <point x="114" y="615"/>
      <point x="136" y="639"/>
      <point x="172" y="639" type="curve" smooth="yes"/>
      <point x="207" y="639"/>
      <point x="230" y="615"/>
      <point x="230" y="579" type="curve" smooth="yes"/>
      <point x="230" y="544"/>
      <point x="208" y="518"/>
      <point x="172" y="518" type="curve" smooth="yes"/>
      <point x="137" y="518"/>
      <point x="114" y="544"/>
    </contour>
  </outline>
</glyph>
<glyph name="plusminus" format="1">
  <advance width="487"/>
  <unicode hex="00B1"/>
  <outline>
    <contour>
      <point x="50" y="312" type="line"/>
      <point x="50" y="249" type="line"/>
      <point x="437" y="249" type="line"/>
      <point x="437" y="312" type="line"/>
    </contour>
    <contour>
      <point x="276" y="474" type="line"/>
      <point x="211" y="474" type="line"/>
      <point x="211" y="136" type="line"/>
      <point x="276" y="136" type="line"/>
    </contour>
    <contour>
      <point x="50" y="100" type="line"/>
      <point x="50" y="37" type="line"/>
      <point x="437" y="37" type="line"/>
      <point x="437" y="100" type="line"/>
    </contour>
  </outline>
</glyph>
<glyph name="twosuperior" format="1">
  <advance width="331"/>
  <unicode hex="00B2"/>
  <outline>
    <contour>
      <point x="163" y="625" type="curve" smooth="yes"/>
      <point x="96" y="625"/>
      <point x="45" y="592"/>
      <point x="45" y="546" type="curve" smooth="yes"/>
      <point x="45" y="512"/>
      <point x="73" y="504"/>
      <point x="99" y="505" type="curve"/>
      <point x="99" y="547"/>
      <point x="116" y="584"/>
      <point x="161" y="584" type="curve" smooth="yes"/>
      <point x="194" y="584"/>
      <point x="212" y="560"/>
      <point x="212" y="529" type="curve" smooth="yes"/>
      <point x="212" y="448"/>
      <point x="101" y="366"/>
      <point x="36" y="313" type="curve"/>
      <point x="35" y="306"/>
      <point x="42" y="282"/>
      <point x="44" y="277" type="curve"/>
      <point x="296" y="277" type="line"/>
      <point x="296" y="376" type="line"/>
      <point x="284" y="381"/>
      <point x="262" y="376"/>
      <point x="259" y="356" type="curve" smooth="yes"/>
      <point x="255" y="322" type="line"/>
      <point x="81" y="322" type="line"/>
      <point x="106" y="314" type="line"/>
      <point x="146" y="340"/>
      <point x="283" y="433"/>
      <point x="283" y="531" type="curve" smooth="yes"/>
      <point x="283" y="586"/>
      <point x="240" y="625"/>
    </contour>
  </outline>
</glyph>
<glyph name="threesuperior" format="1">
  <advance width="309"/>
  <unicode hex="00B3"/>
  <outline>
    <contour>
      <point x="155" y="625" type="curve" smooth="yes"/>
      <point x="90" y="625"/>
      <point x="54" y="598"/>
      <point x="53" y="565" type="curve" smooth="yes"/>
      <point x="52" y="546"/>
      <point x="64" y="532"/>
      <point x="96" y="531" type="curve"/>
      <point x="98" y="556"/>
      <point x="111" y="584"/>
      <point x="149" y="584" type="curve" smooth="yes"/>
      <point x="178" y="584"/>
      <point x="194" y="569"/>
      <point x="194" y="545" type="curve" smooth="yes"/>
      <point x="194" y="490"/>
      <point x="127" y="476"/>
      <point x="97" y="476" type="curve"/>
      <point x="97" y="431" type="line"/>
      <point x="151" y="434"/>
      <point x="209" y="425"/>
      <point x="210" y="372" type="curve" smooth="yes"/>
      <point x="211" y="335"/>
      <point x="182" y="312"/>
      <point x="140" y="312" type="curve" smooth="yes"/>
      <point x="101" y="312"/>
      <point x="77" y="334"/>
      <point x="75" y="363" type="curve"/>
      <point x="46" y="362"/>
      <point x="34" y="345"/>
      <point x="34" y="328" type="curve" smooth="yes"/>
      <point x="34" y="297"/>
      <point x="74" y="271"/>
      <point x="140" y="271" type="curve" smooth="yes"/>
      <point x="230" y="271"/>
      <point x="283" y="319"/>
      <point x="283" y="376" type="curve" smooth="yes"/>
      <point x="283" y="437"/>
      <point x="222" y="477"/>
      <point x="125" y="463" type="curve"/>
      <point x="130" y="454" type="line"/>
      <point x="242" y="465"/>
      <point x="267" y="513"/>
      <point x="267" y="547" type="curve" smooth="yes"/>
      <point x="267" y="596"/>
      <point x="222" y="625"/>
    </contour>
  </outline>
</glyph>
<glyph name="acute" format="1">
  <advance width="600"/>
  <unicode hex="00B4"/>
  <outline>
    <contour>
      <point x="254" y="494" type="move" name="_top"/>
    </contour>
    <contour>
      <point x="408" y="647" type="line"/>
      <point x="397" y="668"/>
      <point x="367" y="698"/>
      <point x="339" y="701" type="curve"/>
      <point x="174" y="572" type="line"/>
      <point x="180" y="560"/>
      <point x="189" y="548"/>
      <point x="207" y="539" type="curve"/>
    </contour>
  </outline>
</glyph>
<glyph name="mu.math" format="1">
  <advance width="570"/>
  <unicode hex="00B5"/>
  <outline>
    <contour>
      <point x="172" y="494" type="line"/>
      <point x="87" y="494" type="line"/>
      <point x="87" y="190" type="line" smooth="yes"/>
      <point x="87" y="37"/>
      <point x="180" y="-15"/>
      <point x="263" y="-15" type="curve" smooth="yes"/>
      <point x="334" y="-15"/>
      <point x="378" y="17"/>
      <point x="413" y="50" type="curve"/>
      <point x="404" y="103" type="line"/>
      <point x="369" y="73"/>
      <point x="335" y="54"/>
      <point x="284" y="54" type="curve" smooth="yes"/>
      <point x="213" y="54"/>
      <point x="172" y="97"/>
      <point x="172" y="193" type="curve" smooth="yes"/>
    </contour>
    <contour>
      <point x="89" y="171" type="line"/>
      <point x="83" y="-204" type="line"/>
      <point x="97" y="-212"/>
      <point x="153" y="-213"/>
      <point x="170" y="-204" type="curve"/>
      <point x="163" y="59" type="line"/>
    </contour>
    <contour>
      <point x="484" y="494" type="line"/>
      <point x="399" y="494" type="line"/>
      <point x="399" y="79" type="line" smooth="yes"/>
      <point x="399" y="27"/>
      <point x="417" y="-16"/>
      <point x="482" y="-16" type="curve" smooth="yes"/>
      <point x="526" y="-16"/>
      <point x="550" y="3"/>
      <point x="550" y="35" type="curve"/>
      <point x="484" y="43" type="line"/>
    </contour>
  </outline>
</glyph>
<glyph name="paragraph" format="1">
  <advance width="646"/>
  <unicode hex="00B6"/>
  <outline>
    <contour>
      <point x="263" y="681" type="line"/>
      <point x="122" y="681"/>
      <point x="48" y="596"/>
      <point x="48" y="488" type="curve" smooth="yes"/>
      <point x="48" y="342"/>
      <point x="164" y="289"/>
      <point x="266" y="289" type="curve"/>
      <point x="266" y="-90" type="line"/>
      <point x="354" y="-90" type="line"/>
      <point x="354" y="625" type="line"/>
      <point x="437" y="625" type="line"/>
      <point x="437" y="-90" type="line"/>
      <point x="524" y="-90" type="line"/>
      <point x="524" y="625" type="line"/>
      <point x="597" y="631" type="line"/>
      <point x="598" y="653"/>
      <point x="594" y="681"/>
      <point x="567" y="681" type="curve" smooth="yes"/>
    </contour>
  </outline>
</glyph>
<glyph name="periodcentered" format="1">
  <advance width="205"/>
  <unicode hex="00B7"/>
  <outline>
    <contour>
      <point x="102" y="201" type="curve" smooth="yes"/>
      <point x="138" y="201"/>
      <point x="165" y="228"/>
      <point x="165" y="264" type="curve" smooth="yes"/>
      <point x="165" y="300"/>
      <point x="138" y="327"/>
      <point x="102" y="327" type="curve" smooth="yes"/>
      <point x="67" y="327"/>
      <point x="40" y="300"/>
      <point x="40" y="264" type="curve" smooth="yes"/>
      <point x="40" y="228"/>
      <point x="67" y="201"/>
    </contour>
  </outline>
</glyph>
<glyph name="cedilla" format="1">
  <advance width="600"/>
  <unicode hex="00B8"/>
  <outline>
    <contour>
      <point x="290" y="0" type="move" name="_bottom"/>
    </contour>
    <contour>
      <point x="315" y="18" type="line"/>
      <point x="272" y="18" type="line"/>
      <point x="246" y="-81" type="line"/>
      <point x="306" y="-81"/>
      <point x="318" y="-96"/>
      <point x="318" y="-116" type="curve" smooth="yes"/>
      <point x="318" y="-140"/>
      <point x="301" y="-151"/>
      <point x="275" y="-151" type="curve" smooth="yes"/>
      <point x="253" y="-151"/>
      <point x="238" y="-143"/>
      <point x="225" y="-133" type="curve"/>
      <point x="219" y="-137"/>
      <point x="211" y="-153"/>
      <point x="213" y="-168" type="curve"/>
      <point x="227" y="-183"/>
      <point x="251" y="-196"/>
      <point x="287" y="-196" type="curve" smooth="yes"/>
      <point x="343" y="-196"/>
      <point x="382" y="-163"/>
      <point x="382" y="-114" type="curve" smooth="yes"/>
      <point x="382" y="-77"/>
      <point x="359" y="-43"/>
      <point x="300" y="-43" type="curve"/>
    </contour>
  </outline>
</glyph>
<glyph name="onesuperior" format="1">
  <advance width="279"/>
  <unicode hex="00B9"/>
  <outline>
    <contour>
      <point x="181" y="595" type="line"/>
      <point x="181" y="613"/>
      <point x="173" y="621"/>
      <point x="161" y="621" type="curve" smooth="yes"/>
      <point x="152" y="621"/>
      <point x="136" y="620"/>
      <point x="125" y="615" type="curve" smooth="yes"/>
      <point x="38" y="568" type="line"/>
      <point x="38" y="562"/>
      <point x="52" y="533"/>
      <point x="73" y="539" type="curve" smooth="yes"/>
      <point x="113" y="551" type="line"/>
      <point x="113" y="283" type="line"/>
      <point x="181" y="283" type="line"/>
    </contour>
    <contour>
      <point x="181" y="323" type="line"/>
      <point x="113" y="322" type="line"/>
      <point x="76" y="320" type="line" smooth="yes"/>
      <point x="48" y="319"/>
      <point x="52" y="289"/>
      <point x="51" y="283" type="curve"/>
      <point x="216" y="283" type="line" smooth="yes"/>
      <point x="243" y="283"/>
      <point x="241" y="314"/>
      <point x="240" y="319" type="curve"/>
    </contour>
  </outline>
</glyph>
<glyph name="ordmasculine" format="1">
  <advance width="375"/>
  <unicode hex="00BA"/>
  <outline>
    <contour>
      <point x="190" y="308" type="move" name="top"/>
    </contour>
    <contour>
      <point x="188" y="626" type="curve" smooth="yes"/>
      <point x="95" y="626"/>
      <point x="43" y="566"/>
      <point x="44" y="465" type="curve" smooth="yes"/>
      <point x="44" y="373"/>
      <point x="89" y="319"/>
      <point x="175" y="319" type="curve" smooth="yes"/>
      <point x="268" y="319"/>
      <point x="319" y="378"/>
      <point x="318" y="475" type="curve" smooth="yes"/>
      <point x="318" y="571"/>
      <point x="264" y="626"/>
    </contour>
    <contour>
      <point x="181" y="579" type="curve" smooth="yes"/>
      <point x="224" y="579"/>
      <point x="246" y="535"/>
      <point x="246" y="468" type="curve" smooth="yes"/>
      <point x="246" y="406"/>
      <point x="222" y="366"/>
      <point x="181" y="366" type="curve" smooth="yes"/>
      <point x="139" y="366"/>
      <point x="116" y="406"/>
      <point x="116" y="472" type="curve" smooth="yes"/>
      <point x="116" y="535"/>
      <point x="140" y="579"/>
    </contour>
  </outline>
</glyph>
<glyph name="guillemotright" format="1">
  <advance width="575"/>
  <unicode hex="00BB"/>
  <outline>
    <contour>
      <point x="30" y="438" type="line"/>
      <point x="68" y="474" type="line"/>
      <point x="312" y="270" type="line"/>
      <point x="317" y="251"/>
      <point x="317" y="239"/>
      <point x="312" y="221" type="curve"/>
      <point x="68" y="17" type="line"/>
      <point x="27" y="52" type="line"/>
      <point x="213" y="242" type="line"/>
      <point x="213" y="249" type="line"/>
    </contour>
    <contour>
      <point x="238" y="438" type="line"/>
      <point x="276" y="474" type="line"/>
      <point x="520" y="270" type="line"/>
      <point x="525" y="251"/>
      <point x="525" y="239"/>
      <point x="520" y="221" type="curve"/>
      <point x="276" y="17" type="line"/>
      <point x="235" y="52" type="line"/>
      <point x="421" y="242" type="line"/>
      <point x="421" y="249" type="line"/>
    </contour>
  </outline>
</glyph>
<glyph name="onequarter" format="1">
  <advance width="662"/>
  <unicode hex="00BC"/>
  <outline>
    <contour>
      <point x="555" y="624" type="line"/>
      <point x="480" y="624" type="line"/>
      <point x="125" y="0" type="line"/>
      <point x="200" y="0" type="line"/>
    </contour>
    <contour>
      <point x="171" y="596" type="line"/>
      <point x="171" y="614"/>
      <point x="163" y="623"/>
      <point x="151" y="623" type="curve" smooth="yes"/>
      <point x="142" y="623"/>
      <point x="126" y="622"/>
      <point x="115" y="616" type="curve" smooth="yes"/>
      <point x="28" y="569" type="line"/>
      <point x="28" y="562"/>
      <point x="42" y="533"/>
      <point x="63" y="539" type="curve" smooth="yes"/>
      <point x="103" y="551" type="line"/>
      <point x="103" y="277" type="line"/>
      <point x="171" y="277" type="line"/>
    </contour>
    <contour>
      <point x="171" y="318" type="line"/>
      <point x="103" y="317" type="line"/>
      <point x="66" y="315" type="line" smooth="yes"/>
      <point x="39" y="313"/>
      <point x="43" y="283"/>
      <point x="42" y="277" type="curve"/>
      <point x="205" y="277" type="line" smooth="yes"/>
      <point x="233" y="277"/>
      <point x="230" y="308"/>
      <point x="230" y="314" type="curve"/>
    </contour>
    <contour>
      <point x="579" y="345" type="line"/>
      <point x="563" y="347"/>
      <point x="539" y="346"/>
      <point x="522" y="342" type="curve"/>
      <point x="350" y="101" type="line"/>
      <point x="352" y="87"/>
      <point x="358" y="76"/>
      <point x="366" y="66" type="curve"/>
      <point x="629" y="66" type="line"/>
      <point x="629" y="107" type="line"/>
      <point x="373" y="107" type="line"/>
      <point x="398" y="95" type="line"/>
      <point x="560" y="325" type="line"/>
      <point x="511" y="301" type="line"/>
      <point x="511" y="-12" type="line"/>
      <point x="579" y="-6" type="line"/>
    </contour>
  </outline>
</glyph>
<glyph name="onehalf" format="1">
  <advance width="662"/>
  <unicode hex="00BD"/>
  <outline>
    <contour>
      <point x="542" y="624" type="line"/>
      <point x="467" y="624" type="line"/>
      <point x="112" y="0" type="line"/>
      <point x="187" y="0" type="line"/>
    </contour>
    <contour>
      <point x="161" y="317" type="line"/>
      <point x="93" y="316" type="line"/>
      <point x="56" y="314" type="line" smooth="yes"/>
      <point x="29" y="312"/>
      <point x="33" y="282"/>
      <point x="32" y="276" type="curve"/>
      <point x="195" y="276" type="line" smooth="yes"/>
      <point x="223" y="276"/>
      <point x="220" y="307"/>
      <point x="220" y="313" type="curve"/>
    </contour>
    <contour>
      <point x="141" y="622" type="curve" smooth="yes"/>
      <point x="132" y="622"/>
      <point x="116" y="621"/>
      <point x="105" y="615" type="curve" smooth="yes"/>
      <point x="18" y="568" type="line"/>
      <point x="18" y="561"/>
      <point x="32" y="532"/>
      <point x="53" y="538" type="curve" smooth="yes"/>
      <point x="93" y="551" type="line"/>
      <point x="93" y="276" type="line"/>
      <point x="161" y="276" type="line"/>
      <point x="161" y="595" type="line" smooth="yes"/>
      <point x="161" y="613"/>
      <point x="153" y="622"/>
    </contour>
    <contour>
      <point x="510" y="348" type="curve" smooth="yes"/>
      <point x="444" y="348"/>
      <point x="393" y="314"/>
      <point x="393" y="269" type="curve" smooth="yes"/>
      <point x="393" y="235"/>
      <point x="420" y="227"/>
      <point x="446" y="228" type="curve"/>
      <point x="446" y="270"/>
      <point x="463" y="306"/>
      <point x="508" y="306" type="curve" smooth="yes"/>
      <point x="541" y="306"/>
      <point x="559" y="283"/>
      <point x="559" y="252" type="curve" smooth="yes"/>
      <point x="559" y="171"/>
      <point x="449" y="89"/>
      <point x="384" y="35" type="curve"/>
      <point x="382" y="28"/>
      <point x="390" y="5"/>
      <point x="392" y="0" type="curve"/>
      <point x="644" y="0" type="line"/>
      <point x="644" y="99" type="line"/>
      <point x="631" y="103"/>
      <point x="609" y="99"/>
      <point x="606" y="79" type="curve" smooth="yes"/>
      <point x="602" y="44" type="line"/>
      <point x="428" y="44" type="line"/>
      <point x="453" y="36" type="line"/>
      <point x="493" y="62"/>
      <point x="630" y="155"/>
      <point x="630" y="253" type="curve" smooth="yes"/>
      <point x="630" y="309"/>
      <point x="587" y="348"/>
    </contour>
  </outline>
</glyph>
<glyph name="threequarters" format="1">
  <advance width="662"/>
  <unicode hex="00BE"/>
  <outline>
    <contour>
      <point x="575" y="624" type="line"/>
      <point x="499" y="624" type="line"/>
      <point x="144" y="0" type="line"/>
      <point x="220" y="0" type="line"/>
    </contour>
    <contour>
      <point x="148" y="625" type="curve" smooth="yes"/>
      <point x="83" y="625"/>
      <point x="46" y="598"/>
      <point x="45" y="565" type="curve" smooth="yes"/>
      <point x="45" y="546"/>
      <point x="57" y="532"/>
      <point x="89" y="531" type="curve"/>
      <point x="91" y="556"/>
      <point x="104" y="584"/>
      <point x="142" y="584" type="curve" smooth="yes"/>
      <point x="171" y="584"/>
      <point x="187" y="569"/>
      <point x="187" y="545" type="curve" smooth="yes"/>
      <point x="187" y="490"/>
      <point x="120" y="476"/>
      <point x="89" y="476" type="curve"/>
      <point x="90" y="431" type="line"/>
      <point x="144" y="434"/>
      <point x="202" y="425"/>
      <point x="203" y="372" type="curve" smooth="yes"/>
      <point x="203" y="335"/>
      <point x="174" y="312"/>
      <point x="133" y="312" type="curve" smooth="yes"/>
      <point x="94" y="312"/>
      <point x="70" y="334"/>
      <point x="68" y="363" type="curve"/>
      <point x="39" y="362"/>
      <point x="27" y="345"/>
      <point x="27" y="328" type="curve" smooth="yes"/>
      <point x="27" y="297"/>
      <point x="66" y="271"/>
      <point x="133" y="271" type="curve" smooth="yes"/>
      <point x="223" y="271"/>
      <point x="276" y="319"/>
      <point x="276" y="376" type="curve" smooth="yes"/>
      <point x="276" y="437"/>
      <point x="214" y="477"/>
      <point x="118" y="463" type="curve"/>
      <point x="122" y="454" type="line"/>
      <point x="235" y="465"/>
      <point x="260" y="513"/>
      <point x="260" y="547" type="curve" smooth="yes"/>
      <point x="260" y="596"/>
      <point x="214" y="625"/>
    </contour>
    <contour>
      <point x="587" y="345" type="line"/>
      <point x="571" y="347"/>
      <point x="548" y="346"/>
      <point x="530" y="342" type="curve"/>
      <point x="358" y="101" type="line"/>
      <point x="360" y="87"/>
      <point x="366" y="76"/>
      <point x="374" y="66" type="curve"/>
      <point x="637" y="66" type="line"/>
      <point x="637" y="107" type="line"/>
      <point x="381" y="107" type="line"/>
      <point x="406" y="95" type="line"/>
      <point x="568" y="325" type="line"/>
      <point x="519" y="301" type="line"/>
      <point x="519" y="-12" type="line"/>
      <point x="588" y="-6" type="line"/>
    </contour>
  </outline>
</glyph>
<glyph name="Acircumflex" format="1">
  <advance width="625"/>
  <unicode hex="00C2"/>
  <outline>
    <contour>
      <point x="149" y="56" type="line"/>
      <point x="86" y="54" type="line"/>
      <point x="46" y="52" type="line" smooth="yes"/>
      <point x="6" y="49"/>
      <point x="12" y="10"/>
      <point x="11" y="0" type="curve"/>
      <point x="194" y="0" type="line" smooth="yes"/>
      <point x="232" y="0"/>
      <point x="228" y="40"/>
      <point x="227" y="50" type="curve"/>
    </contour>
    <contour>
      <point x="545" y="56" type="line"/>
      <point x="451" y="54" type="line"/>
      <point x="410" y="52" type="line" smooth="yes"/>
      <point x="370" y="49"/>
      <point x="376" y="10"/>
      <point x="375" y="0" type="curve"/>
      <point x="579" y="0" type="line" smooth="yes"/>
      <point x="617" y="0"/>
      <point x="613" y="40"/>
      <point x="612" y="50" type="curve"/>
    </contour>
    <contour>
      <point x="169" y="281" type="line"/>
      <point x="169" y="226" type="line"/>
      <point x="431" y="226" type="line"/>
      <point x="431" y="281" type="line"/>
    </contour>
    <contour>
      <point x="465" y="6" type="line"/>
      <point x="556" y="21" type="line"/>
      <point x="354" y="680" type="line"/>
      <point x="326" y="683"/>
      <point x="306" y="683"/>
      <point x="278" y="680" type="curve"/>
      <point x="72" y="12" type="line"/>
      <point x="136" y="11" type="line"/>
      <point x="320" y="636" type="line"/>
      <point x="285" y="637" type="line"/>
    </contour>
    <contour>
      <point x="349" y="874" type="line"/>
      <point x="327" y="880"/>
      <point x="308" y="880"/>
      <point x="283" y="874" type="curve"/>
      <point x="149" y="752" type="line"/>
      <point x="157" y="738"/>
      <point x="165" y="729"/>
      <point x="179" y="721" type="curve"/>
      <point x="349" y="830" type="line"/>
      <point x="281" y="830" type="line"/>
      <point x="450" y="721" type="line"/>
      <point x="464" y="728"/>
      <point x="474" y="740"/>
      <point x="481" y="752" type="curve"/>
    </contour>
  </outline>
</glyph>
<glyph name="Atilde" format="1">
  <advance width="625"/>
  <unicode hex="00C3"/>
  <outline>
    <contour>
      <point x="149" y="56" type="line"/>
      <point x="86" y="54" type="line"/>
      <point x="46" y="52" type="line" smooth="yes"/>
      <point x="6" y="49"/>
      <point x="12" y="10"/>
      <point x="11" y="0" type="curve"/>
      <point x="194" y="0" type="line" smooth="yes"/>
      <point x="232" y="0"/>
      <point x="228" y="40"/>
      <point x="227" y="50" type="curve"/>
    </contour>
    <contour>
      <point x="545" y="56" type="line"/>
      <point x="451" y="54" type="line"/>
      <point x="410" y="52" type="line" smooth="yes"/>
      <point x="370" y="49"/>
      <point x="376" y="10"/>
      <point x="375" y="0" type="curve"/>
      <point x="579" y="0" type="line" smooth="yes"/>
      <point x="617" y="0"/>
      <point x="613" y="40"/>
      <point x="612" y="50" type="curve"/>
    </contour>
    <contour>
      <point x="169" y="281" type="line"/>
      <point x="169" y="226" type="line"/>
      <point x="431" y="226" type="line"/>
      <point x="431" y="281" type="line"/>
    </contour>
    <contour>
      <point x="465" y="6" type="line"/>
      <point x="556" y="21" type="line"/>
      <point x="354" y="680" type="line"/>
      <point x="326" y="683"/>
      <point x="306" y="683"/>
      <point x="278" y="680" type="curve"/>
      <point x="72" y="12" type="line"/>
      <point x="136" y="11" type="line"/>
      <point x="320" y="636" type="line"/>
      <point x="285" y="637" type="line"/>
    </contour>
    <contour>
      <point x="180" y="754" type="line"/>
      <point x="188" y="778"/>
      <point x="208" y="801"/>
      <point x="234" y="801" type="curve" smooth="yes"/>
      <point x="282" y="801"/>
      <point x="310" y="750"/>
      <point x="376" y="750" type="curve" smooth="yes"/>
      <point x="440" y="750"/>
      <point x="474" y="794"/>
      <point x="484" y="861" type="curve"/>
      <point x="453" y="870" type="line"/>
      <point x="446" y="841"/>
      <point x="424" y="818"/>
      <point x="390" y="818" type="curve" smooth="yes"/>
      <point x="336" y="818"/>
      <point x="312" y="873"/>
      <point x="252" y="873" type="curve" smooth="yes"/>
      <point x="203" y="873"/>
      <point x="161" y="833"/>
      <point x="148" y="765" type="curve"/>
    </contour>
  </outline>
</glyph>
<glyph name="Adieresis" format="1">
  <advance width="625"/>
  <unicode hex="00C4"/>
  <outline>
    <contour>
      <point x="149" y="56" type="line"/>
      <point x="86" y="54" type="line"/>
      <point x="46" y="52" type="line" smooth="yes"/>
      <point x="6" y="49"/>
      <point x="12" y="10"/>
      <point x="11" y="0" type="curve"/>
      <point x="194" y="0" type="line" smooth="yes"/>
      <point x="232" y="0"/>
      <point x="228" y="40"/>
      <point x="227" y="50" type="curve"/>
    </contour>
    <contour>
      <point x="545" y="56" type="line"/>
      <point x="451" y="54" type="line"/>
      <point x="410" y="52" type="line" smooth="yes"/>
      <point x="370" y="49"/>
      <point x="376" y="10"/>
      <point x="375" y="0" type="curve"/>
      <point x="579" y="0" type="line" smooth="yes"/>
      <point x="617" y="0"/>
      <point x="613" y="40"/>
      <point x="612" y="50" type="curve"/>
    </contour>
    <contour>
      <point x="169" y="281" type="line"/>
      <point x="169" y="226" type="line"/>
      <point x="431" y="226" type="line"/>
      <point x="431" y="281" type="line"/>
    </contour>
    <contour>
      <point x="465" y="6" type="line"/>
      <point x="556" y="21" type="line"/>
      <point x="354" y="680" type="line"/>
      <point x="326" y="683"/>
      <point x="306" y="683"/>
      <point x="278" y="680" type="curve"/>
      <point x="72" y="12" type="line"/>
      <point x="136" y="11" type="line"/>
      <point x="320" y="636" type="line"/>
      <point x="285" y="637" type="line"/>
    </contour>
    <contour>
      <point x="228" y="752" type="curve" smooth="yes"/>
      <point x="259" y="752"/>
      <point x="284" y="777"/>
      <point x="284" y="809" type="curve" smooth="yes"/>
      <point x="284" y="840"/>
      <point x="259" y="866"/>
      <point x="228" y="866" type="curve" smooth="yes"/>
      <point x="195" y="866"/>
      <point x="169" y="840"/>
      <point x="169" y="809" type="curve" smooth="yes"/>
      <point x="169" y="777"/>
      <point x="195" y="752"/>
    </contour>
    <contour>
      <point x="399" y="752" type="curve" smooth="yes"/>
      <point x="432" y="752"/>
      <point x="457" y="777"/>
      <point x="457" y="809" type="curve" smooth="yes"/>
      <point x="457" y="840"/>
      <point x="432" y="866"/>
      <point x="399" y="866" type="curve" smooth="yes"/>
      <point x="368" y="866"/>
      <point x="342" y="840"/>
      <point x="342" y="809" type="curve" smooth="yes"/>
      <point x="342" y="777"/>
      <point x="368" y="752"/>
    </contour>
  </outline>
</glyph>
<glyph name="Aring" format="1">
  <advance width="625"/>
  <unicode hex="00C5"/>
  <outline>
    <contour>
      <point x="149" y="56" type="line"/>
      <point x="86" y="54" type="line"/>
      <point x="46" y="52" type="line" smooth="yes"/>
      <point x="6" y="49"/>
      <point x="12" y="10"/>
      <point x="11" y="0" type="curve"/>
      <point x="194" y="0" type="line" smooth="yes"/>
      <point x="232" y="0"/>
      <point x="228" y="40"/>
      <point x="227" y="50" type="curve"/>
    </contour>
    <contour>
      <point x="545" y="56" type="line"/>
      <point x="451" y="54" type="line"/>
      <point x="410" y="52" type="line" smooth="yes"/>
      <point x="370" y="49"/>
      <point x="376" y="10"/>
      <point x="375" y="0" type="curve"/>
      <point x="579" y="0" type="line" smooth="yes"/>
      <point x="617" y="0"/>
      <point x="613" y="40"/>
      <point x="612" y="50" type="curve"/>
    </contour>
    <contour>
      <point x="169" y="281" type="line"/>
      <point x="169" y="226" type="line"/>
      <point x="431" y="226" type="line"/>
      <point x="431" y="281" type="line"/>
    </contour>
    <contour>
      <point x="465" y="6" type="line"/>
      <point x="556" y="21" type="line"/>
      <point x="354" y="680" type="line"/>
      <point x="326" y="683"/>
      <point x="306" y="683"/>
      <point x="278" y="680" type="curve"/>
      <point x="72" y="12" type="line"/>
      <point x="136" y="11" type="line"/>
      <point x="320" y="636" type="line"/>
      <point x="285" y="637" type="line"/>
    </contour>
    <contour>
      <point x="320" y="906" type="curve" smooth="yes"/>
      <point x="263" y="906"/>
      <point x="226" y="870"/>
      <point x="226" y="816" type="curve" smooth="yes"/>
      <point x="226" y="765"/>
      <point x="261" y="730"/>
      <point x="316" y="730" type="curve" smooth="yes"/>
      <point x="371" y="730"/>
      <point x="409" y="766"/>
      <point x="410" y="820" type="curve" smooth="yes"/>
      <point x="410" y="871"/>
      <point x="375" y="906"/>
    </contour>
    <contour>
      <point x="318" y="862" type="curve" smooth="yes"/>
      <point x="345" y="862"/>
      <point x="362" y="845"/>
      <point x="362" y="818" type="curve" smooth="yes"/>
      <point x="362" y="791"/>
      <point x="345" y="773"/>
      <point x="318" y="773" type="curve" smooth="yes"/>
      <point x="291" y="773"/>
      <point x="273" y="791"/>
      <point x="273" y="818" type="curve" smooth="yes"/>
      <point x="273" y="845"/>
      <point x="291" y="862"/>
    </contour>
  </outline>
</glyph>
<glyph name="AE" format="1">
  <advance width="876"/>
  <unicode hex="00C6"/>
  <outline>
    <contour>
      <point x="742" y="697" type="move" name="top"/>
    </contour>
    <contour>
      <point x="929" y="-4" type="move" name="ogonek"/>
    </contour>
    <contour>
      <point x="733" y="0" type="move" name="bottom"/>
    </contour>
    <contour>
      <point x="817" y="681" type="line"/>
      <point x="391" y="680" type="line"/>
      <point x="65" y="12" type="line"/>
      <point x="129" y="11" type="line"/>
      <point x="422" y="625" type="line"/>
      <point x="429" y="624" type="line"/>
      <point x="429" y="54" type="line"/>
      <point x="388" y="52" type="line" smooth="yes"/>
      <point x="348" y="49"/>
      <point x="354" y="10"/>
      <point x="353" y="0" type="curve"/>
      <point x="837" y="0" type="line"/>
      <point x="837" y="144" type="line" smooth="yes"/>
      <point x="837" y="180"/>
      <point x="797" y="175"/>
      <point x="787" y="174" type="curve"/>
      <point x="777" y="63" type="line"/>
      <point x="517" y="56" type="line"/>
      <point x="517" y="310" type="line"/>
      <point x="706" y="299" type="line"/>
      <point x="710" y="325"/>
      <point x="710" y="356"/>
      <point x="705" y="379" type="curve"/>
      <point x="517" y="364" type="line"/>
      <point x="517" y="625" type="line"/>
      <point x="757" y="621" type="line"/>
      <point x="767" y="506" type="line"/>
      <point x="777" y="505"/>
      <point x="817" y="501"/>
      <point x="817" y="536" type="curve" smooth="yes"/>
    </contour>
    <contour>
      <point x="149" y="56" type="line"/>
      <point x="86" y="54" type="line"/>
      <point x="46" y="52" type="line" smooth="yes"/>
      <point x="6" y="49"/>
      <point x="12" y="10"/>
      <point x="11" y="0" type="curve"/>
      <point x="194" y="0" type="line" smooth="yes"/>
      <point x="232" y="0"/>
      <point x="228" y="40"/>
      <point x="227" y="50" type="curve"/>
    </contour>
    <contour>
      <point x="477" y="360" type="line"/>
      <point x="247" y="360" type="line"/>
      <point x="247" y="306" type="line"/>
      <point x="477" y="306" type="line"/>
    </contour>
  </outline>
</glyph>
<glyph name="Ccedilla" format="1">
  <advance width="571"/>
  <unicode hex="00C7"/>
  <outline>
    <contour>
      <point x="345" y="694" type="curve" smooth="yes"/>
      <point x="143" y="694"/>
      <point x="34" y="535"/>
      <point x="38" y="321" type="curve" smooth="yes"/>
      <point x="41" y="116"/>
      <point x="137" y="-15"/>
      <point x="326" y="-15" type="curve" smooth="yes"/>
      <point x="455" y="-15"/>
      <point x="543" y="50"/>
      <point x="543" y="90" type="curve" smooth="yes"/>
      <point x="543" y="99"/>
      <point x="539" y="111"/>
      <point x="530" y="115" type="curve"/>
      <point x="497" y="89"/>
      <point x="437" y="54"/>
      <point x="349" y="54" type="curve" smooth="yes"/>
      <point x="188" y="54"/>
      <point x="130" y="168"/>
      <point x="130" y="339" type="curve" smooth="yes"/>
      <point x="130" y="507"/>
      <point x="199" y="631"/>
      <point x="336" y="631" type="curve" smooth="yes"/>
      <point x="416" y="631"/>
      <point x="463" y="584"/>
      <point x="463" y="500" type="curve"/>
      <point x="511" y="501"/>
      <point x="537" y="524"/>
      <point x="537" y="566" type="curve" smooth="yes"/>
      <point x="537" y="638"/>
      <point x="457" y="694"/>
    </contour>
    <contour>
      <point x="357" y="18" type="line"/>
      <point x="314" y="18" type="line"/>
      <point x="288" y="-81" type="line"/>
      <point x="348" y="-81"/>
      <point x="360" y="-96"/>
      <point x="360" y="-116" type="curve" smooth="yes"/>
      <point x="360" y="-140"/>
      <point x="343" y="-151"/>
      <point x="317" y="-151" type="curve" smooth="yes"/>
      <point x="295" y="-151"/>
      <point x="280" y="-143"/>
      <point x="267" y="-133" type="curve"/>
      <point x="261" y="-137"/>
      <point x="253" y="-153"/>
      <point x="255" y="-168" type="curve"/>
      <point x="269" y="-183"/>
      <point x="293" y="-196"/>
      <point x="329" y="-196" type="curve" smooth="yes"/>
      <point x="385" y="-196"/>
      <point x="424" y="-163"/>
      <point x="424" y="-114" type="curve" smooth="yes"/>
      <point x="424" y="-77"/>
      <point x="401" y="-43"/>
      <point x="342" y="-43" type="curve"/>
    </contour>
  </outline>
</glyph>
<glyph name="Eacute" format="1">
  <advance width="558"/>
  <unicode hex="00C9"/>
  <outline>
    <contour>
      <point x="204" y="624" type="line"/>
      <point x="445" y="620" type="line"/>
      <point x="454" y="505" type="line"/>
      <point x="464" y="504"/>
      <point x="504" y="500"/>
      <point x="504" y="535" type="curve" smooth="yes"/>
      <point x="504" y="679" type="line"/>
      <point x="78" y="679" type="line" smooth="yes"/>
      <point x="39" y="679"/>
      <point x="43" y="640"/>
      <point x="44" y="630" type="curve"/>
      <point x="117" y="623" type="line"/>
      <point x="117" y="54" type="line"/>
      <point x="76" y="52" type="line" smooth="yes"/>
      <point x="36" y="49"/>
      <point x="42" y="10"/>
      <point x="41" y="0" type="curve"/>
      <point x="519" y="0" type="line"/>
      <point x="519" y="144" type="line" smooth="yes"/>
      <point x="519" y="180"/>
      <point x="479" y="175"/>
      <point x="469" y="174" type="curve"/>
      <point x="460" y="63" type="line"/>
      <point x="204" y="56" type="line"/>
      <point x="204" y="308" type="line"/>
      <point x="393" y="298" type="line"/>
      <point x="398" y="324"/>
      <point x="398" y="355"/>
      <point x="393" y="378" type="curve"/>
      <point x="204" y="362" type="line"/>
    </contour>
    <contour>
      <point x="463" y="838" type="line"/>
      <point x="453" y="860"/>
      <point x="423" y="889"/>
      <point x="395" y="893" type="curve"/>
      <point x="229" y="763" type="line"/>
      <point x="235" y="751"/>
      <point x="245" y="739"/>
      <point x="263" y="730" type="curve"/>
    </contour>
  </outline>
</glyph>
<glyph name="Ecircumflex" format="1">
  <advance width="558"/>
  <unicode hex="00CA"/>
  <outline>
    <contour>
      <point x="204" y="624" type="line"/>
      <point x="445" y="620" type="line"/>
      <point x="454" y="505" type="line"/>
      <point x="464" y="504"/>
      <point x="504" y="500"/>
      <point x="504" y="535" type="curve" smooth="yes"/>
      <point x="504" y="679" type="line"/>
      <point x="78" y="679" type="line" smooth="yes"/>
      <point x="39" y="679"/>
      <point x="43" y="640"/>
      <point x="44" y="630" type="curve"/>
      <point x="117" y="623" type="line"/>
      <point x="117" y="54" type="line"/>
      <point x="76" y="52" type="line" smooth="yes"/>
      <point x="36" y="49"/>
      <point x="42" y="10"/>
      <point x="41" y="0" type="curve"/>
      <point x="519" y="0" type="line"/>
      <point x="519" y="144" type="line" smooth="yes"/>
      <point x="519" y="180"/>
      <point x="479" y="175"/>
      <point x="469" y="174" type="curve"/>
      <point x="460" y="63" type="line"/>
      <point x="204" y="56" type="line"/>
      <point x="204" y="308" type="line"/>
      <point x="393" y="298" type="line"/>
      <point x="398" y="324"/>
      <point x="398" y="355"/>
      <point x="393" y="378" type="curve"/>
      <point x="204" y="362" type="line"/>
    </contour>
    <contour>
      <point x="344" y="874" type="line"/>
      <point x="321" y="880"/>
      <point x="302" y="880"/>
      <point x="278" y="874" type="curve"/>
      <point x="144" y="752" type="line"/>
      <point x="152" y="738"/>
      <point x="160" y="729"/>
      <point x="174" y="721" type="curve"/>
      <point x="344" y="830" type="line"/>
      <point x="276" y="830" type="line"/>
      <point x="445" y="721" type="line"/>
      <point x="459" y="728"/>
      <point x="469" y="740"/>
      <point x="476" y="752" type="curve"/>
    </contour>
  </outline>
</glyph>
<glyph name="Edieresis" format="1">
  <advance width="558"/>
  <unicode hex="00CB"/>
  <outline>
    <contour>
      <point x="204" y="624" type="line"/>
      <point x="445" y="620" type="line"/>
      <point x="454" y="505" type="line"/>
      <point x="464" y="504"/>
      <point x="504" y="500"/>
      <point x="504" y="535" type="curve" smooth="yes"/>
      <point x="504" y="679" type="line"/>
      <point x="78" y="679" type="line" smooth="yes"/>
      <point x="39" y="679"/>
      <point x="43" y="640"/>
      <point x="44" y="630" type="curve"/>
      <point x="117" y="623" type="line"/>
      <point x="117" y="54" type="line"/>
      <point x="76" y="52" type="line" smooth="yes"/>
      <point x="36" y="49"/>
      <point x="42" y="10"/>
      <point x="41" y="0" type="curve"/>
      <point x="519" y="0" type="line"/>
      <point x="519" y="144" type="line" smooth="yes"/>
      <point x="519" y="180"/>
      <point x="479" y="175"/>
      <point x="469" y="174" type="curve"/>
      <point x="460" y="63" type="line"/>
      <point x="204" y="56" type="line"/>
      <point x="204" y="308" type="line"/>
      <point x="393" y="298" type="line"/>
      <point x="398" y="324"/>
      <point x="398" y="355"/>
      <point x="393" y="378" type="curve"/>
      <point x="204" y="362" type="line"/>
    </contour>
    <contour>
      <point x="222" y="752" type="curve" smooth="yes"/>
      <point x="254" y="752"/>
      <point x="279" y="777"/>
      <point x="279" y="809" type="curve" smooth="yes"/>
      <point x="279" y="840"/>
      <point x="254" y="866"/>
      <point x="222" y="866" type="curve" smooth="yes"/>
      <point x="190" y="866"/>
      <point x="164" y="840"/>
      <point x="164" y="809" type="curve" smooth="yes"/>
      <point x="164" y="777"/>
      <point x="190" y="752"/>
    </contour>
    <contour>
      <point x="393" y="752" type="curve" smooth="yes"/>
      <point x="426" y="752"/>
      <point x="451" y="777"/>
      <point x="451" y="809" type="curve" smooth="yes"/>
      <point x="451" y="840"/>
      <point x="426" y="866"/>
      <point x="393" y="866" type="curve" smooth="yes"/>
      <point x="362" y="866"/>
      <point x="337" y="840"/>
      <point x="337" y="809" type="curve" smooth="yes"/>
      <point x="337" y="777"/>
      <point x="362" y="752"/>
    </contour>
  </outline>
</glyph>
<glyph name="Iacute" format="1">
  <advance width="322"/>
  <unicode hex="00CD"/>
  <outline>
    <contour>
      <point x="204" y="649" type="line"/>
      <point x="117" y="651" type="line"/>
      <point x="117" y="0" type="line"/>
      <point x="204" y="0" type="line"/>
    </contour>
    <contour>
      <point x="205" y="56" type="line"/>
      <point x="117" y="54" type="line"/>
      <point x="76" y="52" type="line" smooth="yes"/>
      <point x="36" y="49"/>
      <point x="42" y="10"/>
      <point x="41" y="0" type="curve"/>
      <point x="245" y="0" type="line" smooth="yes"/>
      <point x="283" y="0"/>
      <point x="279" y="40"/>
      <point x="278" y="50" type="curve"/>
    </contour>
    <contour>
      <point x="117" y="623" type="line"/>
      <point x="205" y="625" type="line"/>
      <point x="246" y="628" type="line" smooth="yes"/>
      <point x="286" y="630"/>
      <point x="280" y="669"/>
      <point x="281" y="679" type="curve"/>
      <point x="77" y="679" type="line" smooth="yes"/>
      <point x="39" y="679"/>
      <point x="43" y="639"/>
      <point x="44" y="629" type="curve"/>
    </contour>
    <contour>
      <point x="317" y="838" type="line"/>
      <point x="306" y="860"/>
      <point x="276" y="889"/>
      <point x="248" y="893" type="curve"/>
      <point x="83" y="763" type="line"/>
      <point x="89" y="751"/>
      <point x="99" y="739"/>
      <point x="116" y="730" type="curve"/>
    </contour>
  </outline>
</glyph>
<glyph name="Icircumflex" format="1">
  <advance width="322"/>
  <unicode hex="00CE"/>
  <outline>
    <contour>
      <point x="204" y="649" type="line"/>
      <point x="117" y="651" type="line"/>
      <point x="117" y="0" type="line"/>
      <point x="204" y="0" type="line"/>
    </contour>
    <contour>
      <point x="205" y="56" type="line"/>
      <point x="117" y="54" type="line"/>
      <point x="76" y="52" type="line" smooth="yes"/>
      <point x="36" y="49"/>
      <point x="42" y="10"/>
      <point x="41" y="0" type="curve"/>
      <point x="245" y="0" type="line" smooth="yes"/>
      <point x="283" y="0"/>
      <point x="279" y="40"/>
      <point x="278" y="50" type="curve"/>
    </contour>
    <contour>
      <point x="117" y="623" type="line"/>
      <point x="205" y="625" type="line"/>
      <point x="246" y="628" type="line" smooth="yes"/>
      <point x="286" y="630"/>
      <point x="280" y="669"/>
      <point x="281" y="679" type="curve"/>
      <point x="77" y="679" type="line" smooth="yes"/>
      <point x="39" y="679"/>
      <point x="43" y="639"/>
      <point x="44" y="629" type="curve"/>
    </contour>
    <contour>
      <point x="197" y="874" type="line"/>
      <point x="175" y="880"/>
      <point x="156" y="880"/>
      <point x="131" y="874" type="curve"/>
      <point x="-3" y="752" type="line"/>
      <point x="5" y="738"/>
      <point x="13" y="729"/>
      <point x="27" y="721" type="curve"/>
      <point x="197" y="830" type="line"/>
      <point x="129" y="830" type="line"/>
      <point x="298" y="721" type="line"/>
      <point x="312" y="728"/>
      <point x="322" y="740"/>
      <point x="329" y="752" type="curve"/>
    </contour>
  </outline>
</glyph>
<glyph name="Idieresis" format="1">
  <advance width="322"/>
  <unicode hex="00CF"/>
  <outline>
    <contour>
      <point x="204" y="649" type="line"/>
      <point x="117" y="651" type="line"/>
      <point x="117" y="0" type="line"/>
      <point x="204" y="0" type="line"/>
    </contour>
    <contour>
      <point x="205" y="56" type="line"/>
      <point x="117" y="54" type="line"/>
      <point x="76" y="52" type="line" smooth="yes"/>
      <point x="36" y="49"/>
      <point x="42" y="10"/>
      <point x="41" y="0" type="curve"/>
      <point x="245" y="0" type="line" smooth="yes"/>
      <point x="283" y="0"/>
      <point x="279" y="40"/>
      <point x="278" y="50" type="curve"/>
    </contour>
    <contour>
      <point x="117" y="623" type="line"/>
      <point x="205" y="625" type="line"/>
      <point x="246" y="628" type="line" smooth="yes"/>
      <point x="286" y="630"/>
      <point x="280" y="669"/>
      <point x="281" y="679" type="curve"/>
      <point x="77" y="679" type="line" smooth="yes"/>
      <point x="39" y="679"/>
      <point x="43" y="639"/>
      <point x="44" y="629" type="curve"/>
    </contour>
    <contour>
      <point x="76" y="752" type="curve" smooth="yes"/>
      <point x="107" y="752"/>
      <point x="132" y="777"/>
      <point x="132" y="809" type="curve" smooth="yes"/>
      <point x="132" y="840"/>
      <point x="107" y="866"/>
      <point x="76" y="866" type="curve" smooth="yes"/>
      <point x="43" y="866"/>
      <point x="17" y="840"/>
      <point x="17" y="809" type="curve" smooth="yes"/>
      <point x="17" y="777"/>
      <point x="43" y="752"/>
    </contour>
    <contour>
      <point x="247" y="752" type="curve" smooth="yes"/>
      <point x="280" y="752"/>
      <point x="305" y="777"/>
      <point x="305" y="809" type="curve" smooth="yes"/>
      <point x="305" y="840"/>
      <point x="280" y="866"/>
      <point x="247" y="866" type="curve" smooth="yes"/>
      <point x="216" y="866"/>
      <point x="190" y="840"/>
      <point x="190" y="809" type="curve" smooth="yes"/>
      <point x="190" y="777"/>
      <point x="216" y="752"/>
    </contour>
  </outline>
</glyph>
<glyph name="Eth" format="1">
  <advance width="700"/>
  <unicode hex="00D0"/>
  <outline>
    <contour>
      <point x="62" y="365" type="line"/>
      <point x="62" y="309" type="line"/>
      <point x="372" y="309" type="line"/>
      <point x="372" y="365" type="line"/>
    </contour>
    <component base="D"/>
  </outline>
</glyph>
<glyph name="Ntilde" format="1">
  <advance width="687"/>
  <unicode hex="00D1"/>
  <outline>
    <contour>
      <point x="489" y="679" type="line"/>
      <point x="451" y="679"/>
      <point x="455" y="639"/>
      <point x="456" y="629" type="curve"/>
      <point x="529" y="623" type="line"/>
      <point x="529" y="126" type="line"/>
      <point x="548" y="133" type="line"/>
      <point x="190" y="679" type="line"/>
      <point x="77" y="679" type="line" smooth="yes"/>
      <point x="39" y="679"/>
      <point x="43" y="639"/>
      <point x="44" y="629" type="curve"/>
      <point x="117" y="623" type="line"/>
      <point x="117" y="54" type="line"/>
      <point x="76" y="52" type="line" smooth="yes"/>
      <point x="36" y="49"/>
      <point x="42" y="10"/>
      <point x="41" y="0" type="curve"/>
      <point x="218" y="0" type="line" smooth="yes"/>
      <point x="256" y="0"/>
      <point x="252" y="40"/>
      <point x="251" y="50" type="curve"/>
      <point x="178" y="56" type="line"/>
      <point x="178" y="573" type="line"/>
      <point x="158" y="567" type="line"/>
      <point x="530" y="0" type="line"/>
      <point x="553" y="0"/>
      <point x="571" y="3"/>
      <point x="589" y="12" type="curve"/>
      <point x="589" y="625" type="line"/>
      <point x="631" y="628" type="line" smooth="yes"/>
      <point x="671" y="630"/>
      <point x="665" y="669"/>
      <point x="666" y="679" type="curve"/>
    </contour>
    <contour>
      <point x="208" y="754" type="line"/>
      <point x="216" y="778"/>
      <point x="236" y="801"/>
      <point x="262" y="801" type="curve" smooth="yes"/>
      <point x="310" y="801"/>
      <point x="338" y="750"/>
      <point x="405" y="750" type="curve" smooth="yes"/>
      <point x="468" y="750"/>
      <point x="502" y="794"/>
      <point x="512" y="861" type="curve"/>
      <point x="481" y="870" type="line"/>
      <point x="474" y="841"/>
      <point x="452" y="818"/>
      <point x="418" y="818" type="curve" smooth="yes"/>
      <point x="364" y="818"/>
      <point x="340" y="873"/>
      <point x="280" y="873" type="curve" smooth="yes"/>
      <point x="231" y="873"/>
      <point x="189" y="833"/>
      <point x="176" y="765" type="curve"/>
    </contour>
  </outline>
</glyph>
<glyph name="Oacute" format="1">
  <advance width="655"/>
  <unicode hex="00D3"/>
  <outline>
    <contour>
      <point x="341" y="694" type="curve" smooth="yes"/>
      <point x="146" y="694"/>
      <point x="35" y="546"/>
      <point x="38" y="321" type="curve" smooth="yes"/>
      <point x="41" y="112"/>
      <point x="141" y="-15"/>
      <point x="311" y="-15" type="curve" smooth="yes"/>
      <point x="512" y="-15"/>
      <point x="619" y="133"/>
      <point x="618" y="354" type="curve" smooth="yes"/>
      <point x="615" y="610"/>
      <point x="477" y="694"/>
    </contour>
    <contour>
      <point x="328" y="633" type="curve" smooth="yes"/>
      <point x="467" y="634"/>
      <point x="528" y="514"/>
      <point x="528" y="336" type="curve" smooth="yes"/>
      <point x="528" y="162"/>
      <point x="463" y="47"/>
      <point x="325" y="46" type="curve" smooth="yes"/>
      <point x="187" y="46"/>
      <point x="128" y="166"/>
      <point x="128" y="339" type="curve" smooth="yes"/>
      <point x="128" y="519"/>
      <point x="192" y="633"/>
    </contour>
    <contour>
      <point x="493" y="838" type="line"/>
      <point x="483" y="860"/>
      <point x="453" y="889"/>
      <point x="425" y="893" type="curve"/>
      <point x="259" y="763" type="line"/>
      <point x="265" y="751"/>
      <point x="275" y="739"/>
      <point x="292" y="730" type="curve"/>
    </contour>
  </outline>
</glyph>
<glyph name="Ocircumflex" format="1">
  <advance width="655"/>
  <unicode hex="00D4"/>
  <outline>
    <contour>
      <point x="341" y="694" type="curve" smooth="yes"/>
      <point x="146" y="694"/>
      <point x="35" y="546"/>
      <point x="38" y="321" type="curve" smooth="yes"/>
      <point x="41" y="112"/>
      <point x="141" y="-15"/>
      <point x="311" y="-15" type="curve" smooth="yes"/>
      <point x="512" y="-15"/>
      <point x="619" y="133"/>
      <point x="618" y="354" type="curve" smooth="yes"/>
      <point x="615" y="610"/>
      <point x="477" y="694"/>
    </contour>
    <contour>
      <point x="328" y="633" type="curve" smooth="yes"/>
      <point x="467" y="634"/>
      <point x="528" y="514"/>
      <point x="528" y="336" type="curve" smooth="yes"/>
      <point x="528" y="162"/>
      <point x="463" y="47"/>
      <point x="325" y="46" type="curve" smooth="yes"/>
      <point x="187" y="46"/>
      <point x="128" y="166"/>
      <point x="128" y="339" type="curve" smooth="yes"/>
      <point x="128" y="519"/>
      <point x="192" y="633"/>
    </contour>
    <contour>
      <point x="374" y="874" type="line"/>
      <point x="351" y="880"/>
      <point x="332" y="880"/>
      <point x="308" y="874" type="curve"/>
      <point x="174" y="752" type="line"/>
      <point x="181" y="738"/>
      <point x="189" y="729"/>
      <point x="204" y="721" type="curve"/>
      <point x="374" y="830" type="line"/>
      <point x="306" y="830" type="line"/>
      <point x="475" y="721" type="line"/>
      <point x="489" y="728"/>
      <point x="498" y="740"/>
      <point x="506" y="752" type="curve"/>
    </contour>
  </outline>
</glyph>
<glyph name="Otilde" format="1">
  <advance width="655"/>
  <unicode hex="00D5"/>
  <outline>
    <contour>
      <point x="341" y="694" type="curve" smooth="yes"/>
      <point x="146" y="694"/>
      <point x="35" y="546"/>
      <point x="38" y="321" type="curve" smooth="yes"/>
      <point x="41" y="112"/>
      <point x="141" y="-15"/>
      <point x="311" y="-15" type="curve" smooth="yes"/>
      <point x="512" y="-15"/>
      <point x="619" y="133"/>
      <point x="618" y="354" type="curve" smooth="yes"/>
      <point x="615" y="610"/>
      <point x="477" y="694"/>
    </contour>
    <contour>
      <point x="328" y="633" type="curve" smooth="yes"/>
      <point x="467" y="634"/>
      <point x="528" y="514"/>
      <point x="528" y="336" type="curve" smooth="yes"/>
      <point x="528" y="162"/>
      <point x="463" y="47"/>
      <point x="325" y="46" type="curve" smooth="yes"/>
      <point x="187" y="46"/>
      <point x="128" y="166"/>
      <point x="128" y="339" type="curve" smooth="yes"/>
      <point x="128" y="519"/>
      <point x="192" y="633"/>
    </contour>
    <contour>
      <point x="204" y="754" type="line"/>
      <point x="212" y="778"/>
      <point x="233" y="801"/>
      <point x="259" y="801" type="curve" smooth="yes"/>
      <point x="306" y="801"/>
      <point x="334" y="750"/>
      <point x="401" y="750" type="curve" smooth="yes"/>
      <point x="465" y="750"/>
      <point x="498" y="794"/>
      <point x="509" y="861" type="curve"/>
      <point x="478" y="870" type="line"/>
      <point x="471" y="841"/>
      <point x="448" y="818"/>
      <point x="414" y="818" type="curve" smooth="yes"/>
      <point x="360" y="818"/>
      <point x="337" y="873"/>
      <point x="276" y="873" type="curve" smooth="yes"/>
      <point x="227" y="873"/>
      <point x="185" y="833"/>
      <point x="172" y="765" type="curve"/>
    </contour>
  </outline>
</glyph>
<glyph name="Odieresis" format="1">
  <advance width="655"/>
  <unicode hex="00D6"/>
  <outline>
    <contour>
      <point x="341" y="694" type="curve" smooth="yes"/>
      <point x="146" y="694"/>
      <point x="35" y="546"/>
      <point x="38" y="321" type="curve" smooth="yes"/>
      <point x="41" y="112"/>
      <point x="141" y="-15"/>
      <point x="311" y="-15" type="curve" smooth="yes"/>
      <point x="512" y="-15"/>
      <point x="619" y="133"/>
      <point x="618" y="354" type="curve" smooth="yes"/>
      <point x="615" y="610"/>
      <point x="477" y="694"/>
    </contour>
    <contour>
      <point x="328" y="633" type="curve" smooth="yes"/>
      <point x="467" y="634"/>
      <point x="528" y="514"/>
      <point x="528" y="336" type="curve" smooth="yes"/>
      <point x="528" y="162"/>
      <point x="463" y="47"/>
      <point x="325" y="46" type="curve" smooth="yes"/>
      <point x="187" y="46"/>
      <point x="128" y="166"/>
      <point x="128" y="339" type="curve" smooth="yes"/>
      <point x="128" y="519"/>
      <point x="192" y="633"/>
    </contour>
    <contour>
      <point x="252" y="752" type="curve" smooth="yes"/>
      <point x="284" y="752"/>
      <point x="309" y="777"/>
      <point x="309" y="809" type="curve" smooth="yes"/>
      <point x="309" y="840"/>
      <point x="284" y="866"/>
      <point x="252" y="866" type="curve" smooth="yes"/>
      <point x="220" y="866"/>
      <point x="194" y="840"/>
      <point x="194" y="809" type="curve" smooth="yes"/>
      <point x="194" y="777"/>
      <point x="220" y="752"/>
    </contour>
    <contour>
      <point x="423" y="752" type="curve" smooth="yes"/>
      <point x="456" y="752"/>
      <point x="481" y="777"/>
      <point x="481" y="809" type="curve" smooth="yes"/>
      <point x="481" y="840"/>
      <point x="456" y="866"/>
      <point x="423" y="866" type="curve" smooth="yes"/>
      <point x="392" y="866"/>
      <point x="366" y="840"/>
      <point x="366" y="809" type="curve" smooth="yes"/>
      <point x="366" y="777"/>
      <point x="392" y="752"/>
    </contour>
  </outline>
</glyph>
<glyph name="multiply" format="1">
  <advance width="428"/>
  <unicode hex="00D7"/>
  <outline>
    <contour>
      <point x="95" y="444" type="line"/>
      <point x="50" y="399" type="line"/>
      <point x="332" y="117" type="line"/>
      <point x="377" y="162" type="line"/>
    </contour>
    <contour>
      <point x="378" y="398" type="line"/>
      <point x="332" y="444" type="line"/>
      <point x="50" y="162" type="line"/>
      <point x="96" y="116" type="line"/>
    </contour>
  </outline>
</glyph>
<glyph name="Oslash" format="1">
  <advance width="689"/>
  <unicode hex="00D8"/>
  <outline>
    <contour>
      <point x="120" y="15" type="line"/>
      <point x="178" y="-17" type="line"/>
      <point x="576" y="668" type="line"/>
      <point x="517" y="697" type="line"/>
    </contour>
    <component base="O"/>
  </outline>
</glyph>
<glyph name="Uacute" format="1">
  <advance width="653"/>
  <unicode hex="00DA"/>
  <outline>
    <contour>
      <point x="458" y="679" type="line"/>
      <point x="421" y="679"/>
      <point x="425" y="639"/>
      <point x="426" y="629" type="curve"/>
      <point x="498" y="623" type="line"/>
      <point x="498" y="248" type="line" smooth="yes"/>
      <point x="498" y="106"/>
      <point x="434" y="45"/>
      <point x="329" y="45" type="curve" smooth="yes"/>
      <point x="230" y="45"/>
      <point x="179" y="107"/>
      <point x="179" y="254" type="curve" smooth="yes"/>
      <point x="179" y="625" type="line"/>
      <point x="220" y="628" type="line" smooth="yes"/>
      <point x="260" y="630"/>
      <point x="254" y="669"/>
      <point x="255" y="679" type="curve"/>
      <point x="52" y="679" type="line" smooth="yes"/>
      <point x="14" y="679"/>
      <point x="18" y="639"/>
      <point x="19" y="629" type="curve"/>
      <point x="92" y="623" type="line"/>
      <point x="92" y="256" type="line" smooth="yes"/>
      <point x="92" y="77"/>
      <point x="162" y="-15"/>
      <point x="317" y="-15" type="curve" smooth="yes"/>
      <point x="486" y="-15"/>
      <point x="560" y="87"/>
      <point x="560" y="264" type="curve" smooth="yes"/>
      <point x="560" y="625" type="line"/>
      <point x="599" y="628" type="line" smooth="yes"/>
      <point x="639" y="630"/>
      <point x="633" y="669"/>
      <point x="634" y="679" type="curve"/>
    </contour>
    <contour>
      <point x="483" y="838" type="line"/>
      <point x="473" y="860"/>
      <point x="443" y="889"/>
      <point x="415" y="893" type="curve"/>
      <point x="250" y="763" type="line"/>
      <point x="256" y="751"/>
      <point x="265" y="739"/>
      <point x="283" y="730" type="curve"/>
    </contour>
  </outline>
</glyph>
<glyph name="Ucircumflex" format="1">
  <advance width="653"/>
  <unicode hex="00DB"/>
  <outline>
    <contour>
      <point x="458" y="679" type="line"/>
      <point x="421" y="679"/>
      <point x="425" y="639"/>
      <point x="426" y="629" type="curve"/>
      <point x="498" y="623" type="line"/>
      <point x="498" y="248" type="line" smooth="yes"/>
      <point x="498" y="106"/>
      <point x="434" y="45"/>
      <point x="329" y="45" type="curve" smooth="yes"/>
      <point x="230" y="45"/>
      <point x="179" y="107"/>
      <point x="179" y="254" type="curve" smooth="yes"/>
      <point x="179" y="625" type="line"/>
      <point x="220" y="628" type="line" smooth="yes"/>
      <point x="260" y="630"/>
      <point x="254" y="669"/>
      <point x="255" y="679" type="curve"/>
      <point x="52" y="679" type="line" smooth="yes"/>
      <point x="14" y="679"/>
      <point x="18" y="639"/>
      <point x="19" y="629" type="curve"/>
      <point x="92" y="623" type="line"/>
      <point x="92" y="256" type="line" smooth="yes"/>
      <point x="92" y="77"/>
      <point x="162" y="-15"/>
      <point x="317" y="-15" type="curve" smooth="yes"/>
      <point x="486" y="-15"/>
      <point x="560" y="87"/>
      <point x="560" y="264" type="curve" smooth="yes"/>
      <point x="560" y="625" type="line"/>
      <point x="599" y="628" type="line" smooth="yes"/>
      <point x="639" y="630"/>
      <point x="633" y="669"/>
      <point x="634" y="679" type="curve"/>
    </contour>
    <contour>
      <point x="364" y="874" type="line"/>
      <point x="341" y="880"/>
      <point x="323" y="880"/>
      <point x="298" y="874" type="curve"/>
      <point x="164" y="752" type="line"/>
      <point x="172" y="738"/>
      <point x="180" y="729"/>
      <point x="194" y="721" type="curve"/>
      <point x="364" y="830" type="line"/>
      <point x="296" y="830" type="line"/>
      <point x="465" y="721" type="line"/>
      <point x="479" y="728"/>
      <point x="489" y="740"/>
      <point x="496" y="752" type="curve"/>
    </contour>
  </outline>
</glyph>
<glyph name="Udieresis" format="1">
  <advance width="653"/>
  <unicode hex="00DC"/>
  <outline>
    <contour>
      <point x="458" y="679" type="line"/>
      <point x="421" y="679"/>
      <point x="425" y="639"/>
      <point x="426" y="629" type="curve"/>
      <point x="498" y="623" type="line"/>
      <point x="498" y="248" type="line" smooth="yes"/>
      <point x="498" y="106"/>
      <point x="434" y="45"/>
      <point x="329" y="45" type="curve" smooth="yes"/>
      <point x="230" y="45"/>
      <point x="179" y="107"/>
      <point x="179" y="254" type="curve" smooth="yes"/>
      <point x="179" y="625" type="line"/>
      <point x="220" y="628" type="line" smooth="yes"/>
      <point x="260" y="630"/>
      <point x="254" y="669"/>
      <point x="255" y="679" type="curve"/>
      <point x="52" y="679" type="line" smooth="yes"/>
      <point x="14" y="679"/>
      <point x="18" y="639"/>
      <point x="19" y="629" type="curve"/>
      <point x="92" y="623" type="line"/>
      <point x="92" y="256" type="line" smooth="yes"/>
      <point x="92" y="77"/>
      <point x="162" y="-15"/>
      <point x="317" y="-15" type="curve" smooth="yes"/>
      <point x="486" y="-15"/>
      <point x="560" y="87"/>
      <point x="560" y="264" type="curve" smooth="yes"/>
      <point x="560" y="625" type="line"/>
      <point x="599" y="628" type="line" smooth="yes"/>
      <point x="639" y="630"/>
      <point x="633" y="669"/>
      <point x="634" y="679" type="curve"/>
    </contour>
    <contour>
      <point x="242" y="752" type="curve" smooth="yes"/>
      <point x="274" y="752"/>
      <point x="299" y="777"/>
      <point x="299" y="809" type="curve" smooth="yes"/>
      <point x="299" y="840"/>
      <point x="274" y="866"/>
      <point x="242" y="866" type="curve" smooth="yes"/>
      <point x="210" y="866"/>
      <point x="184" y="840"/>
      <point x="184" y="809" type="curve" smooth="yes"/>
      <point x="184" y="777"/>
      <point x="210" y="752"/>
    </contour>
    <contour>
      <point x="413" y="752" type="curve" smooth="yes"/>
      <point x="446" y="752"/>
      <point x="471" y="777"/>
      <point x="471" y="809" type="curve" smooth="yes"/>
      <point x="471" y="840"/>
      <point x="446" y="866"/>
      <point x="413" y="866" type="curve" smooth="yes"/>
      <point x="382" y="866"/>
      <point x="357" y="840"/>
      <point x="357" y="809" type="curve" smooth="yes"/>
      <point x="357" y="777"/>
      <point x="382" y="752"/>
    </contour>
  </outline>
</glyph>
<glyph name="Yacute" format="1">
  <advance width="604"/>
  <unicode hex="00DD"/>
  <outline>
    <contour>
      <point x="349" y="315" type="line"/>
      <point x="260" y="316" type="line"/>
      <point x="260" y="0" type="line"/>
      <point x="349" y="0" type="line"/>
    </contour>
    <contour>
      <point x="349" y="56" type="line"/>
      <point x="260" y="54" type="line"/>
      <point x="219" y="52" type="line" smooth="yes"/>
      <point x="179" y="49"/>
      <point x="185" y="10"/>
      <point x="184" y="0" type="curve"/>
      <point x="389" y="0" type="line" smooth="yes"/>
      <point x="427" y="0"/>
      <point x="423" y="40"/>
      <point x="422" y="50" type="curve"/>
    </contour>
    <contour>
      <point x="44" y="655" type="line"/>
      <point x="271" y="259" type="line"/>
      <point x="337" y="259" type="line"/>
      <point x="565" y="663" type="line"/>
      <point x="493" y="657" type="line"/>
      <point x="292" y="287" type="line"/>
      <point x="337" y="314" type="line"/>
      <point x="144" y="660" type="line"/>
    </contour>
    <contour>
      <point x="478" y="624" type="line"/>
      <point x="543" y="626" type="line"/>
      <point x="566" y="629" type="line" smooth="yes"/>
      <point x="606" y="633"/>
      <point x="600" y="671"/>
      <point x="601" y="681" type="curve"/>
      <point x="434" y="681" type="line" smooth="yes"/>
      <point x="397" y="681"/>
      <point x="401" y="640"/>
      <point x="402" y="630" type="curve"/>
    </contour>
    <contour>
      <point x="63" y="624" type="line"/>
      <point x="164" y="626" type="line"/>
      <point x="205" y="629" type="line" smooth="yes"/>
      <point x="244" y="631"/>
      <point x="239" y="671"/>
      <point x="240" y="681" type="curve"/>
      <point x="36" y="681" type="line" smooth="yes"/>
      <point x="-1" y="681"/>
      <point x="3" y="640"/>
      <point x="4" y="630" type="curve"/>
    </contour>
    <contour>
      <point x="468" y="838" type="line"/>
      <point x="457" y="860"/>
      <point x="427" y="889"/>
      <point x="399" y="893" type="curve"/>
      <point x="234" y="763" type="line"/>
      <point x="240" y="751"/>
      <point x="250" y="739"/>
      <point x="267" y="730" type="curve"/>
    </contour>
  </outline>
</glyph>
<glyph name="Thorn" format="1">
  <advance width="597"/>
  <unicode hex="00DE"/>
  <outline>
    <contour>
      <point x="185" y="553" type="line"/>
      <point x="189" y="502" type="line"/>
      <point x="255" y="502" type="line" smooth="yes"/>
      <point x="383" y="502"/>
      <point x="446" y="454"/>
      <point x="446" y="351" type="curve" smooth="yes"/>
      <point x="446" y="249"/>
      <point x="380" y="196"/>
      <point x="247" y="196" type="curve" smooth="yes"/>
      <point x="231" y="196"/>
      <point x="202" y="196"/>
      <point x="185" y="198" type="curve"/>
      <point x="185" y="147" type="line"/>
      <point x="202" y="146"/>
      <point x="240" y="145"/>
      <point x="260" y="145" type="curve" smooth="yes"/>
      <point x="425" y="145"/>
      <point x="540" y="208"/>
      <point x="540" y="359" type="curve" smooth="yes"/>
      <point x="540" y="472"/>
      <point x="457" y="553"/>
      <point x="283" y="553" type="curve" smooth="yes"/>
    </contour>
    <contour>
      <point x="205" y="56" type="line"/>
      <point x="117" y="54" type="line"/>
      <point x="76" y="52" type="line" smooth="yes"/>
      <point x="36" y="49"/>
      <point x="42" y="10"/>
      <point x="41" y="0" type="curve"/>
      <point x="245" y="0" type="line" smooth="yes"/>
      <point x="283" y="0"/>
      <point x="279" y="40"/>
      <point x="278" y="50" type="curve"/>
    </contour>
    <contour>
      <point x="117" y="652" type="line"/>
      <point x="117" y="0" type="line"/>
      <point x="204" y="0" type="line"/>
      <point x="204" y="651" type="line"/>
    </contour>
    <contour>
      <point x="77" y="681" type="line"/>
      <point x="39" y="681"/>
      <point x="43" y="640"/>
      <point x="44" y="630" type="curve"/>
      <point x="117" y="624" type="line"/>
      <point x="205" y="626" type="line"/>
      <point x="246" y="629" type="line" smooth="yes"/>
      <point x="286" y="631"/>
      <point x="280" y="671"/>
      <point x="281" y="681" type="curve"/>
    </contour>
  </outline>
</glyph>
